DINishExpanded-Regular.ufo
<glyph name="numbersign" format="2">
  <advance width="598"/>
  <unicode hex="0023"/>
  <outline>
    <contour>
      <point x="111" y="0" type="line"/>
      <point x="185" y="0" type="line"/>
      <point x="214" y="221" type="line"/>
      <point x="345" y="221" type="line"/>
      <point x="316" y="0" type="line"/>
      <point x="391" y="0" type="line"/>
      <point x="420" y="221" type="line"/>
      <point x="550" y="221" type="line"/>
      <point x="550" y="290" type="line"/>
      <point x="428" y="290" type="line"/>
      <point x="446" y="433" type="line"/>
      <point x="575" y="433" type="line"/>
      <point x="575" y="501" type="line"/>
      <point x="455" y="501" type="line"/>
      <point x="481" y="707" type="line"/>
      <point x="408" y="707" type="line"/>
      <point x="381" y="501" type="line"/>
      <point x="250" y="501" type="line"/>
      <point x="276" y="707" type="line"/>
      <point x="203" y="707" type="line"/>
      <point x="176" y="501" type="line"/>
      <point x="48" y="501" type="line"/>
      <point x="48" y="433" type="line"/>
      <point x="167" y="433" type="line"/>
      <point x="148" y="290" type="line"/>
      <point x="24" y="290" type="line"/>
      <point x="24" y="221" type="line"/>
      <point x="139" y="221" type="line"/>
    </contour>
    <contour>
      <point x="223" y="290" type="line"/>
      <point x="242" y="433" type="line"/>
      <point x="373" y="433" type="line"/>
      <point x="354" y="290" type="line"/>
    </contour>
  </outline>
</glyph>
<glyph name="dollar" format="2">
  <advance width="531"/>
  <unicode hex="0024"/>
  <outline>
    <contour>
      <point x="226" y="-60" type="line"/>
      <point x="295" y="-60" type="line"/>
      <point x="295" y="30" type="line"/>
      <point x="417" y="40"/>
      <point x="489" y="106"/>
      <point x="489" y="216" type="curve" smooth="yes"/>
      <point x="489" y="317"/>
      <point x="412" y="371"/>
      <point x="319" y="390" type="curve" smooth="yes"/>
      <point x="232" y="408" type="line" smooth="yes"/>
      <point x="165" y="422"/>
      <point x="133" y="449"/>
      <point x="133" y="503" type="curve" smooth="yes"/>
      <point x="133" y="559"/>
      <point x="199" y="599"/>
      <point x="261" y="599" type="curve"/>
      <point x="323" y="599"/>
      <point x="387" y="559"/>
      <point x="393" y="497" type="curve"/>
      <point x="478" y="497" type="line"/>
      <point x="472" y="607"/>
      <point x="405" y="667"/>
      <point x="295" y="677" type="curve"/>
      <point x="295" y="759" type="line"/>
      <point x="226" y="759" type="line"/>
      <point x="226" y="676" type="line"/>
      <point x="110" y="666"/>
      <point x="45" y="596"/>
      <point x="45" y="496" type="curve" smooth="yes"/>
      <point x="45" y="398"/>
      <point x="103" y="351"/>
      <point x="216" y="326" type="curve" smooth="yes"/>
      <point x="305" y="306" type="line" smooth="yes"/>
      <point x="379" y="289"/>
      <point x="401" y="271"/>
      <point x="401" y="210" type="curve" smooth="yes"/>
      <point x="401" y="148"/>
      <point x="329" y="100"/>
      <point x="258" y="100" type="curve" smooth="yes"/>
      <point x="184" y="100"/>
      <point x="123" y="150"/>
      <point x="117" y="219" type="curve"/>
      <point x="32" y="219" type="line"/>
      <point x="38" y="103"/>
      <point x="104" y="39"/>
      <point x="226" y="29" type="curve"/>
    </contour>
  </outline>
</glyph>
<glyph name="ampersand" format="2">
  <advance width="678"/>
  <unicode hex="0026"/>
  <outline>
    <contour>
      <point x="626" y="0" type="line"/>
      <point x="591" y="0" type="line" smooth="yes"/>
      <point x="566" y="0"/>
      <point x="545" y="4"/>
      <point x="529" y="13" type="curve" smooth="yes"/>
      <point x="512" y="21"/>
      <point x="494" y="36"/>
      <point x="475" y="57" type="curve" smooth="yes"/>
      <point x="456" y="81" type="line"/>
      <point x="425" y="48"/>
      <point x="394" y="25"/>
      <point x="362" y="11" type="curve" smooth="yes"/>
      <point x="330" y="-4"/>
      <point x="295" y="-11"/>
      <point x="258" y="-11" type="curve" smooth="yes"/>
      <point x="215" y="-11"/>
      <point x="178" y="-3"/>
      <point x="147" y="14" type="curve" smooth="yes"/>
      <point x="116" y="31"/>
      <point x="93" y="53"/>
      <point x="77" y="82" type="curve" smooth="yes"/>
      <point x="61" y="111"/>
      <point x="53" y="143"/>
      <point x="53" y="179" type="curve" smooth="yes"/>
      <point x="53" y="220"/>
      <point x="65" y="257"/>
      <point x="89" y="292" type="curve" smooth="yes"/>
      <point x="112" y="327"/>
      <point x="149" y="360"/>
      <point x="199" y="392" type="curve"/>
      <point x="170" y="428"/>
      <point x="149" y="459"/>
      <point x="136" y="485" type="curve" smooth="yes"/>
      <point x="123" y="510"/>
      <point x="117" y="536"/>
      <point x="117" y="561" type="curve" smooth="yes"/>
      <point x="117" y="591"/>
      <point x="124" y="618"/>
      <point x="139" y="642" type="curve" smooth="yes"/>
      <point x="153" y="665"/>
      <point x="173" y="684"/>
      <point x="199" y="698" type="curve" smooth="yes"/>
      <point x="225" y="711"/>
      <point x="254" y="718"/>
      <point x="287" y="718" type="curve" smooth="yes"/>
      <point x="337" y="718"/>
      <point x="378" y="703"/>
      <point x="409" y="674" type="curve" smooth="yes"/>
      <point x="440" y="645"/>
      <point x="456" y="607"/>
      <point x="456" y="560" type="curve" smooth="yes"/>
      <point x="456" y="525"/>
      <point x="446" y="493"/>
      <point x="425" y="466" type="curve" smooth="yes"/>
      <point x="404" y="439"/>
      <point x="371" y="410"/>
      <point x="325" y="379" type="curve"/>
      <point x="319" y="376" type="line"/>
      <point x="462" y="205" type="line"/>
      <point x="554" y="312" type="line"/>
      <point x="612" y="261" type="line"/>
      <point x="512" y="144" type="line"/>
      <point x="537" y="115" type="line" smooth="yes"/>
      <point x="548" y="102"/>
      <point x="559" y="93"/>
      <point x="569" y="88" type="curve" smooth="yes"/>
      <point x="579" y="83"/>
      <point x="591" y="80"/>
      <point x="605" y="80" type="curve" smooth="yes"/>
      <point x="626" y="80" type="line"/>
    </contour>
    <contour>
      <point x="407" y="140" type="curve"/>
      <point x="247" y="333" type="line"/>
      <point x="211" y="309"/>
      <point x="184" y="285"/>
      <point x="166" y="261" type="curve" smooth="yes"/>
      <point x="148" y="236"/>
      <point x="139" y="210"/>
      <point x="139" y="182" type="curve" smooth="yes"/>
      <point x="139" y="149"/>
      <point x="150" y="121"/>
      <point x="172" y="100" type="curve" smooth="yes"/>
      <point x="194" y="79"/>
      <point x="225" y="68"/>
      <point x="264" y="68" type="curve" smooth="yes"/>
      <point x="290" y="68"/>
      <point x="314" y="74"/>
      <point x="337" y="85" type="curve" smooth="yes"/>
      <point x="359" y="96"/>
      <point x="382" y="114"/>
    </contour>
    <contour>
      <point x="203" y="562" type="curve" smooth="yes"/>
      <point x="203" y="545"/>
      <point x="207" y="528"/>
      <point x="216" y="511" type="curve" smooth="yes"/>
      <point x="225" y="494"/>
      <point x="241" y="470"/>
      <point x="265" y="440" type="curve" smooth="yes"/>
      <point x="270" y="434" type="line"/>
      <point x="276" y="438" type="line" smooth="yes"/>
      <point x="311" y="461"/>
      <point x="335" y="481"/>
      <point x="350" y="499" type="curve" smooth="yes"/>
      <point x="364" y="517"/>
      <point x="371" y="538"/>
      <point x="371" y="561" type="curve" smooth="yes"/>
      <point x="371" y="586"/>
      <point x="363" y="607"/>
      <point x="348" y="622" type="curve" smooth="yes"/>
      <point x="333" y="637"/>
      <point x="312" y="645"/>
      <point x="287" y="645" type="curve" smooth="yes"/>
      <point x="262" y="645"/>
      <point x="241" y="637"/>
      <point x="226" y="622" type="curve" smooth="yes"/>
      <point x="211" y="607"/>
      <point x="203" y="587"/>
    </contour>
  </outline>
</glyph>
<glyph name="parenleft" format="2">
  <advance width="320"/>
  <unicode hex="0028"/>
  <outline>
    <contour>
      <point x="194" y="-86" type="curve"/>
      <point x="267" y="-86" type="line"/>
      <point x="187" y="32"/>
      <point x="140" y="186"/>
      <point x="140" y="336" type="curve" smooth="yes"/>
      <point x="140" y="483"/>
      <point x="186" y="637"/>
      <point x="267" y="758" type="curve"/>
      <point x="195" y="758" type="line"/>
      <point x="101" y="636"/>
      <point x="53" y="490"/>
      <point x="53" y="336" type="curve" smooth="yes"/>
      <point x="53" y="182"/>
      <point x="100" y="40"/>
    </contour>
  </outline>
</glyph>
<glyph name="parenright" format="2">
  <advance width="320"/>
  <unicode hex="0029"/>
  <outline>
    <contour>
      <point x="53" y="-86" type="curve"/>
      <point x="127" y="-86" type="line"/>
      <point x="221" y="40"/>
      <point x="267" y="182"/>
      <point x="267" y="336" type="curve" smooth="yes"/>
      <point x="267" y="490"/>
      <point x="220" y="636"/>
      <point x="126" y="758" type="curve"/>
      <point x="53" y="758" type="line"/>
      <point x="135" y="638"/>
      <point x="180" y="486"/>
      <point x="180" y="336" type="curve" smooth="yes"/>
      <point x="180" y="186"/>
      <point x="135" y="32"/>
    </contour>
  </outline>
</glyph>
<glyph name="zero" format="2">
  <advance width="562"/>
  <unicode hex="0030"/>
  <outline>
    <contour>
      <point x="282" y="-10" type="curve" smooth="yes"/>
      <point x="426" y="-10"/>
      <point x="502" y="78"/>
      <point x="502" y="248" type="curve" smooth="yes"/>
      <point x="502" y="464" type="line" smooth="yes"/>
      <point x="502" y="630"/>
      <point x="428" y="717"/>
      <point x="282" y="717" type="curve" smooth="yes"/>
      <point x="136" y="717"/>
      <point x="62" y="630"/>
      <point x="62" y="464" type="curve" smooth="yes"/>
      <point x="62" y="248" type="line" smooth="yes"/>
      <point x="62" y="78"/>
      <point x="136" y="-10"/>
    </contour>
    <contour>
      <point x="156" y="255" type="curve" smooth="yes"/>
      <point x="156" y="452" type="line" smooth="yes"/>
      <point x="156" y="578"/>
      <point x="194" y="634"/>
      <point x="282" y="634" type="curve" smooth="yes"/>
      <point x="369" y="634"/>
      <point x="409" y="579"/>
      <point x="409" y="452" type="curve" smooth="yes"/>
      <point x="409" y="255" type="line" smooth="yes"/>
      <point x="409" y="129"/>
      <point x="372" y="73"/>
      <point x="282" y="73" type="curve" smooth="yes"/>
      <point x="194" y="73"/>
      <point x="156" y="129"/>
    </contour>
  </outline>
</glyph>
<glyph name="one" format="2">
  <advance width="370"/>
  <unicode hex="0031"/>
  <outline>
    <contour>
      <point x="197" y="0" type="line"/>
      <point x="290" y="0" type="line"/>
      <point x="290" y="707" type="line"/>
      <point x="197" y="707" type="line"/>
      <point x="46" y="610" type="line"/>
      <point x="46" y="511" type="line"/>
      <point x="197" y="605" type="line"/>
    </contour>
  </outline>
</glyph>
<glyph name="two" format="2">
  <advance width="542"/>
  <unicode hex="0032"/>
  <outline>
    <contour>
      <point x="57" y="0" type="line"/>
      <point x="489" y="0" type="line"/>
      <point x="489" y="82" type="line"/>
      <point x="180" y="82" type="line"/>
      <point x="390" y="321" type="line" smooth="yes"/>
      <point x="456" y="391"/>
      <point x="483" y="444"/>
      <point x="483" y="514" type="curve" smooth="yes"/>
      <point x="483" y="529" type="line" smooth="yes"/>
      <point x="483" y="639"/>
      <point x="400" y="717"/>
      <point x="268" y="717" type="curve" smooth="yes"/>
      <point x="136" y="717"/>
      <point x="56" y="642"/>
      <point x="56" y="530" type="curve" smooth="yes"/>
      <point x="56" y="512" type="line"/>
      <point x="146" y="512" type="line"/>
      <point x="146" y="523" type="line" smooth="yes"/>
      <point x="146" y="597"/>
      <point x="190" y="636"/>
      <point x="266" y="636" type="curve" smooth="yes"/>
      <point x="343" y="636"/>
      <point x="390" y="596"/>
      <point x="390" y="527" type="curve" smooth="yes"/>
      <point x="390" y="515" type="line" smooth="yes"/>
      <point x="390" y="465"/>
      <point x="372" y="429"/>
      <point x="318" y="371" type="curve" smooth="yes"/>
      <point x="57" y="75" type="line"/>
    </contour>
  </outline>
</glyph>
<glyph name="three" format="2">
  <advance width="562"/>
  <unicode hex="0033"/>
  <outline>
    <contour>
      <point x="57" y="171" type="curve" smooth="yes"/>
      <point x="57" y="181" type="line"/>
      <point x="147" y="181" type="line"/>
      <point x="147" y="172" type="line" smooth="yes"/>
      <point x="147" y="139"/>
      <point x="158" y="114"/>
      <point x="181" y="97" type="curve" smooth="yes"/>
      <point x="203" y="80"/>
      <point x="235" y="71"/>
      <point x="278" y="71" type="curve" smooth="yes"/>
      <point x="320" y="71"/>
      <point x="352" y="81"/>
      <point x="375" y="102" type="curve" smooth="yes"/>
      <point x="398" y="122"/>
      <point x="409" y="151"/>
      <point x="409" y="188" type="curve" smooth="yes"/>
      <point x="409" y="208" type="line" smooth="yes"/>
      <point x="409" y="246"/>
      <point x="397" y="275"/>
      <point x="374" y="295" type="curve" smooth="yes"/>
      <point x="350" y="315"/>
      <point x="315" y="325"/>
      <point x="269" y="325" type="curve" smooth="yes"/>
      <point x="227" y="325" type="line"/>
      <point x="227" y="407" type="line"/>
      <point x="268" y="407" type="line" smooth="yes"/>
      <point x="309" y="407"/>
      <point x="341" y="417"/>
      <point x="363" y="436" type="curve" smooth="yes"/>
      <point x="385" y="455"/>
      <point x="396" y="481"/>
      <point x="396" y="516" type="curve" smooth="yes"/>
      <point x="396" y="530" type="line" smooth="yes"/>
      <point x="396" y="564"/>
      <point x="386" y="590"/>
      <point x="365" y="609" type="curve" smooth="yes"/>
      <point x="344" y="627"/>
      <point x="314" y="636"/>
      <point x="274" y="636" type="curve" smooth="yes"/>
      <point x="235" y="636"/>
      <point x="205" y="627"/>
      <point x="185" y="610" type="curve" smooth="yes"/>
      <point x="164" y="592"/>
      <point x="154" y="566"/>
      <point x="154" y="532" type="curve" smooth="yes"/>
      <point x="154" y="522" type="line"/>
      <point x="66" y="522" type="line"/>
      <point x="66" y="534" type="line" smooth="yes"/>
      <point x="66" y="591"/>
      <point x="85" y="636"/>
      <point x="122" y="669" type="curve" smooth="yes"/>
      <point x="159" y="701"/>
      <point x="211" y="717"/>
      <point x="278" y="717" type="curve" smooth="yes"/>
      <point x="344" y="717"/>
      <point x="396" y="701"/>
      <point x="433" y="670" type="curve" smooth="yes"/>
      <point x="470" y="638"/>
      <point x="488" y="594"/>
      <point x="488" y="537" type="curve" smooth="yes"/>
      <point x="488" y="521" type="line" smooth="yes"/>
      <point x="488" y="486"/>
      <point x="479" y="456"/>
      <point x="461" y="431" type="curve" smooth="yes"/>
      <point x="443" y="406"/>
      <point x="418" y="387"/>
      <point x="387" y="374" type="curve"/>
      <point x="424" y="362"/>
      <point x="453" y="342"/>
      <point x="473" y="313" type="curve" smooth="yes"/>
      <point x="492" y="284"/>
      <point x="502" y="248"/>
      <point x="502" y="207" type="curve" smooth="yes"/>
      <point x="502" y="188" type="line" smooth="yes"/>
      <point x="502" y="127"/>
      <point x="482" y="78"/>
      <point x="442" y="43" type="curve" smooth="yes"/>
      <point x="401" y="8"/>
      <point x="346" y="-10"/>
      <point x="276" y="-10" type="curve" smooth="yes"/>
      <point x="207" y="-10"/>
      <point x="154" y="6"/>
      <point x="115" y="38" type="curve" smooth="yes"/>
      <point x="76" y="69"/>
      <point x="57" y="114"/>
    </contour>
  </outline>
</glyph>
<glyph name="five" format="2">
  <advance width="548"/>
  <unicode hex="0035"/>
  <outline>
    <contour>
      <point x="270" y="-10" type="curve" smooth="yes"/>
      <point x="408" y="-10"/>
      <point x="488" y="70"/>
      <point x="488" y="206" type="curve" smooth="yes"/>
      <point x="488" y="250" type="line" smooth="yes"/>
      <point x="488" y="388"/>
      <point x="416" y="466"/>
      <point x="292" y="466" type="curve" smooth="yes"/>
      <point x="237" y="466"/>
      <point x="188" y="446"/>
      <point x="157" y="415" type="curve"/>
      <point x="157" y="624" type="line"/>
      <point x="469" y="624" type="line"/>
      <point x="469" y="707" type="line"/>
      <point x="74" y="707" type="line"/>
      <point x="74" y="315" type="line"/>
      <point x="164" y="315" type="line"/>
      <point x="182" y="361"/>
      <point x="221" y="385"/>
      <point x="275" y="385" type="curve" smooth="yes"/>
      <point x="354" y="385"/>
      <point x="396" y="339"/>
      <point x="396" y="246" type="curve" smooth="yes"/>
      <point x="396" y="210" type="line" smooth="yes"/>
      <point x="396" y="118"/>
      <point x="355" y="72"/>
      <point x="272" y="72" type="curve" smooth="yes"/>
      <point x="193" y="72"/>
      <point x="152" y="115"/>
      <point x="152" y="172" type="curve" smooth="yes"/>
      <point x="152" y="177" type="line"/>
      <point x="62" y="177" type="line"/>
      <point x="62" y="169" type="line" smooth="yes"/>
      <point x="62" y="64"/>
      <point x="137" y="-10"/>
    </contour>
  </outline>
</glyph>
<glyph name="six" format="2">
  <advance width="565"/>
  <unicode hex="0036"/>
  <outline>
    <contour>
      <point x="284" y="-10" type="curve" smooth="yes"/>
      <point x="422" y="-10"/>
      <point x="511" y="71"/>
      <point x="511" y="201" type="curve" smooth="yes"/>
      <point x="511" y="225" type="line" smooth="yes"/>
      <point x="511" y="342"/>
      <point x="425" y="428"/>
      <point x="308" y="428" type="curve" smooth="yes"/>
      <point x="271" y="428"/>
      <point x="237" y="420"/>
      <point x="220" y="410" type="curve"/>
      <point x="400" y="707" type="line"/>
      <point x="299" y="707" type="line"/>
      <point x="126" y="418" type="line" smooth="yes"/>
      <point x="76" y="340"/>
      <point x="56" y="285"/>
      <point x="56" y="219" type="curve" smooth="yes"/>
      <point x="56" y="197" type="line" smooth="yes"/>
      <point x="56" y="71"/>
      <point x="144" y="-10"/>
    </contour>
    <contour>
      <point x="150" y="197" type="curve" smooth="yes"/>
      <point x="150" y="220" type="line" smooth="yes"/>
      <point x="150" y="299"/>
      <point x="200" y="346"/>
      <point x="283" y="346" type="curve" smooth="yes"/>
      <point x="366" y="346"/>
      <point x="419" y="298"/>
      <point x="419" y="221" type="curve" smooth="yes"/>
      <point x="419" y="198" type="line" smooth="yes"/>
      <point x="419" y="119"/>
      <point x="365" y="71"/>
      <point x="284" y="71" type="curve" smooth="yes"/>
      <point x="202" y="71"/>
      <point x="150" y="119"/>
    </contour>
  </outline>
</glyph>
<glyph name="eight" format="2">
  <advance width="581"/>
  <unicode hex="0038"/>
  <outline>
    <contour>
      <point x="62" y="190" type="curve" smooth="yes"/>
      <point x="62" y="206" type="line" smooth="yes"/>
      <point x="62" y="245"/>
      <point x="71" y="278"/>
      <point x="90" y="307" type="curve" smooth="yes"/>
      <point x="109" y="335"/>
      <point x="136" y="357"/>
      <point x="171" y="372" type="curve"/>
      <point x="142" y="385"/>
      <point x="119" y="404"/>
      <point x="103" y="430" type="curve" smooth="yes"/>
      <point x="86" y="456"/>
      <point x="78" y="486"/>
      <point x="78" y="519" type="curve" smooth="yes"/>
      <point x="78" y="532" type="line" smooth="yes"/>
      <point x="78" y="568"/>
      <point x="87" y="600"/>
      <point x="105" y="629" type="curve" smooth="yes"/>
      <point x="122" y="657"/>
      <point x="147" y="679"/>
      <point x="179" y="694" type="curve" smooth="yes"/>
      <point x="211" y="709"/>
      <point x="249" y="717"/>
      <point x="292" y="717" type="curve" smooth="yes"/>
      <point x="335" y="717"/>
      <point x="373" y="709"/>
      <point x="406" y="694" type="curve" smooth="yes"/>
      <point x="438" y="679"/>
      <point x="463" y="657"/>
      <point x="481" y="629" type="curve" smooth="yes"/>
      <point x="498" y="601"/>
      <point x="507" y="569"/>
      <point x="507" y="532" type="curve" smooth="yes"/>
      <point x="507" y="519" type="line" smooth="yes"/>
      <point x="507" y="486"/>
      <point x="499" y="456"/>
      <point x="482" y="430" type="curve" smooth="yes"/>
      <point x="465" y="404"/>
      <point x="443" y="385"/>
      <point x="414" y="372" type="curve"/>
      <point x="449" y="357"/>
      <point x="475" y="335"/>
      <point x="494" y="306" type="curve" smooth="yes"/>
      <point x="512" y="277"/>
      <point x="521" y="244"/>
      <point x="521" y="207" type="curve" smooth="yes"/>
      <point x="521" y="191" type="line" smooth="yes"/>
      <point x="521" y="130"/>
      <point x="500" y="81"/>
      <point x="458" y="45" type="curve" smooth="yes"/>
      <point x="416" y="8"/>
      <point x="361" y="-10"/>
      <point x="292" y="-10" type="curve" smooth="yes"/>
      <point x="222" y="-10"/>
      <point x="166" y="8"/>
      <point x="125" y="44" type="curve" smooth="yes"/>
      <point x="83" y="80"/>
      <point x="62" y="129"/>
    </contour>
    <contour>
      <point x="429" y="193" type="curve" smooth="yes"/>
      <point x="429" y="209" type="line" smooth="yes"/>
      <point x="429" y="246"/>
      <point x="417" y="276"/>
      <point x="393" y="298" type="curve" smooth="yes"/>
      <point x="368" y="319"/>
      <point x="335" y="330"/>
      <point x="292" y="330" type="curve" smooth="yes"/>
      <point x="249" y="330"/>
      <point x="215" y="319"/>
      <point x="191" y="298" type="curve" smooth="yes"/>
      <point x="167" y="276"/>
      <point x="155" y="246"/>
      <point x="155" y="209" type="curve" smooth="yes"/>
      <point x="155" y="193" type="line" smooth="yes"/>
      <point x="155" y="155"/>
      <point x="167" y="125"/>
      <point x="191" y="104" type="curve" smooth="yes"/>
      <point x="215" y="82"/>
      <point x="249" y="71"/>
      <point x="292" y="71" type="curve" smooth="yes"/>
      <point x="335" y="71"/>
      <point x="368" y="82"/>
      <point x="393" y="103" type="curve" smooth="yes"/>
      <point x="417" y="124"/>
      <point x="429" y="154"/>
    </contour>
    <contour>
      <point x="415" y="517" type="curve" smooth="yes"/>
      <point x="415" y="532" type="line" smooth="yes"/>
      <point x="415" y="564"/>
      <point x="404" y="589"/>
      <point x="382" y="608" type="curve" smooth="yes"/>
      <point x="360" y="627"/>
      <point x="330" y="636"/>
      <point x="292" y="636" type="curve" smooth="yes"/>
      <point x="255" y="636"/>
      <point x="225" y="627"/>
      <point x="203" y="609" type="curve" smooth="yes"/>
      <point x="181" y="590"/>
      <point x="170" y="565"/>
      <point x="170" y="532" type="curve" smooth="yes"/>
      <point x="170" y="517" type="line" smooth="yes"/>
      <point x="170" y="484"/>
      <point x="181" y="459"/>
      <point x="202" y="440" type="curve" smooth="yes"/>
      <point x="223" y="421"/>
      <point x="253" y="411"/>
      <point x="292" y="411" type="curve" smooth="yes"/>
      <point x="331" y="411"/>
      <point x="361" y="421"/>
      <point x="383" y="440" type="curve" smooth="yes"/>
      <point x="404" y="459"/>
      <point x="415" y="484"/>
    </contour>
  </outline>
</glyph>
<glyph name="nine" format="2">
  <advance width="565"/>
  <unicode hex="0039"/>
  <outline>
    <contour>
      <point x="168" y="0" type="line"/>
      <point x="268" y="0" type="line"/>
      <point x="442" y="289" type="line" smooth="yes"/>
      <point x="492" y="367"/>
      <point x="511" y="421"/>
      <point x="511" y="487" type="curve" smooth="yes"/>
      <point x="511" y="510" type="line" smooth="yes"/>
      <point x="511" y="635"/>
      <point x="423" y="717"/>
      <point x="284" y="717" type="curve" smooth="yes"/>
      <point x="146" y="717"/>
      <point x="56" y="636"/>
      <point x="56" y="506" type="curve" smooth="yes"/>
      <point x="56" y="481" type="line" smooth="yes"/>
      <point x="56" y="365"/>
      <point x="141" y="279"/>
      <point x="259" y="279" type="curve" smooth="yes"/>
      <point x="296" y="279"/>
      <point x="326" y="285"/>
      <point x="348" y="297" type="curve"/>
    </contour>
    <contour>
      <point x="148" y="485" type="curve" smooth="yes"/>
      <point x="148" y="509" type="line" smooth="yes"/>
      <point x="148" y="587"/>
      <point x="202" y="636"/>
      <point x="284" y="636" type="curve" smooth="yes"/>
      <point x="365" y="636"/>
      <point x="419" y="589"/>
      <point x="419" y="510" type="curve" smooth="yes"/>
      <point x="419" y="486" type="line" smooth="yes"/>
      <point x="419" y="407"/>
      <point x="366" y="360"/>
      <point x="285" y="360" type="curve" smooth="yes"/>
      <point x="201" y="360"/>
      <point x="148" y="409"/>
    </contour>
  </outline>
</glyph>
<glyph name="question" format="2">
  <advance width="496"/>
  <unicode hex="003F"/>
  <outline>
    <contour>
      <point x="197" y="187" type="line"/>
      <point x="287" y="187" type="line"/>
      <point x="287" y="240" type="line" smooth="yes"/>
      <point x="287" y="280"/>
      <point x="293" y="298"/>
      <point x="323" y="328" type="curve" smooth="yes"/>
      <point x="392" y="397" type="line" smooth="yes"/>
      <point x="434" y="443"/>
      <point x="454" y="487"/>
      <point x="454" y="543" type="curve" smooth="yes"/>
      <point x="454" y="651"/>
      <point x="374" y="717"/>
      <point x="244" y="717" type="curve" smooth="yes"/>
      <point x="109" y="717"/>
      <point x="37" y="647"/>
      <point x="35" y="526" type="curve"/>
      <point x="124" y="526" type="line"/>
      <point x="124" y="599"/>
      <point x="164" y="635"/>
      <point x="243" y="635" type="curve" smooth="yes"/>
      <point x="322" y="635"/>
      <point x="361" y="601"/>
      <point x="361" y="540" type="curve" smooth="yes"/>
      <point x="361" y="498"/>
      <point x="349" y="472"/>
      <point x="309" y="434" type="curve" smooth="yes"/>
      <point x="250" y="376" type="line" smooth="yes"/>
      <point x="208" y="334"/>
      <point x="197" y="306"/>
      <point x="197" y="244" type="curve" smooth="yes"/>
    </contour>
    <contour>
      <point x="189" y="0" type="line"/>
      <point x="293" y="0" type="line"/>
      <point x="293" y="105" type="line"/>
      <point x="189" y="105" type="line"/>
    </contour>
  </outline>
</glyph>
<glyph name="at" format="2">
  <advance width="877"/>
  <unicode hex="0040"/>
  <outline>
    <contour>
      <point x="438" y="-133" type="curve" smooth="yes"/>
      <point x="536" y="-133"/>
      <point x="610" y="-115"/>
      <point x="684" y="-71" type="curve"/>
      <point x="652" y="-4" type="line"/>
      <point x="586" y="-40"/>
      <point x="524" y="-56"/>
      <point x="438" y="-56" type="curve" smooth="yes"/>
      <point x="256" y="-56"/>
      <point x="138" y="66"/>
      <point x="138" y="251" type="curve" smooth="yes"/>
      <point x="138" y="330" type="line" smooth="yes"/>
      <point x="138" y="510"/>
      <point x="253" y="633"/>
      <point x="438" y="633" type="curve" smooth="yes"/>
      <point x="619" y="633"/>
      <point x="739" y="515"/>
      <point x="739" y="331" type="curve" smooth="yes"/>
      <point x="739" y="253" type="line" smooth="yes"/>
      <point x="739" y="161"/>
      <point x="714" y="126"/>
      <point x="667" y="126" type="curve" smooth="yes"/>
      <point x="630" y="126"/>
      <point x="603" y="152"/>
      <point x="603" y="207" type="curve" smooth="yes"/>
      <point x="603" y="503" type="line"/>
      <point x="522" y="503" type="line"/>
      <point x="522" y="458" type="line"/>
      <point x="500" y="492"/>
      <point x="462" y="513"/>
      <point x="412" y="513" type="curve" smooth="yes"/>
      <point x="312" y="513"/>
      <point x="265" y="446"/>
      <point x="265" y="330" type="curve" smooth="yes"/>
      <point x="265" y="240" type="line" smooth="yes"/>
      <point x="265" y="124"/>
      <point x="314" y="57"/>
      <point x="416" y="57" type="curve" smooth="yes"/>
      <point x="481" y="57"/>
      <point x="524" y="81"/>
      <point x="545" y="128" type="curve"/>
      <point x="565" y="82"/>
      <point x="609" y="57"/>
      <point x="666" y="57" type="curve" smooth="yes"/>
      <point x="760" y="57"/>
      <point x="824" y="125"/>
      <point x="824" y="255" type="curve" smooth="yes"/>
      <point x="824" y="332" type="line" smooth="yes"/>
      <point x="824" y="550"/>
      <point x="664" y="710"/>
      <point x="438" y="710" type="curve" smooth="yes"/>
      <point x="211" y="710"/>
      <point x="53" y="553"/>
      <point x="53" y="329" type="curve" smooth="yes"/>
      <point x="53" y="251" type="line" smooth="yes"/>
      <point x="53" y="23"/>
      <point x="213" y="-133"/>
    </contour>
    <contour>
      <point x="349" y="245" type="curve" smooth="yes"/>
      <point x="349" y="329" type="line" smooth="yes"/>
      <point x="349" y="404"/>
      <point x="378" y="442"/>
      <point x="435" y="442" type="curve" smooth="yes"/>
      <point x="493" y="442"/>
      <point x="520" y="401"/>
      <point x="520" y="331" type="curve" smooth="yes"/>
      <point x="520" y="241" type="line" smooth="yes"/>
      <point x="520" y="166"/>
      <point x="492" y="128"/>
      <point x="435" y="128" type="curve" smooth="yes"/>
      <point x="374" y="128"/>
      <point x="349" y="170"/>
    </contour>
  </outline>
</glyph>
<glyph name="A" format="2">
  <advance width="681"/>
  <unicode hex="0041"/>
  <outline>
    <contour>
      <point x="6" y="0" type="line"/>
      <point x="103" y="0" type="line"/>
      <point x="167" y="160" type="line"/>
      <point x="513" y="160" type="line"/>
      <point x="578" y="0" type="line"/>
      <point x="676" y="0" type="line"/>
      <point x="380" y="707" type="line"/>
      <point x="301" y="707" type="line"/>
    </contour>
    <contour>
      <point x="199" y="239" type="line"/>
      <point x="340" y="592" type="line"/>
      <point x="481" y="239" type="line"/>
    </contour>
  </outline>
</glyph>
<glyph name="B" format="2">
  <advance width="687"/>
  <unicode hex="0042"/>
  <outline>
    <contour>
      <point x="74" y="0" type="line"/>
      <point x="390" y="0" type="line" smooth="yes"/>
      <point x="542" y="0"/>
      <point x="627" y="67"/>
      <point x="627" y="197" type="curve" smooth="yes"/>
      <point x="627" y="283"/>
      <point x="586" y="339"/>
      <point x="508" y="365" type="curve"/>
      <point x="575" y="389"/>
      <point x="614" y="444"/>
      <point x="614" y="517" type="curve" smooth="yes"/>
      <point x="614" y="640"/>
      <point x="535" y="707"/>
      <point x="384" y="707" type="curve" smooth="yes"/>
      <point x="74" y="707" type="line"/>
    </contour>
    <contour>
      <point x="167" y="82" type="line"/>
      <point x="167" y="321" type="line"/>
      <point x="386" y="321" type="line" smooth="yes"/>
      <point x="485" y="321"/>
      <point x="534" y="282"/>
      <point x="534" y="203" type="curve" smooth="yes"/>
      <point x="534" y="120"/>
      <point x="487" y="82"/>
      <point x="392" y="82" type="curve" smooth="yes"/>
    </contour>
    <contour>
      <point x="167" y="402" type="line"/>
      <point x="167" y="625" type="line"/>
      <point x="386" y="625" type="line" smooth="yes"/>
      <point x="477" y="625"/>
      <point x="522" y="588"/>
      <point x="522" y="513" type="curve" smooth="yes"/>
      <point x="522" y="438"/>
      <point x="477" y="402"/>
      <point x="384" y="402" type="curve" smooth="yes"/>
    </contour>
  </outline>
</glyph>
<glyph name="C" format="2">
  <advance width="696"/>
  <unicode hex="0043"/>
  <outline>
    <contour>
      <point x="358" y="-9" type="curve" smooth="yes"/>
      <point x="443" y="-9"/>
      <point x="511" y="11"/>
      <point x="561" y="51" type="curve" smooth="yes"/>
      <point x="610" y="91"/>
      <point x="635" y="146"/>
      <point x="635" y="217" type="curve" smooth="yes"/>
      <point x="635" y="222" type="line"/>
      <point x="543" y="222" type="line"/>
      <point x="543" y="218" type="line" smooth="yes"/>
      <point x="543" y="171"/>
      <point x="527" y="136"/>
      <point x="496" y="112" type="curve" smooth="yes"/>
      <point x="464" y="87"/>
      <point x="419" y="75"/>
      <point x="360" y="75" type="curve" smooth="yes"/>
      <point x="291" y="75"/>
      <point x="240" y="93"/>
      <point x="207" y="130" type="curve" smooth="yes"/>
      <point x="173" y="167"/>
      <point x="156" y="224"/>
      <point x="156" y="301" type="curve" smooth="yes"/>
      <point x="156" y="400" type="line" smooth="yes"/>
      <point x="156" y="480"/>
      <point x="173" y="539"/>
      <point x="206" y="577" type="curve" smooth="yes"/>
      <point x="239" y="614"/>
      <point x="290" y="633"/>
      <point x="359" y="633" type="curve" smooth="yes"/>
      <point x="418" y="633"/>
      <point x="463" y="621"/>
      <point x="495" y="596" type="curve" smooth="yes"/>
      <point x="527" y="571"/>
      <point x="543" y="536"/>
      <point x="543" y="490" type="curve" smooth="yes"/>
      <point x="543" y="486" type="line"/>
      <point x="636" y="486" type="line"/>
      <point x="636" y="492" type="line" smooth="yes"/>
      <point x="636" y="563"/>
      <point x="611" y="618"/>
      <point x="562" y="658" type="curve" smooth="yes"/>
      <point x="513" y="697"/>
      <point x="445" y="717"/>
      <point x="360" y="717" type="curve" smooth="yes"/>
      <point x="265" y="717"/>
      <point x="192" y="691"/>
      <point x="140" y="639" type="curve" smooth="yes"/>
      <point x="88" y="587"/>
      <point x="62" y="509"/>
      <point x="62" y="406" type="curve" smooth="yes"/>
      <point x="62" y="302" type="line" smooth="yes"/>
      <point x="62" y="199"/>
      <point x="88" y="121"/>
      <point x="140" y="69" type="curve" smooth="yes"/>
      <point x="191" y="17"/>
      <point x="264" y="-9"/>
    </contour>
  </outline>
</glyph>
<glyph name="D" format="2">
  <advance width="690"/>
  <unicode hex="0044"/>
  <outline>
    <contour>
      <point x="74" y="0" type="line"/>
      <point x="333" y="0" type="line" smooth="yes"/>
      <point x="428" y="0"/>
      <point x="501" y="26"/>
      <point x="553" y="77" type="curve" smooth="yes"/>
      <point x="604" y="128"/>
      <point x="630" y="205"/>
      <point x="630" y="307" type="curve" smooth="yes"/>
      <point x="630" y="400" type="line" smooth="yes"/>
      <point x="630" y="502"/>
      <point x="604" y="579"/>
      <point x="553" y="630" type="curve" smooth="yes"/>
      <point x="502" y="681"/>
      <point x="429" y="707"/>
      <point x="335" y="707" type="curve" smooth="yes"/>
      <point x="74" y="707" type="line"/>
    </contour>
    <contour>
      <point x="167" y="83" type="line"/>
      <point x="167" y="624" type="line"/>
      <point x="335" y="624" type="line" smooth="yes"/>
      <point x="403" y="624"/>
      <point x="454" y="605"/>
      <point x="487" y="568" type="curve" smooth="yes"/>
      <point x="520" y="531"/>
      <point x="537" y="473"/>
      <point x="537" y="395" type="curve" smooth="yes"/>
      <point x="537" y="305" type="line" smooth="yes"/>
      <point x="537" y="229"/>
      <point x="520" y="173"/>
      <point x="487" y="137" type="curve" smooth="yes"/>
      <point x="454" y="101"/>
      <point x="403" y="83"/>
      <point x="335" y="83" type="curve" smooth="yes"/>
    </contour>
  </outline>
</glyph>
<glyph name="F" format="2">
  <advance width="611"/>
  <unicode hex="0046"/>
  <outline>
    <contour>
      <point x="74" y="0" type="line"/>
      <point x="167" y="0" type="line"/>
      <point x="167" y="314" type="line"/>
      <point x="511" y="314" type="line"/>
      <point x="511" y="397" type="line"/>
      <point x="167" y="397" type="line"/>
      <point x="167" y="624" type="line"/>
      <point x="567" y="624" type="line"/>
      <point x="567" y="707" type="line"/>
      <point x="74" y="707" type="line"/>
    </contour>
  </outline>
</glyph>
<glyph name="G" format="2">
  <advance width="696"/>
  <unicode hex="0047"/>
  <outline>
    <contour>
      <point x="359" y="-9" type="curve" smooth="yes"/>
      <point x="531" y="-9"/>
      <point x="636" y="82"/>
      <point x="636" y="254" type="curve" smooth="yes"/>
      <point x="636" y="369" type="line"/>
      <point x="348" y="369" type="line"/>
      <point x="348" y="290" type="line"/>
      <point x="544" y="290" type="line"/>
      <point x="544" y="248" type="line" smooth="yes"/>
      <point x="543" y="133"/>
      <point x="482" y="75"/>
      <point x="360" y="75" type="curve" smooth="yes"/>
      <point x="221" y="75"/>
      <point x="156" y="148"/>
      <point x="156" y="301" type="curve" smooth="yes"/>
      <point x="156" y="400" type="line" smooth="yes"/>
      <point x="156" y="559"/>
      <point x="220" y="633"/>
      <point x="359" y="633" type="curve" smooth="yes"/>
      <point x="474" y="633"/>
      <point x="543" y="581"/>
      <point x="543" y="492" type="curve" smooth="yes"/>
      <point x="543" y="487" type="line"/>
      <point x="635" y="487" type="line"/>
      <point x="635" y="493" type="line" smooth="yes"/>
      <point x="635" y="631"/>
      <point x="529" y="717"/>
      <point x="359" y="717" type="curve" smooth="yes"/>
      <point x="168" y="717"/>
      <point x="62" y="611"/>
      <point x="62" y="406" type="curve" smooth="yes"/>
      <point x="62" y="302" type="line" smooth="yes"/>
      <point x="62" y="97"/>
      <point x="168" y="-9"/>
    </contour>
  </outline>
</glyph>
<glyph name="J" format="2">
  <advance width="353"/>
  <unicode hex="004A"/>
  <anchor x="225" y="707" name="top"/>
  <outline>
    <contour>
      <point x="30" y="0" type="line"/>
      <point x="112" y="0" type="line" smooth="yes"/>
      <point x="218" y="0"/>
      <point x="272" y="51"/>
      <point x="272" y="159" type="curve" smooth="yes"/>
      <point x="272" y="707" type="line"/>
      <point x="179" y="707" type="line"/>
      <point x="179" y="171" type="line" smooth="yes"/>
      <point x="179" y="107"/>
      <point x="155" y="83"/>
      <point x="93" y="83" type="curve" smooth="yes"/>
      <point x="30" y="83" type="line"/>
    </contour>
  </outline>
</glyph>
<glyph name="K" format="2">
  <advance width="687"/>
  <unicode hex="004B"/>
  <outline>
    <contour>
      <point x="74" y="0" type="line"/>
      <point x="167" y="0" type="line"/>
      <point x="167" y="194" type="line"/>
      <point x="327" y="364" type="line"/>
      <point x="568" y="0" type="line"/>
      <point x="680" y="0" type="line"/>
      <point x="388" y="429" type="line"/>
      <point x="647" y="707" type="line"/>
      <point x="530" y="707" type="line"/>
      <point x="167" y="311" type="line"/>
      <point x="167" y="707" type="line"/>
      <point x="74" y="707" type="line"/>
    </contour>
  </outline>
</glyph>
<glyph name="L" format="2">
  <advance width="592"/>
  <unicode hex="004C"/>
  <outline>
    <contour>
      <point x="74" y="707" type="line"/>
      <point x="167" y="707" type="line"/>
      <point x="167" y="83" type="line"/>
      <point x="563" y="83" type="line"/>
      <point x="563" y="0" type="line"/>
      <point x="74" y="0" type="line"/>
    </contour>
  </outline>
</glyph>
<glyph name="O" format="2">
  <advance width="711"/>
  <unicode hex="004F"/>
  <outline>
    <contour>
      <point x="355" y="-9" type="curve" smooth="yes"/>
      <point x="545" y="-9"/>
      <point x="651" y="96"/>
      <point x="651" y="302" type="curve" smooth="yes"/>
      <point x="651" y="406" type="line" smooth="yes"/>
      <point x="651" y="611"/>
      <point x="545" y="717"/>
      <point x="358" y="717" type="curve" smooth="yes"/>
      <point x="169" y="717"/>
      <point x="62" y="611"/>
      <point x="62" y="406" type="curve" smooth="yes"/>
      <point x="62" y="302" type="line" smooth="yes"/>
      <point x="62" y="96"/>
      <point x="169" y="-9"/>
    </contour>
    <contour>
      <point x="156" y="301" type="curve" smooth="yes"/>
      <point x="156" y="400" type="line" smooth="yes"/>
      <point x="156" y="559"/>
      <point x="220" y="633"/>
      <point x="357" y="633" type="curve" smooth="yes"/>
      <point x="494" y="633"/>
      <point x="559" y="559"/>
      <point x="559" y="400" type="curve" smooth="yes"/>
      <point x="559" y="301" type="line" smooth="yes"/>
      <point x="559" y="147"/>
      <point x="493" y="75"/>
      <point x="357" y="75" type="curve" smooth="yes"/>
      <point x="221" y="75"/>
      <point x="156" y="147"/>
    </contour>
  </outline>
</glyph>
<glyph name="P" format="2">
  <advance width="652"/>
  <unicode hex="0050"/>
  <outline>
    <contour>
      <point x="74" y="0" type="line"/>
      <point x="167" y="0" type="line"/>
      <point x="167" y="284" type="line"/>
      <point x="380" y="284" type="line" smooth="yes"/>
      <point x="537" y="284"/>
      <point x="623" y="358"/>
      <point x="623" y="495" type="curve" smooth="yes"/>
      <point x="623" y="634"/>
      <point x="537" y="707"/>
      <point x="380" y="707" type="curve" smooth="yes"/>
      <point x="74" y="707" type="line"/>
    </contour>
    <contour>
      <point x="167" y="367" type="line"/>
      <point x="167" y="624" type="line"/>
      <point x="376" y="624" type="line" smooth="yes"/>
      <point x="481" y="624"/>
      <point x="529" y="589"/>
      <point x="529" y="494" type="curve" smooth="yes"/>
      <point x="529" y="403"/>
      <point x="483" y="367"/>
      <point x="382" y="367" type="curve" smooth="yes"/>
    </contour>
  </outline>
</glyph>
<glyph name="Q" format="2">
  <advance width="711"/>
  <unicode hex="0051"/>
  <outline>
    <contour>
      <point x="545" y="-155" type="line"/>
      <point x="617" y="-116" type="line"/>
      <point x="536" y="38" type="line"/>
      <point x="613" y="89"/>
      <point x="652" y="177"/>
      <point x="651" y="302" type="curve" smooth="yes"/>
      <point x="651" y="406" type="line" smooth="yes"/>
      <point x="651" y="611"/>
      <point x="545" y="717"/>
      <point x="358" y="717" type="curve" smooth="yes"/>
      <point x="169" y="717"/>
      <point x="62" y="611"/>
      <point x="62" y="406" type="curve" smooth="yes"/>
      <point x="62" y="302" type="line" smooth="yes"/>
      <point x="62" y="96"/>
      <point x="169" y="-9"/>
      <point x="355" y="-9" type="curve" smooth="yes"/>
      <point x="394" y="-9"/>
      <point x="429" y="-5"/>
      <point x="460" y="4" type="curve"/>
    </contour>
    <contour>
      <point x="156" y="301" type="curve" smooth="yes"/>
      <point x="156" y="400" type="line" smooth="yes"/>
      <point x="156" y="559"/>
      <point x="220" y="633"/>
      <point x="357" y="633" type="curve" smooth="yes"/>
      <point x="494" y="633"/>
      <point x="559" y="559"/>
      <point x="559" y="400" type="curve" smooth="yes"/>
      <point x="559" y="301" type="line" smooth="yes"/>
      <point x="559" y="146"/>
      <point x="490" y="75"/>
      <point x="357" y="75" type="curve" smooth="yes"/>
      <point x="221" y="75"/>
      <point x="156" y="147"/>
    </contour>
  </outline>
</glyph>
<glyph name="R" format="2">
  <advance width="680"/>
  <unicode hex="0052"/>
  <outline>
    <contour>
      <point x="74" y="0" type="line"/>
      <point x="167" y="0" type="line"/>
      <point x="167" y="301" type="line"/>
      <point x="372" y="301" type="line"/>
      <point x="537" y="0" type="line"/>
      <point x="643" y="0" type="line"/>
      <point x="468" y="310" type="line"/>
      <point x="569" y="334"/>
      <point x="623" y="401"/>
      <point x="623" y="504" type="curve" smooth="yes"/>
      <point x="623" y="634"/>
      <point x="538" y="707"/>
      <point x="382" y="707" type="curve" smooth="yes"/>
      <point x="74" y="707" type="line"/>
    </contour>
    <contour>
      <point x="167" y="382" type="line"/>
      <point x="167" y="624" type="line"/>
      <point x="378" y="624" type="line" smooth="yes"/>
      <point x="481" y="624"/>
      <point x="529" y="585"/>
      <point x="529" y="504" type="curve" smooth="yes"/>
      <point x="529" y="419"/>
      <point x="483" y="382"/>
      <point x="384" y="382" type="curve" smooth="yes"/>
    </contour>
  </outline>
</glyph>
<glyph name="S" format="2">
  <advance width="625"/>
  <unicode hex="0053"/>
  <outline>
    <contour>
      <point x="32" y="204" type="curve"/>
      <point x="122" y="204" type="line"/>
      <point x="126" y="158"/>
      <point x="144" y="125"/>
      <point x="175" y="105" type="curve" smooth="yes"/>
      <point x="206" y="84"/>
      <point x="250" y="74"/>
      <point x="309" y="74" type="curve" smooth="yes"/>
      <point x="430" y="74"/>
      <point x="491" y="115"/>
      <point x="492" y="196" type="curve" smooth="yes"/>
      <point x="492" y="231"/>
      <point x="480" y="259"/>
      <point x="457" y="278" type="curve" smooth="yes"/>
      <point x="434" y="297"/>
      <point x="398" y="309"/>
      <point x="349" y="314" type="curve" smooth="yes"/>
      <point x="254" y="326" type="line" smooth="yes"/>
      <point x="117" y="343"/>
      <point x="48" y="406"/>
      <point x="48" y="515" type="curve" smooth="yes"/>
      <point x="48" y="578"/>
      <point x="71" y="628"/>
      <point x="118" y="663" type="curve" smooth="yes"/>
      <point x="164" y="698"/>
      <point x="227" y="716"/>
      <point x="308" y="716" type="curve" smooth="yes"/>
      <point x="387" y="716"/>
      <point x="448" y="699"/>
      <point x="493" y="665" type="curve" smooth="yes"/>
      <point x="538" y="631"/>
      <point x="563" y="581"/>
      <point x="570" y="515" type="curve"/>
      <point x="480" y="515" type="line"/>
      <point x="477" y="556"/>
      <point x="461" y="586"/>
      <point x="433" y="607" type="curve" smooth="yes"/>
      <point x="405" y="627"/>
      <point x="363" y="637"/>
      <point x="308" y="637" type="curve" smooth="yes"/>
      <point x="252" y="637"/>
      <point x="210" y="627"/>
      <point x="181" y="608" type="curve" smooth="yes"/>
      <point x="152" y="588"/>
      <point x="138" y="559"/>
      <point x="138" y="521" type="curve" smooth="yes"/>
      <point x="138" y="488"/>
      <point x="149" y="463"/>
      <point x="172" y="445" type="curve" smooth="yes"/>
      <point x="194" y="426"/>
      <point x="228" y="414"/>
      <point x="275" y="408" type="curve" smooth="yes"/>
      <point x="375" y="396" type="line" smooth="yes"/>
      <point x="514" y="377"/>
      <point x="584" y="313"/>
      <point x="584" y="202" type="curve" smooth="yes"/>
      <point x="584" y="136"/>
      <point x="559" y="85"/>
      <point x="510" y="49" type="curve" smooth="yes"/>
      <point x="461" y="12"/>
      <point x="392" y="-6"/>
      <point x="305" y="-6" type="curve" smooth="yes"/>
      <point x="220" y="-6"/>
      <point x="155" y="12"/>
      <point x="109" y="47" type="curve" smooth="yes"/>
      <point x="62" y="82"/>
      <point x="37" y="135"/>
    </contour>
  </outline>
</glyph>
<glyph name="T" format="2">
  <advance width="563"/>
  <unicode hex="0054"/>
  <outline>
    <contour>
      <point x="236" y="0" type="line"/>
      <point x="328" y="0" type="line"/>
      <point x="328" y="624" type="line"/>
      <point x="556" y="624" type="line"/>
      <point x="556" y="707" type="line"/>
      <point x="7" y="707" type="line"/>
      <point x="7" y="624" type="line"/>
      <point x="236" y="624" type="line"/>
    </contour>
  </outline>
</glyph>
<glyph name="U" format="2">
  <advance width="708"/>
  <unicode hex="0055"/>
  <outline>
    <contour>
      <point x="354" y="-6" type="curve" smooth="yes"/>
      <point x="442" y="-6"/>
      <point x="511" y="17"/>
      <point x="561" y="62" type="curve" smooth="yes"/>
      <point x="610" y="107"/>
      <point x="635" y="171"/>
      <point x="635" y="253" type="curve" smooth="yes"/>
      <point x="635" y="707" type="line"/>
      <point x="542" y="707" type="line"/>
      <point x="542" y="259" type="line" smooth="yes"/>
      <point x="541" y="137"/>
      <point x="479" y="76"/>
      <point x="354" y="76" type="curve" smooth="yes"/>
      <point x="229" y="76"/>
      <point x="167" y="137"/>
      <point x="167" y="259" type="curve" smooth="yes"/>
      <point x="167" y="707" type="line"/>
      <point x="74" y="707" type="line"/>
      <point x="74" y="253" type="line" smooth="yes"/>
      <point x="74" y="171"/>
      <point x="99" y="107"/>
      <point x="148" y="62" type="curve" smooth="yes"/>
      <point x="197" y="17"/>
      <point x="266" y="-6"/>
    </contour>
  </outline>
</glyph>
<glyph name="W" format="2">
  <advance width="935"/>
  <unicode hex="0057"/>
  <outline>
    <contour>
      <point x="211" y="0" type="line"/>
      <point x="305" y="0" type="line"/>
      <point x="470" y="591" type="line"/>
      <point x="635" y="0" type="line"/>
      <point x="729" y="0" type="line"/>
      <point x="930" y="707" type="line"/>
      <point x="840" y="707" type="line"/>
      <point x="685" y="131" type="line"/>
      <point x="527" y="707" type="line"/>
      <point x="412" y="707" type="line"/>
      <point x="261" y="131" type="line"/>
      <point x="98" y="707" type="line"/>
      <point x="6" y="707" type="line"/>
    </contour>
  </outline>
</glyph>
<glyph name="X" format="2">
  <advance width="663"/>
  <unicode hex="0058"/>
  <outline>
    <contour>
      <point x="6" y="0" type="line"/>
      <point x="114" y="0" type="line"/>
      <point x="328" y="299" type="line"/>
      <point x="547" y="0" type="line"/>
      <point x="657" y="0" type="line"/>
      <point x="386" y="371" type="line"/>
      <point x="633" y="707" type="line"/>
      <point x="525" y="707" type="line"/>
      <point x="333" y="439" type="line"/>
      <point x="138" y="707" type="line"/>
      <point x="28" y="707" type="line"/>
      <point x="276" y="368" type="line"/>
    </contour>
  </outline>
</glyph>
<glyph name="grave" format="2">
  <advance width="512"/>
  <unicode hex="0060"/>
  <outline>
    <contour>
      <point x="247" y="591" type="line"/>
      <point x="331" y="591" type="line"/>
      <point x="213" y="722" type="line"/>
      <point x="99" y="722" type="line"/>
    </contour>
  </outline>
</glyph>
<glyph name="a" format="2">
  <advance width="562"/>
  <unicode hex="0061"/>
  <anchor x="267" y="524" name="top"/>
  <outline>
    <contour>
      <point x="238" y="-6" type="curve" smooth="yes"/>
      <point x="316" y="-7"/>
      <point x="373" y="15"/>
      <point x="409" y="59" type="curve"/>
      <point x="409" y="0" type="line"/>
      <point x="494" y="0" type="line"/>
      <point x="494" y="342" type="line" smooth="yes"/>
      <point x="494" y="463"/>
      <point x="414" y="531"/>
      <point x="267" y="531" type="curve" smooth="yes"/>
      <point x="139" y="531"/>
      <point x="60" y="471"/>
      <point x="60" y="373" type="curve" smooth="yes"/>
      <point x="60" y="370" type="line"/>
      <point x="145" y="370" type="line"/>
      <point x="145" y="373" type="line" smooth="yes"/>
      <point x="145" y="427"/>
      <point x="188" y="459"/>
      <point x="268" y="459" type="curve" smooth="yes"/>
      <point x="361" y="459"/>
      <point x="407" y="419"/>
      <point x="407" y="340" type="curve" smooth="yes"/>
      <point x="407" y="304" type="line"/>
      <point x="244" y="304" type="line" smooth="yes"/>
      <point x="112" y="304"/>
      <point x="43" y="250"/>
      <point x="43" y="152" type="curve" smooth="yes"/>
      <point x="43" y="50"/>
      <point x="112" y="-6"/>
    </contour>
    <contour>
      <point x="129" y="153" type="curve" smooth="yes"/>
      <point x="129" y="211"/>
      <point x="168" y="239"/>
      <point x="258" y="239" type="curve" smooth="yes"/>
      <point x="407" y="239" type="line"/>
      <point x="407" y="198" type="line" smooth="yes"/>
      <point x="407" y="107"/>
      <point x="358" y="65"/>
      <point x="255" y="65" type="curve" smooth="yes"/>
      <point x="169" y="65"/>
      <point x="129" y="93"/>
    </contour>
  </outline>
</glyph>
<glyph name="b" format="2">
  <advance width="593"/>
  <unicode hex="0062"/>
  <outline>
    <contour>
      <point x="322" y="-9" type="curve" smooth="yes"/>
      <point x="453" y="-9"/>
      <point x="541" y="77"/>
      <point x="541" y="236" type="curve" smooth="yes"/>
      <point x="541" y="291" type="line" smooth="yes"/>
      <point x="541" y="446"/>
      <point x="455" y="535"/>
      <point x="322" y="535" type="curve" smooth="yes"/>
      <point x="246" y="535"/>
      <point x="189" y="503"/>
      <point x="156" y="454" type="curve"/>
      <point x="156" y="707" type="line"/>
      <point x="69" y="707" type="line"/>
      <point x="69" y="0" type="line"/>
      <point x="155" y="0" type="line"/>
      <point x="155" y="68" type="line"/>
      <point x="189" y="18"/>
      <point x="246" y="-9"/>
    </contour>
    <contour>
      <point x="156" y="227" type="curve" smooth="yes"/>
      <point x="156" y="296" type="line" smooth="yes"/>
      <point x="156" y="394"/>
      <point x="213" y="457"/>
      <point x="307" y="457" type="curve" smooth="yes"/>
      <point x="401" y="457"/>
      <point x="454" y="401"/>
      <point x="454" y="287" type="curve" smooth="yes"/>
      <point x="454" y="240" type="line" smooth="yes"/>
      <point x="454" y="126"/>
      <point x="401" y="68"/>
      <point x="309" y="68" type="curve" smooth="yes"/>
      <point x="215" y="68"/>
      <point x="156" y="129"/>
    </contour>
  </outline>
</glyph>
<glyph name="c" format="2">
  <advance width="566"/>
  <unicode hex="0063"/>
  <outline>
    <contour>
      <point x="294" y="-9" type="curve" smooth="yes"/>
      <point x="431" y="-9"/>
      <point x="513" y="62"/>
      <point x="513" y="179" type="curve" smooth="yes"/>
      <point x="513" y="183" type="line"/>
      <point x="428" y="183" type="line"/>
      <point x="428" y="179" type="line" smooth="yes"/>
      <point x="428" y="108"/>
      <point x="379" y="68"/>
      <point x="294" y="68" type="curve" smooth="yes"/>
      <point x="191" y="68"/>
      <point x="140" y="125"/>
      <point x="140" y="239" type="curve" smooth="yes"/>
      <point x="140" y="287" type="line" smooth="yes"/>
      <point x="140" y="400"/>
      <point x="191" y="457"/>
      <point x="294" y="457" type="curve" smooth="yes"/>
      <point x="380" y="457"/>
      <point x="428" y="414"/>
      <point x="428" y="344" type="curve" smooth="yes"/>
      <point x="428" y="339" type="line"/>
      <point x="513" y="339" type="line"/>
      <point x="513" y="344" type="line" smooth="yes"/>
      <point x="513" y="462"/>
      <point x="431" y="535"/>
      <point x="293" y="535" type="curve" smooth="yes"/>
      <point x="142" y="535"/>
      <point x="53" y="448"/>
      <point x="53" y="289" type="curve" smooth="yes"/>
      <point x="53" y="237" type="line" smooth="yes"/>
      <point x="53" y="78"/>
      <point x="141" y="-9"/>
    </contour>
  </outline>
</glyph>
<glyph name="d" format="2">
  <advance width="593"/>
  <unicode hex="0064"/>
  <outline>
    <contour>
      <point x="270" y="-9" type="curve" smooth="yes"/>
      <point x="308" y="-9"/>
      <point x="341" y="-2"/>
      <point x="370" y="11" type="curve" smooth="yes"/>
      <point x="398" y="24"/>
      <point x="421" y="44"/>
      <point x="438" y="69" type="curve"/>
      <point x="438" y="0" type="line"/>
      <point x="524" y="0" type="line"/>
      <point x="524" y="707" type="line"/>
      <point x="438" y="707" type="line"/>
      <point x="438" y="455" type="line"/>
      <point x="421" y="480"/>
      <point x="398" y="499"/>
      <point x="368" y="514" type="curve" smooth="yes"/>
      <point x="338" y="528"/>
      <point x="305" y="535"/>
      <point x="268" y="535" type="curve" smooth="yes"/>
      <point x="203" y="535"/>
      <point x="151" y="514"/>
      <point x="112" y="472" type="curve" smooth="yes"/>
      <point x="73" y="429"/>
      <point x="53" y="369"/>
      <point x="53" y="291" type="curve" smooth="yes"/>
      <point x="53" y="234" type="line" smooth="yes"/>
      <point x="53" y="156"/>
      <point x="73" y="96"/>
      <point x="112" y="54" type="curve" smooth="yes"/>
      <point x="151" y="12"/>
      <point x="203" y="-9"/>
    </contour>
    <contour>
      <point x="179" y="111" type="curve" smooth="yes"/>
      <point x="153" y="139"/>
      <point x="140" y="182"/>
      <point x="140" y="239" type="curve" smooth="yes"/>
      <point x="140" y="286" type="line" smooth="yes"/>
      <point x="140" y="343"/>
      <point x="153" y="386"/>
      <point x="178" y="415" type="curve" smooth="yes"/>
      <point x="203" y="443"/>
      <point x="239" y="457"/>
      <point x="286" y="457" type="curve" smooth="yes"/>
      <point x="333" y="457"/>
      <point x="371" y="443"/>
      <point x="398" y="414" type="curve" smooth="yes"/>
      <point x="425" y="385"/>
      <point x="438" y="346"/>
      <point x="438" y="296" type="curve" smooth="yes"/>
      <point x="438" y="227" type="line" smooth="yes"/>
      <point x="438" y="178"/>
      <point x="425" y="140"/>
      <point x="398" y="111" type="curve" smooth="yes"/>
      <point x="371" y="82"/>
      <point x="334" y="68"/>
      <point x="287" y="68" type="curve" smooth="yes"/>
      <point x="240" y="68"/>
      <point x="204" y="82"/>
    </contour>
  </outline>
</glyph>
<glyph name="e" format="2">
  <advance width="570"/>
  <unicode hex="0065"/>
  <outline>
    <contour>
      <point x="297" y="-9" type="curve" smooth="yes"/>
      <point x="340" y="-9"/>
      <point x="378" y="-1"/>
      <point x="411" y="14" type="curve" smooth="yes"/>
      <point x="444" y="29"/>
      <point x="469" y="50"/>
      <point x="486" y="77" type="curve" smooth="yes"/>
      <point x="503" y="103"/>
      <point x="512" y="132"/>
      <point x="513" y="165" type="curve" smooth="yes"/>
      <point x="513" y="169" type="line"/>
      <point x="427" y="169" type="line"/>
      <point x="427" y="166" type="line" smooth="yes"/>
      <point x="426" y="137"/>
      <point x="415" y="114"/>
      <point x="393" y="95" type="curve" smooth="yes"/>
      <point x="370" y="76"/>
      <point x="339" y="67"/>
      <point x="299" y="67" type="curve" smooth="yes"/>
      <point x="193" y="67"/>
      <point x="140" y="124"/>
      <point x="140" y="237" type="curve" smooth="yes"/>
      <point x="140" y="241" type="line"/>
      <point x="516" y="241" type="line"/>
      <point x="516" y="302" type="line" smooth="yes"/>
      <point x="516" y="377"/>
      <point x="496" y="435"/>
      <point x="455" y="475" type="curve" smooth="yes"/>
      <point x="414" y="515"/>
      <point x="358" y="535"/>
      <point x="286" y="535" type="curve" smooth="yes"/>
      <point x="213" y="535"/>
      <point x="156" y="513"/>
      <point x="115" y="470" type="curve" smooth="yes"/>
      <point x="74" y="427"/>
      <point x="53" y="365"/>
      <point x="53" y="284" type="curve" smooth="yes"/>
      <point x="53" y="242" type="line" smooth="yes"/>
      <point x="53" y="160"/>
      <point x="75" y="98"/>
      <point x="118" y="55" type="curve" smooth="yes"/>
      <point x="161" y="12"/>
      <point x="220" y="-9"/>
    </contour>
    <contour>
      <point x="140" y="306" type="line"/>
      <point x="143" y="357"/>
      <point x="157" y="396"/>
      <point x="182" y="421" type="curve" smooth="yes"/>
      <point x="207" y="446"/>
      <point x="241" y="458"/>
      <point x="286" y="458" type="curve" smooth="yes"/>
      <point x="331" y="458"/>
      <point x="367" y="446"/>
      <point x="392" y="423" type="curve" smooth="yes"/>
      <point x="417" y="399"/>
      <point x="429" y="363"/>
      <point x="429" y="315" type="curve" smooth="yes"/>
      <point x="429" y="306" type="line"/>
    </contour>
  </outline>
</glyph>
<glyph name="g" format="2">
  <advance width="593"/>
  <unicode hex="0067"/>
  <outline>
    <contour>
      <point x="285" y="-164" type="curve" smooth="yes"/>
      <point x="438" y="-164"/>
      <point x="524" y="-90"/>
      <point x="524" y="45" type="curve" smooth="yes"/>
      <point x="524" y="524" type="line"/>
      <point x="438" y="524" type="line"/>
      <point x="438" y="456" type="line"/>
      <point x="404" y="506"/>
      <point x="342" y="535"/>
      <point x="268" y="535" type="curve" smooth="yes"/>
      <point x="138" y="535"/>
      <point x="53" y="447"/>
      <point x="53" y="293" type="curve" smooth="yes"/>
      <point x="53" y="253" type="line" smooth="yes"/>
      <point x="53" y="101"/>
      <point x="138" y="15"/>
      <point x="270" y="15" type="curve" smooth="yes"/>
      <point x="345" y="15"/>
      <point x="403" y="41"/>
      <point x="438" y="94" type="curve"/>
      <point x="438" y="39" type="line" smooth="yes"/>
      <point x="438" y="-49"/>
      <point x="390" y="-90"/>
      <point x="286" y="-90" type="curve" smooth="yes"/>
      <point x="203" y="-90"/>
      <point x="162" y="-65"/>
      <point x="150" y="-16" type="curve"/>
      <point x="65" y="-16" type="line"/>
      <point x="73" y="-113"/>
      <point x="150" y="-164"/>
    </contour>
    <contour>
      <point x="140" y="258" type="curve" smooth="yes"/>
      <point x="140" y="288" type="line" smooth="yes"/>
      <point x="140" y="401"/>
      <point x="191" y="458"/>
      <point x="286" y="458" type="curve" smooth="yes"/>
      <point x="380" y="458"/>
      <point x="438" y="397"/>
      <point x="438" y="299" type="curve" smooth="yes"/>
      <point x="438" y="251" type="line" smooth="yes"/>
      <point x="438" y="148"/>
      <point x="383" y="93"/>
      <point x="286" y="93" type="curve" smooth="yes"/>
      <point x="194" y="93"/>
      <point x="140" y="148"/>
    </contour>
  </outline>
</glyph>
<glyph name="h" format="2">
  <advance width="585"/>
  <unicode hex="0068"/>
  <outline>
    <contour>
      <point x="69" y="0" type="line"/>
      <point x="156" y="0" type="line"/>
      <point x="156" y="307" type="line" smooth="yes"/>
      <point x="156" y="397"/>
      <point x="212" y="453"/>
      <point x="300" y="453" type="curve" smooth="yes"/>
      <point x="386" y="453"/>
      <point x="430" y="408"/>
      <point x="430" y="318" type="curve" smooth="yes"/>
      <point x="430" y="0" type="line"/>
      <point x="517" y="0" type="line"/>
      <point x="517" y="330" type="line" smooth="yes"/>
      <point x="517" y="456"/>
      <point x="446" y="530"/>
      <point x="322" y="530" type="curve" smooth="yes"/>
      <point x="250" y="530"/>
      <point x="194" y="504"/>
      <point x="156" y="454" type="curve"/>
      <point x="156" y="707" type="line"/>
      <point x="69" y="707" type="line"/>
    </contour>
  </outline>
</glyph>
<glyph name="i" format="2">
  <advance width="239"/>
  <unicode hex="0069"/>
  <outline>
    <contour>
      <point x="76" y="706" type="line"/>
      <point x="163" y="706" type="line"/>
      <point x="163" y="611" type="line"/>
      <point x="76" y="611" type="line"/>
    </contour>
    <contour>
      <point x="76" y="524" type="line"/>
      <point x="163" y="524" type="line"/>
      <point x="163" y="0" type="line"/>
      <point x="76" y="0" type="line"/>
    </contour>
  </outline>
</glyph>
<glyph name="j" format="2">
  <advance width="237"/>
  <unicode hex="006A"/>
  <outline>
    <contour>
      <point x="-55" y="-157" type="line"/>
      <point x="1" y="-157" type="line" smooth="yes"/>
      <point x="106" y="-157"/>
      <point x="162" y="-105"/>
      <point x="162" y="0" type="curve" smooth="yes"/>
      <point x="162" y="524" type="line"/>
      <point x="75" y="524" type="line"/>
      <point x="75" y="6" type="line" smooth="yes"/>
      <point x="75" y="-56"/>
      <point x="51" y="-79"/>
      <point x="-9" y="-79" type="curve" smooth="yes"/>
      <point x="-55" y="-79" type="line"/>
    </contour>
    <contour>
      <point x="73" y="611" type="line"/>
      <point x="161" y="611" type="line"/>
      <point x="161" y="707" type="line"/>
      <point x="73" y="707" type="line"/>
    </contour>
  </outline>
</glyph>
<glyph name="k" format="2">
  <advance width="571"/>
  <unicode hex="006B"/>
  <outline>
    <contour>
      <point x="69" y="0" type="line"/>
      <point x="156" y="0" type="line"/>
      <point x="156" y="155" type="line"/>
      <point x="265" y="264" type="line"/>
      <point x="451" y="0" type="line"/>
      <point x="554" y="0" type="line"/>
      <point x="325" y="324" type="line"/>
      <point x="526" y="524" type="line"/>
      <point x="417" y="524" type="line"/>
      <point x="156" y="259" type="line"/>
      <point x="156" y="707" type="line"/>
      <point x="69" y="707" type="line"/>
    </contour>
  </outline>
</glyph>
<glyph name="l" format="2">
  <advance width="309"/>
  <unicode hex="006C"/>
  <outline>
    <contour>
      <point x="229" y="0" type="curve" smooth="yes"/>
      <point x="286" y="0" type="line"/>
      <point x="286" y="78" type="line"/>
      <point x="241" y="78" type="line" smooth="yes"/>
      <point x="210" y="78"/>
      <point x="188" y="85"/>
      <point x="175" y="98" type="curve" smooth="yes"/>
      <point x="162" y="111"/>
      <point x="156" y="132"/>
      <point x="156" y="163" type="curve" smooth="yes"/>
      <point x="156" y="707" type="line"/>
      <point x="69" y="707" type="line"/>
      <point x="69" y="158" type="line" smooth="yes"/>
      <point x="69" y="104"/>
      <point x="82" y="64"/>
      <point x="108" y="39" type="curve" smooth="yes"/>
      <point x="134" y="13"/>
      <point x="174" y="0"/>
    </contour>
  </outline>
</glyph>
<glyph name="m" format="2">
  <advance width="933"/>
  <unicode hex="006D"/>
  <outline>
    <contour>
      <point x="69" y="0" type="line"/>
      <point x="156" y="0" type="line"/>
      <point x="156" y="307" type="line" smooth="yes"/>
      <point x="156" y="397"/>
      <point x="212" y="453"/>
      <point x="300" y="453" type="curve" smooth="yes"/>
      <point x="377" y="453"/>
      <point x="423" y="408"/>
      <point x="423" y="319" type="curve" smooth="yes"/>
      <point x="423" y="0" type="line"/>
      <point x="511" y="0" type="line"/>
      <point x="511" y="316" type="line" smooth="yes"/>
      <point x="511" y="402"/>
      <point x="557" y="453"/>
      <point x="649" y="453" type="curve" smooth="yes"/>
      <point x="732" y="453"/>
      <point x="777" y="409"/>
      <point x="777" y="318" type="curve" smooth="yes"/>
      <point x="777" y="0" type="line"/>
      <point x="864" y="0" type="line"/>
      <point x="864" y="330" type="line" smooth="yes"/>
      <point x="864" y="457"/>
      <point x="791" y="530"/>
      <point x="666" y="530" type="curve" smooth="yes"/>
      <point x="582" y="530"/>
      <point x="525" y="503"/>
      <point x="482" y="446" type="curve"/>
      <point x="450" y="500"/>
      <point x="391" y="530"/>
      <point x="321" y="530" type="curve" smooth="yes"/>
      <point x="250" y="530"/>
      <point x="192" y="503"/>
      <point x="155" y="454" type="curve"/>
      <point x="155" y="524" type="line"/>
      <point x="69" y="524" type="line"/>
    </contour>
  </outline>
</glyph>
<glyph name="n" format="2">
  <advance width="585"/>
  <unicode hex="006E"/>
  <outline>
    <contour>
      <point x="69" y="0" type="line"/>
      <point x="156" y="0" type="line"/>
      <point x="156" y="307" type="line" smooth="yes"/>
      <point x="156" y="397"/>
      <point x="212" y="453"/>
      <point x="300" y="453" type="curve" smooth="yes"/>
      <point x="386" y="453"/>
      <point x="430" y="408"/>
      <point x="430" y="318" type="curve" smooth="yes"/>
      <point x="430" y="0" type="line"/>
      <point x="517" y="0" type="line"/>
      <point x="517" y="330" type="line" smooth="yes"/>
      <point x="517" y="456"/>
      <point x="446" y="530"/>
      <point x="322" y="530" type="curve" smooth="yes"/>
      <point x="249" y="530"/>
      <point x="192" y="503"/>
      <point x="155" y="454" type="curve"/>
      <point x="155" y="524" type="line"/>
      <point x="69" y="524" type="line"/>
    </contour>
  </outline>
</glyph>
<glyph name="o" format="2">
  <advance width="585"/>
  <unicode hex="006F"/>
  <outline>
    <contour>
      <point x="294" y="-9" type="curve" smooth="yes"/>
      <point x="444" y="-9"/>
      <point x="532" y="77"/>
      <point x="532" y="237" type="curve" smooth="yes"/>
      <point x="532" y="289" type="line" smooth="yes"/>
      <point x="532" y="446"/>
      <point x="445" y="535"/>
      <point x="294" y="535" type="curve" smooth="yes"/>
      <point x="144" y="535"/>
      <point x="53" y="449"/>
      <point x="53" y="289" type="curve" smooth="yes"/>
      <point x="53" y="237" type="line" smooth="yes"/>
      <point x="53" y="77"/>
      <point x="144" y="-9"/>
    </contour>
    <contour>
      <point x="140" y="239" type="curve" smooth="yes"/>
      <point x="140" y="287" type="line" smooth="yes"/>
      <point x="140" y="400"/>
      <point x="191" y="457"/>
      <point x="293" y="457" type="curve" smooth="yes"/>
      <point x="394" y="457"/>
      <point x="445" y="400"/>
      <point x="445" y="287" type="curve" smooth="yes"/>
      <point x="445" y="239" type="line" smooth="yes"/>
      <point x="445" y="125"/>
      <point x="394" y="68"/>
      <point x="293" y="68" type="curve" smooth="yes"/>
      <point x="191" y="68"/>
      <point x="140" y="125"/>
    </contour>
  </outline>
</glyph>
<glyph name="p" format="2">
  <advance width="593"/>
  <unicode hex="0070"/>
  <outline>
    <contour>
      <point x="69" y="-166" type="line"/>
      <point x="156" y="-166" type="line"/>
      <point x="156" y="68" type="line"/>
      <point x="191" y="17"/>
      <point x="247" y="-9"/>
      <point x="322" y="-9" type="curve" smooth="yes"/>
      <point x="453" y="-9"/>
      <point x="541" y="77"/>
      <point x="541" y="236" type="curve" smooth="yes"/>
      <point x="541" y="291" type="line" smooth="yes"/>
      <point x="541" y="447"/>
      <point x="454" y="534"/>
      <point x="322" y="534" type="curve" smooth="yes"/>
      <point x="247" y="534"/>
      <point x="190" y="503"/>
      <point x="155" y="454" type="curve"/>
      <point x="155" y="524" type="line"/>
      <point x="69" y="524" type="line"/>
    </contour>
    <contour>
      <point x="156" y="227" type="curve" smooth="yes"/>
      <point x="156" y="296" type="line" smooth="yes"/>
      <point x="156" y="394"/>
      <point x="213" y="457"/>
      <point x="307" y="457" type="curve" smooth="yes"/>
      <point x="402" y="457"/>
      <point x="454" y="399"/>
      <point x="454" y="286" type="curve" smooth="yes"/>
      <point x="454" y="240" type="line" smooth="yes"/>
      <point x="454" y="126"/>
      <point x="401" y="68"/>
      <point x="309" y="68" type="curve" smooth="yes"/>
      <point x="215" y="68"/>
      <point x="156" y="129"/>
    </contour>
  </outline>
</glyph>
<glyph name="q" format="2">
  <advance width="593"/>
  <unicode hex="0071"/>
  <outline>
    <contour>
      <point x="438" y="-166" type="line"/>
      <point x="524" y="-166" type="line"/>
      <point x="524" y="524" type="line"/>
      <point x="438" y="524" type="line"/>
      <point x="438" y="455" type="line"/>
      <point x="404" y="506"/>
      <point x="342" y="534"/>
      <point x="269" y="534" type="curve" smooth="yes"/>
      <point x="139" y="534"/>
      <point x="53" y="447"/>
      <point x="53" y="291" type="curve" smooth="yes"/>
      <point x="53" y="234" type="line" smooth="yes"/>
      <point x="53" y="78"/>
      <point x="136" y="-9"/>
      <point x="270" y="-9" type="curve" smooth="yes"/>
      <point x="344" y="-9"/>
      <point x="404" y="19"/>
      <point x="438" y="69" type="curve"/>
    </contour>
    <contour>
      <point x="140" y="239" type="curve" smooth="yes"/>
      <point x="140" y="286" type="line" smooth="yes"/>
      <point x="140" y="399"/>
      <point x="191" y="457"/>
      <point x="286" y="457" type="curve" smooth="yes"/>
      <point x="380" y="457"/>
      <point x="438" y="396"/>
      <point x="438" y="296" type="curve" smooth="yes"/>
      <point x="438" y="227" type="line" smooth="yes"/>
      <point x="438" y="129"/>
      <point x="381" y="68"/>
      <point x="287" y="68" type="curve" smooth="yes"/>
      <point x="193" y="68"/>
      <point x="140" y="125"/>
    </contour>
  </outline>
</glyph>
<glyph name="r" format="2">
  <advance width="387"/>
  <unicode hex="0072"/>
  <outline>
    <contour>
      <point x="69" y="0" type="line"/>
      <point x="156" y="0" type="line"/>
      <point x="156" y="302" type="line" smooth="yes"/>
      <point x="156" y="349"/>
      <point x="170" y="386"/>
      <point x="197" y="413" type="curve" smooth="yes"/>
      <point x="224" y="440"/>
      <point x="261" y="454"/>
      <point x="306" y="454" type="curve" smooth="yes"/>
      <point x="326" y="453"/>
      <point x="345" y="450"/>
      <point x="364" y="445" type="curve"/>
      <point x="364" y="528" type="line"/>
      <point x="351" y="530"/>
      <point x="337" y="531"/>
      <point x="322" y="531" type="curve" smooth="yes"/>
      <point x="285" y="531"/>
      <point x="253" y="525"/>
      <point x="225" y="512" type="curve" smooth="yes"/>
      <point x="196" y="499"/>
      <point x="173" y="478"/>
      <point x="155" y="451" type="curve"/>
      <point x="155" y="524" type="line"/>
      <point x="69" y="524" type="line"/>
    </contour>
  </outline>
</glyph>
<glyph name="s" format="2">
  <advance width="529"/>
  <unicode hex="0073"/>
  <outline>
    <contour>
      <point x="264" y="-6" type="curve" smooth="yes"/>
      <point x="405" y="-6"/>
      <point x="492" y="53"/>
      <point x="492" y="156" type="curve" smooth="yes"/>
      <point x="492" y="240"/>
      <point x="436" y="285"/>
      <point x="318" y="299" type="curve" smooth="yes"/>
      <point x="239" y="309" type="line" smooth="yes"/>
      <point x="159" y="317"/>
      <point x="134" y="339"/>
      <point x="134" y="382" type="curve" smooth="yes"/>
      <point x="134" y="431"/>
      <point x="175" y="461"/>
      <point x="265" y="461" type="curve" smooth="yes"/>
      <point x="351" y="461"/>
      <point x="400" y="431"/>
      <point x="400" y="375" type="curve" smooth="yes"/>
      <point x="400" y="372" type="line"/>
      <point x="483" y="372" type="line"/>
      <point x="483" y="376" type="line" smooth="yes"/>
      <point x="483" y="470"/>
      <point x="400" y="531"/>
      <point x="264" y="531" type="curve" smooth="yes"/>
      <point x="133" y="531"/>
      <point x="51" y="473"/>
      <point x="51" y="376" type="curve" smooth="yes"/>
      <point x="51" y="292"/>
      <point x="104" y="248"/>
      <point x="220" y="234" type="curve" smooth="yes"/>
      <point x="295" y="225" type="line" smooth="yes"/>
      <point x="371" y="217"/>
      <point x="409" y="198"/>
      <point x="409" y="151" type="curve" smooth="yes"/>
      <point x="409" y="97"/>
      <point x="355" y="67"/>
      <point x="268" y="67" type="curve" smooth="yes"/>
      <point x="173" y="67"/>
      <point x="126" y="101"/>
      <point x="126" y="158" type="curve" smooth="yes"/>
      <point x="126" y="160" type="line"/>
      <point x="43" y="160" type="line"/>
      <point x="43" y="157" type="line" smooth="yes"/>
      <point x="43" y="55"/>
      <point x="126" y="-6"/>
    </contour>
  </outline>
</glyph>
<glyph name="u" format="2">
  <advance width="585"/>
  <unicode hex="0075"/>
  <outline>
    <contour>
      <point x="292" y="-7" type="curve" smooth="yes"/>
      <point x="438" y="-7"/>
      <point x="517" y="70"/>
      <point x="517" y="208" type="curve" smooth="yes"/>
      <point x="517" y="524" type="line"/>
      <point x="430" y="524" type="line"/>
      <point x="430" y="217" type="line" smooth="yes"/>
      <point x="430" y="119"/>
      <point x="387" y="71"/>
      <point x="293" y="71" type="curve" smooth="yes"/>
      <point x="202" y="71"/>
      <point x="156" y="120"/>
      <point x="156" y="217" type="curve" smooth="yes"/>
      <point x="156" y="524" type="line"/>
      <point x="69" y="524" type="line"/>
      <point x="69" y="208" type="line" smooth="yes"/>
      <point x="69" y="70"/>
      <point x="146" y="-7"/>
    </contour>
  </outline>
</glyph>
<glyph name="v" format="2">
  <advance width="525"/>
  <unicode hex="0076"/>
  <outline>
    <contour>
      <point x="220" y="0" type="line"/>
      <point x="305" y="0" type="line"/>
      <point x="512" y="524" type="line"/>
      <point x="419" y="524" type="line"/>
      <point x="263" y="109" type="line"/>
      <point x="106" y="524" type="line"/>
      <point x="13" y="524" type="line"/>
    </contour>
  </outline>
</glyph>
<glyph name="w" format="2">
  <advance width="839"/>
  <unicode hex="0077"/>
  <outline>
    <contour>
      <point x="194" y="0" type="line"/>
      <point x="279" y="0" type="line"/>
      <point x="419" y="399" type="line"/>
      <point x="559" y="0" type="line"/>
      <point x="645" y="0" type="line"/>
      <point x="826" y="524" type="line"/>
      <point x="733" y="524" type="line"/>
      <point x="600" y="111" type="line"/>
      <point x="455" y="524" type="line"/>
      <point x="384" y="524" type="line"/>
      <point x="240" y="111" type="line"/>
      <point x="106" y="524" type="line"/>
      <point x="13" y="524" type="line"/>
    </contour>
  </outline>
</glyph>
<glyph name="x" format="2">
  <advance width="499"/>
  <unicode hex="0078"/>
  <outline>
    <contour>
      <point x="13" y="0" type="line"/>
      <point x="106" y="0" type="line"/>
      <point x="249" y="204" type="line"/>
      <point x="393" y="0" type="line"/>
      <point x="486" y="0" type="line"/>
      <point x="294" y="271" type="line"/>
      <point x="474" y="524" type="line"/>
      <point x="381" y="524" type="line"/>
      <point x="249" y="336" type="line"/>
      <point x="116" y="524" type="line"/>
      <point x="23" y="524" type="line"/>
      <point x="203" y="268" type="line"/>
    </contour>
  </outline>
</glyph>
<glyph name="y" format="2">
  <advance width="525"/>
  <unicode hex="0079"/>
  <outline>
    <contour>
      <point x="79" y="-157" type="line"/>
      <point x="116" y="-157" type="line" smooth="yes"/>
      <point x="204" y="-157"/>
      <point x="256" y="-126"/>
      <point x="286" y="-52" type="curve" smooth="yes"/>
      <point x="512" y="524" type="line"/>
      <point x="421" y="524" type="line"/>
      <point x="267" y="112" type="line"/>
      <point x="106" y="524" type="line"/>
      <point x="13" y="524" type="line"/>
      <point x="225" y="0" type="line"/>
      <point x="219" y="-17" type="line" smooth="yes"/>
      <point x="203" y="-63"/>
      <point x="178" y="-78"/>
      <point x="116" y="-78" type="curve" smooth="yes"/>
      <point x="79" y="-78" type="line"/>
    </contour>
  </outline>
</glyph>
<glyph name="braceleft" format="2">
  <advance width="386"/>
  <unicode hex="007B"/>
  <outline>
    <contour>
      <point x="258" y="-86" type="curve" smooth="yes"/>
      <point x="333" y="-86" type="line"/>
      <point x="333" y="-11" type="line"/>
      <point x="282" y="-11" type="line" smooth="yes"/>
      <point x="246" y="-11"/>
      <point x="231" y="3"/>
      <point x="231" y="41" type="curve" smooth="yes"/>
      <point x="231" y="214" type="line" smooth="yes"/>
      <point x="231" y="290"/>
      <point x="215" y="320"/>
      <point x="167" y="338" type="curve"/>
      <point x="214" y="356"/>
      <point x="231" y="385"/>
      <point x="231" y="463" type="curve" smooth="yes"/>
      <point x="231" y="631" type="line" smooth="yes"/>
      <point x="231" y="666"/>
      <point x="245" y="683"/>
      <point x="282" y="683" type="curve" smooth="yes"/>
      <point x="333" y="683" type="line"/>
      <point x="333" y="758" type="line"/>
      <point x="258" y="758" type="line" smooth="yes"/>
      <point x="181" y="758"/>
      <point x="143" y="719"/>
      <point x="143" y="640" type="curve" smooth="yes"/>
      <point x="143" y="460" type="line" smooth="yes"/>
      <point x="143" y="401"/>
      <point x="120" y="380"/>
      <point x="53" y="378" type="curve"/>
      <point x="53" y="299" type="line"/>
      <point x="122" y="297"/>
      <point x="143" y="275"/>
      <point x="143" y="216" type="curve" smooth="yes"/>
      <point x="143" y="32" type="line" smooth="yes"/>
      <point x="143" y="-47"/>
      <point x="181" y="-86"/>
    </contour>
  </outline>
</glyph>
<glyph name="braceright" format="2">
  <advance width="386"/>
  <unicode hex="007D"/>
  <outline>
    <contour>
      <point x="53" y="-86" type="line"/>
      <point x="127" y="-86" type="line" smooth="yes"/>
      <point x="202" y="-86"/>
      <point x="242" y="-47"/>
      <point x="242" y="32" type="curve" smooth="yes"/>
      <point x="242" y="216" type="line" smooth="yes"/>
      <point x="242" y="275"/>
      <point x="262" y="297"/>
      <point x="333" y="299" type="curve"/>
      <point x="333" y="378" type="line"/>
      <point x="264" y="380"/>
      <point x="242" y="401"/>
      <point x="242" y="460" type="curve" smooth="yes"/>
      <point x="242" y="640" type="line" smooth="yes"/>
      <point x="242" y="717"/>
      <point x="204" y="758"/>
      <point x="127" y="758" type="curve" smooth="yes"/>
      <point x="53" y="758" type="line"/>
      <point x="53" y="683" type="line"/>
      <point x="104" y="683" type="line" smooth="yes"/>
      <point x="140" y="683"/>
      <point x="155" y="669"/>
      <point x="155" y="631" type="curve" smooth="yes"/>
      <point x="155" y="463" type="line" smooth="yes"/>
      <point x="155" y="385"/>
      <point x="172" y="356"/>
      <point x="219" y="338" type="curve"/>
      <point x="171" y="320"/>
      <point x="155" y="290"/>
      <point x="155" y="214" type="curve" smooth="yes"/>
      <point x="155" y="41" type="line" smooth="yes"/>
      <point x="155" y="3"/>
      <point x="140" y="-11"/>
      <point x="104" y="-11" type="curve" smooth="yes"/>
      <point x="53" y="-11" type="line"/>
    </contour>
  </outline>
</glyph>
<glyph name="asciitilde" format="2">
  <advance width="521"/>
  <unicode hex="007E"/>
  <outline>
    <contour>
      <point x="104" y="215" type="line"/>
      <point x="129" y="260"/>
      <point x="146" y="274"/>
      <point x="179" y="274" type="curve" smooth="yes"/>
      <point x="201" y="274"/>
      <point x="218" y="265"/>
      <point x="247" y="247" type="curve" smooth="yes"/>
      <point x="283" y="223"/>
      <point x="308" y="212"/>
      <point x="342" y="212" type="curve" smooth="yes"/>
      <point x="398" y="212"/>
      <point x="446" y="246"/>
      <point x="476" y="312" type="curve"/>
      <point x="417" y="349" type="line"/>
      <point x="391" y="303"/>
      <point x="373" y="289"/>
      <point x="341" y="289" type="curve" smooth="yes"/>
      <point x="321" y="289"/>
      <point x="306" y="297"/>
      <point x="272" y="315" type="curve" smooth="yes"/>
      <point x="237" y="338"/>
      <point x="212" y="350"/>
      <point x="177" y="350" type="curve" smooth="yes"/>
      <point x="121" y="350"/>
      <point x="74" y="317"/>
      <point x="44" y="251" type="curve"/>
    </contour>
  </outline>
</glyph>
<glyph name="cent" format="2">
  <advance width="566"/>
  <unicode hex="00A2"/>
  <outline>
    <contour>
      <point x="261" y="-102" type="line"/>
      <point x="324" y="-102" type="line"/>
      <point x="324" y="-8" type="line"/>
      <point x="443" y="2"/>
      <point x="513" y="71"/>
      <point x="513" y="179" type="curve" smooth="yes"/>
      <point x="513" y="183" type="line"/>
      <point x="428" y="183" type="line"/>
      <point x="428" y="179" type="line" smooth="yes"/>
      <point x="428" y="108"/>
      <point x="379" y="68"/>
      <point x="294" y="68" type="curve" smooth="yes"/>
      <point x="191" y="68"/>
      <point x="140" y="125"/>
      <point x="140" y="239" type="curve" smooth="yes"/>
      <point x="140" y="287" type="line" smooth="yes"/>
      <point x="140" y="400"/>
      <point x="191" y="457"/>
      <point x="294" y="457" type="curve" smooth="yes"/>
      <point x="380" y="457"/>
      <point x="428" y="414"/>
      <point x="428" y="344" type="curve" smooth="yes"/>
      <point x="428" y="339" type="line"/>
      <point x="513" y="339" type="line"/>
      <point x="513" y="344" type="line" smooth="yes"/>
      <point x="513" y="453"/>
      <point x="443" y="523"/>
      <point x="324" y="534" type="curve"/>
      <point x="324" y="626" type="line"/>
      <point x="261" y="626" type="line"/>
      <point x="261" y="534" type="line"/>
      <point x="130" y="522"/>
      <point x="53" y="436"/>
      <point x="53" y="289" type="curve" smooth="yes"/>
      <point x="53" y="237" type="line" smooth="yes"/>
      <point x="53" y="90"/>
      <point x="128" y="4"/>
      <point x="261" y="-8" type="curve"/>
    </contour>
  </outline>
</glyph>
<glyph name="sterling" format="2">
  <advance width="513"/>
  <unicode hex="00A3"/>
  <outline>
    <contour>
      <point x="55" y="0" type="line"/>
      <point x="482" y="0" type="line"/>
      <point x="482" y="84" type="line"/>
      <point x="164" y="84" type="line"/>
      <point x="190" y="110"/>
      <point x="202" y="142"/>
      <point x="202" y="190" type="curve" smooth="yes"/>
      <point x="202" y="294" type="line"/>
      <point x="376" y="294" type="line"/>
      <point x="376" y="376" type="line"/>
      <point x="202" y="376" type="line"/>
      <point x="202" y="526" type="line" smooth="yes"/>
      <point x="202" y="599"/>
      <point x="233" y="635"/>
      <point x="296" y="635" type="curve" smooth="yes"/>
      <point x="360" y="635"/>
      <point x="390" y="607"/>
      <point x="390" y="545" type="curve"/>
      <point x="479" y="545" type="line"/>
      <point x="479" y="654"/>
      <point x="416" y="717"/>
      <point x="297" y="717" type="curve" smooth="yes"/>
      <point x="175" y="717"/>
      <point x="109" y="644"/>
      <point x="109" y="514" type="curve" smooth="yes"/>
      <point x="109" y="376" type="line"/>
      <point x="32" y="376" type="line"/>
      <point x="32" y="294" type="line"/>
      <point x="109" y="294" type="line"/>
      <point x="109" y="180" type="line" smooth="yes"/>
      <point x="109" y="124"/>
      <point x="92" y="96"/>
      <point x="55" y="79" type="curve"/>
    </contour>
  </outline>
</glyph>
<glyph name="currency" format="2">
  <advance width="620"/>
  <unicode hex="00A4"/>
  <outline>
    <contour>
      <point x="495" y="90" type="line"/>
      <point x="551" y="147" type="line"/>
      <point x="480" y="218" type="line"/>
      <point x="503" y="252"/>
      <point x="514" y="290"/>
      <point x="514" y="331" type="curve" smooth="yes"/>
      <point x="514" y="372"/>
      <point x="502" y="410"/>
      <point x="479" y="444" type="curve"/>
      <point x="550" y="515" type="line"/>
      <point x="494" y="571" type="line"/>
      <point x="422" y="502" type="line"/>
      <point x="389" y="524"/>
      <point x="351" y="535"/>
      <point x="309" y="535" type="curve" smooth="yes"/>
      <point x="268" y="535"/>
      <point x="230" y="524"/>
      <point x="196" y="502" type="curve"/>
      <point x="125" y="571" type="line"/>
      <point x="69" y="515" type="line"/>
      <point x="139" y="443" type="line"/>
      <point x="116" y="412"/>
      <point x="105" y="374"/>
      <point x="105" y="331" type="curve" smooth="yes"/>
      <point x="105" y="290"/>
      <point x="116" y="252"/>
      <point x="138" y="218" type="curve"/>
      <point x="69" y="148" type="line"/>
      <point x="125" y="91" type="line"/>
      <point x="196" y="161" type="line"/>
      <point x="229" y="138"/>
      <point x="267" y="127"/>
      <point x="309" y="127" type="curve" smooth="yes"/>
      <point x="352" y="127"/>
      <point x="390" y="138"/>
      <point x="423" y="161" type="curve"/>
    </contour>
    <contour>
      <point x="219" y="239" type="curve" smooth="yes"/>
      <point x="195" y="264"/>
      <point x="183" y="294"/>
      <point x="183" y="331" type="curve" smooth="yes"/>
      <point x="183" y="368"/>
      <point x="195" y="398"/>
      <point x="219" y="423" type="curve" smooth="yes"/>
      <point x="243" y="448"/>
      <point x="273" y="460"/>
      <point x="309" y="460" type="curve" smooth="yes"/>
      <point x="346" y="460"/>
      <point x="377" y="448"/>
      <point x="400" y="423" type="curve" smooth="yes"/>
      <point x="423" y="398"/>
      <point x="435" y="368"/>
      <point x="435" y="331" type="curve" smooth="yes"/>
      <point x="435" y="294"/>
      <point x="423" y="263"/>
      <point x="400" y="239" type="curve" smooth="yes"/>
      <point x="377" y="214"/>
      <point x="346" y="202"/>
      <point x="309" y="202" type="curve" smooth="yes"/>
      <point x="273" y="202"/>
      <point x="243" y="214"/>
    </contour>
  </outline>
</glyph>
<glyph name="yen" format="2">
  <advance width="544"/>
  <unicode hex="00A5"/>
  <outline>
    <contour>
      <point x="226" y="0" type="line"/>
      <point x="319" y="0" type="line"/>
      <point x="319" y="146" type="line"/>
      <point x="487" y="146" type="line"/>
      <point x="487" y="214" type="line"/>
      <point x="319" y="214" type="line"/>
      <point x="319" y="278" type="line"/>
      <point x="487" y="278" type="line"/>
      <point x="487" y="346" type="line"/>
      <point x="341" y="346" type="line"/>
      <point x="536" y="707" type="line"/>
      <point x="433" y="707" type="line"/>
      <point x="273" y="388" type="line"/>
      <point x="112" y="707" type="line"/>
      <point x="9" y="707" type="line"/>
      <point x="205" y="346" type="line"/>
      <point x="59" y="346" type="line"/>
      <point x="59" y="278" type="line"/>
      <point x="226" y="278" type="line"/>
      <point x="226" y="214" type="line"/>
      <point x="59" y="214" type="line"/>
      <point x="59" y="146" type="line"/>
      <point x="226" y="146" type="line"/>
    </contour>
  </outline>
</glyph>
<glyph name="section" format="2">
  <advance width="572"/>
  <unicode hex="00A7"/>
  <outline>
    <contour>
      <point x="284" y="-172" type="curve" smooth="yes"/>
      <point x="404" y="-172"/>
      <point x="479" y="-113"/>
      <point x="479" y="-13" type="curve" smooth="yes"/>
      <point x="479" y="53"/>
      <point x="450" y="96"/>
      <point x="388" y="122" type="curve"/>
      <point x="457" y="144"/>
      <point x="499" y="203"/>
      <point x="499" y="286" type="curve" smooth="yes"/>
      <point x="499" y="397"/>
      <point x="431" y="447"/>
      <point x="336" y="469" type="curve" smooth="yes"/>
      <point x="228" y="490"/>
      <point x="187" y="511"/>
      <point x="187" y="574" type="curve" smooth="yes"/>
      <point x="187" y="624"/>
      <point x="221" y="654"/>
      <point x="289" y="654" type="curve" smooth="yes"/>
      <point x="358" y="654"/>
      <point x="393" y="625"/>
      <point x="393" y="566" type="curve"/>
      <point x="477" y="566" type="line"/>
      <point x="477" y="670"/>
      <point x="412" y="731"/>
      <point x="290" y="731" type="curve" smooth="yes"/>
      <point x="170" y="731"/>
      <point x="99" y="669"/>
      <point x="99" y="574" type="curve" smooth="yes"/>
      <point x="99" y="513"/>
      <point x="124" y="469"/>
      <point x="187" y="443" type="curve"/>
      <point x="112" y="417"/>
      <point x="74" y="358"/>
      <point x="74" y="279" type="curve" smooth="yes"/>
      <point x="74" y="182"/>
      <point x="129" y="120"/>
      <point x="239" y="95" type="curve" smooth="yes"/>
      <point x="350" y="73"/>
      <point x="391" y="49"/>
      <point x="391" y="-12" type="curve" smooth="yes"/>
      <point x="391" y="-66"/>
      <point x="354" y="-95"/>
      <point x="284" y="-95" type="curve" smooth="yes"/>
      <point x="210" y="-95"/>
      <point x="173" y="-64"/>
      <point x="173" y="-1" type="curve"/>
      <point x="89" y="-1" type="line"/>
      <point x="89" y="-112"/>
      <point x="159" y="-172"/>
    </contour>
    <contour>
      <point x="287" y="171" type="curve" smooth="yes"/>
      <point x="205" y="171"/>
      <point x="162" y="210"/>
      <point x="162" y="282" type="curve" smooth="yes"/>
      <point x="162" y="354"/>
      <point x="205" y="393"/>
      <point x="287" y="393" type="curve" smooth="yes"/>
      <point x="367" y="393"/>
      <point x="411" y="354"/>
      <point x="411" y="282" type="curve" smooth="yes"/>
      <point x="411" y="210"/>
      <point x="367" y="171"/>
    </contour>
  </outline>
</glyph>
<glyph name="copyright" format="2">
  <advance width="822"/>
  <unicode hex="00A9"/>
  <outline>
    <contour>
      <point x="416" y="152" type="curve" smooth="yes"/>
      <point x="514" y="152"/>
      <point x="578" y="203"/>
      <point x="578" y="285" type="curve" smooth="yes"/>
      <point x="578" y="289" type="line"/>
      <point x="511" y="289" type="line"/>
      <point x="511" y="285" type="line" smooth="yes"/>
      <point x="511" y="236"/>
      <point x="475" y="210"/>
      <point x="418" y="210" type="curve" smooth="yes"/>
      <point x="345" y="210"/>
      <point x="308" y="251"/>
      <point x="308" y="332" type="curve" smooth="yes"/>
      <point x="308" y="370" type="line" smooth="yes"/>
      <point x="308" y="451"/>
      <point x="346" y="490"/>
      <point x="417" y="490" type="curve" smooth="yes"/>
      <point x="475" y="490"/>
      <point x="511" y="464"/>
      <point x="511" y="416" type="curve" smooth="yes"/>
      <point x="511" y="413" type="line"/>
      <point x="579" y="413" type="line"/>
      <point x="579" y="417" type="line" smooth="yes"/>
      <point x="579" y="499"/>
      <point x="518" y="550"/>
      <point x="416" y="550" type="curve" smooth="yes"/>
      <point x="307" y="550"/>
      <point x="240" y="485"/>
      <point x="240" y="372" type="curve" smooth="yes"/>
      <point x="240" y="330" type="line" smooth="yes"/>
      <point x="240" y="214"/>
      <point x="308" y="152"/>
    </contour>
    <contour>
      <point x="413" y="-9" type="curve" smooth="yes"/>
      <point x="620" y="-9"/>
      <point x="762" y="136"/>
      <point x="762" y="349" type="curve" smooth="yes"/>
      <point x="762" y="561"/>
      <point x="621" y="708"/>
      <point x="413" y="708" type="curve" smooth="yes"/>
      <point x="204" y="708"/>
      <point x="62" y="556"/>
      <point x="62" y="349" type="curve" smooth="yes"/>
      <point x="62" y="137"/>
      <point x="207" y="-9"/>
    </contour>
    <contour>
      <point x="413" y="51" type="curve" smooth="yes"/>
      <point x="242" y="51"/>
      <point x="128" y="169"/>
      <point x="128" y="349" type="curve" smooth="yes"/>
      <point x="128" y="525"/>
      <point x="241" y="646"/>
      <point x="413" y="646" type="curve" smooth="yes"/>
      <point x="585" y="646"/>
      <point x="696" y="525"/>
      <point x="696" y="349" type="curve" smooth="yes"/>
      <point x="696" y="172"/>
      <point x="584" y="51"/>
    </contour>
  </outline>
</glyph>
<glyph name="ordfeminine" format="2">
  <advance width="391"/>
  <unicode hex="00AA"/>
  <outline>
    <contour>
      <point x="163" y="436" type="curve" smooth="yes"/>
      <point x="206" y="436"/>
      <point x="240" y="449"/>
      <point x="265" y="474" type="curve"/>
      <point x="265" y="440" type="line"/>
      <point x="335" y="440" type="line"/>
      <point x="335" y="647" type="line" smooth="yes"/>
      <point x="335" y="726"/>
      <point x="288" y="766"/>
      <point x="193" y="766" type="curve" smooth="yes"/>
      <point x="103" y="766"/>
      <point x="54" y="731"/>
      <point x="54" y="669" type="curve" smooth="yes"/>
      <point x="54" y="667" type="line"/>
      <point x="122" y="667" type="line"/>
      <point x="122" y="669" type="line" smooth="yes"/>
      <point x="122" y="695"/>
      <point x="145" y="710"/>
      <point x="189" y="710" type="curve" smooth="yes"/>
      <point x="240" y="710"/>
      <point x="262" y="690"/>
      <point x="262" y="651" type="curve" smooth="yes"/>
      <point x="262" y="630" type="line"/>
      <point x="172" y="630" type="line" smooth="yes"/>
      <point x="90" y="630"/>
      <point x="44" y="597"/>
      <point x="44" y="535" type="curve" smooth="yes"/>
      <point x="44" y="473"/>
      <point x="87" y="436"/>
    </contour>
    <contour>
      <point x="115" y="538" type="curve" smooth="yes"/>
      <point x="115" y="566"/>
      <point x="136" y="580"/>
      <point x="182" y="580" type="curve" smooth="yes"/>
      <point x="262" y="580" type="line"/>
      <point x="262" y="565" type="line" smooth="yes"/>
      <point x="262" y="517"/>
      <point x="237" y="496"/>
      <point x="179" y="496" type="curve" smooth="yes"/>
      <point x="136" y="496"/>
      <point x="115" y="510"/>
    </contour>
  </outline>
</glyph>
<glyph name="logicalnot" format="2">
  <advance width="521"/>
  <unicode hex="00AC"/>
  <outline>
    <contour>
      <point x="379" y="110" type="line"/>
      <point x="467" y="110" type="line"/>
      <point x="467" y="324" type="line"/>
      <point x="54" y="324" type="line"/>
      <point x="54" y="242" type="line"/>
      <point x="379" y="242" type="line"/>
    </contour>
  </outline>
</glyph>
<glyph name="registered" format="2">
  <advance width="531"/>
  <unicode hex="00AE"/>
  <outline>
    <contour>
      <point x="265" y="314" type="curve" smooth="yes"/>
      <point x="375" y="314"/>
      <point x="458" y="397"/>
      <point x="458" y="511" type="curve" smooth="yes"/>
      <point x="458" y="620"/>
      <point x="377" y="707"/>
      <point x="265" y="707" type="curve" smooth="yes"/>
      <point x="156" y="707"/>
      <point x="74" y="619"/>
      <point x="74" y="511" type="curve" smooth="yes"/>
      <point x="74" y="399"/>
      <point x="154" y="314"/>
    </contour>
    <contour>
      <point x="112" y="511" type="curve" smooth="yes"/>
      <point x="112" y="605"/>
      <point x="173" y="672"/>
      <point x="265" y="672" type="curve" smooth="yes"/>
      <point x="355" y="672"/>
      <point x="421" y="605"/>
      <point x="421" y="511" type="curve" smooth="yes"/>
      <point x="421" y="415"/>
      <point x="357" y="349"/>
      <point x="265" y="349" type="curve" smooth="yes"/>
      <point x="174" y="349"/>
      <point x="112" y="416"/>
    </contour>
    <contour>
      <point x="193" y="402" type="line"/>
      <point x="234" y="402" type="line"/>
      <point x="234" y="490" type="line"/>
      <point x="269" y="490" type="line"/>
      <point x="310" y="402" type="line"/>
      <point x="354" y="402" type="line"/>
      <point x="311" y="496" type="line"/>
      <point x="336" y="507"/>
      <point x="349" y="527"/>
      <point x="349" y="556" type="curve" smooth="yes"/>
      <point x="349" y="598"/>
      <point x="322" y="622"/>
      <point x="276" y="622" type="curve" smooth="yes"/>
      <point x="193" y="622" type="line"/>
    </contour>
    <contour>
      <point x="234" y="526" type="line"/>
      <point x="234" y="585" type="line"/>
      <point x="274" y="585" type="line" smooth="yes"/>
      <point x="297" y="585"/>
      <point x="308" y="575"/>
      <point x="308" y="556" type="curve" smooth="yes"/>
      <point x="308" y="536"/>
      <point x="297" y="526"/>
      <point x="274" y="526" type="curve" smooth="yes"/>
    </contour>
  </outline>
</glyph>
<glyph name="degree" format="2">
  <advance width="410"/>
  <unicode hex="00B0"/>
  <outline>
    <contour>
      <point x="207" y="429" type="curve" smooth="yes"/>
      <point x="286" y="429"/>
      <point x="350" y="491"/>
      <point x="350" y="573" type="curve" smooth="yes"/>
      <point x="350" y="656"/>
      <point x="286" y="717"/>
      <point x="207" y="717" type="curve" smooth="yes"/>
      <point x="122" y="717"/>
      <point x="62" y="654"/>
      <point x="62" y="573" type="curve" smooth="yes"/>
      <point x="62" y="490"/>
      <point x="124" y="429"/>
    </contour>
    <contour>
      <point x="123" y="573" type="curve" smooth="yes"/>
      <point x="123" y="621"/>
      <point x="155" y="660"/>
      <point x="207" y="660" type="curve" smooth="yes"/>
      <point x="255" y="660"/>
      <point x="290" y="623"/>
      <point x="290" y="573" type="curve" smooth="yes"/>
      <point x="290" y="524"/>
      <point x="254" y="487"/>
      <point x="207" y="487" type="curve" smooth="yes"/>
      <point x="157" y="487"/>
      <point x="123" y="523"/>
    </contour>
  </outline>
</glyph>
<glyph name="plusminus" format="2">
  <advance width="521"/>
  <unicode hex="00B1"/>
  <outline>
    <contour>
      <point x="219" y="76" type="line"/>
      <point x="302" y="76" type="line"/>
      <point x="302" y="242" type="line"/>
      <point x="467" y="242" type="line"/>
      <point x="467" y="324" type="line"/>
      <point x="302" y="324" type="line"/>
      <point x="302" y="489" type="line"/>
      <point x="219" y="489" type="line"/>
      <point x="219" y="324" type="line"/>
      <point x="54" y="324" type="line"/>
      <point x="54" y="242" type="line"/>
      <point x="219" y="242" type="line"/>
    </contour>
    <contour>
      <point x="54" y="-57" type="line"/>
      <point x="467" y="-57" type="line"/>
      <point x="467" y="26" type="line"/>
      <point x="54" y="26" type="line"/>
    </contour>
  </outline>
</glyph>
<glyph name="acute" format="2">
  <advance width="512"/>
  <unicode hex="00B4"/>
  <outline>
    <contour>
      <point x="163" y="591" type="line"/>
      <point x="244" y="591" type="line"/>
      <point x="382" y="722" type="line"/>
      <point x="274" y="722" type="line"/>
    </contour>
  </outline>
</glyph>
<glyph name="mu" format="2">
  <advance width="584"/>
  <unicode hex="00B5"/>
  <outline>
    <contour>
      <point x="69" y="-157" type="line"/>
      <point x="156" y="-157" type="line"/>
      <point x="156" y="34" type="line"/>
      <point x="183" y="7"/>
      <point x="223" y="-6"/>
      <point x="276" y="-6" type="curve" smooth="yes"/>
      <point x="343" y="-6"/>
      <point x="395" y="19"/>
      <point x="430" y="68" type="curve"/>
      <point x="430" y="0" type="line"/>
      <point x="516" y="0" type="line"/>
      <point x="516" y="524" type="line"/>
      <point x="428" y="524" type="line"/>
      <point x="428" y="221" type="line" smooth="yes"/>
      <point x="428" y="125"/>
      <point x="375" y="71"/>
      <point x="289" y="71" type="curve" smooth="yes"/>
      <point x="205" y="71"/>
      <point x="156" y="118"/>
      <point x="156" y="204" type="curve" smooth="yes"/>
      <point x="156" y="524" type="line"/>
      <point x="69" y="524" type="line"/>
    </contour>
  </outline>
</glyph>
<glyph name="paragraph" format="2">
  <advance width="697"/>
  <unicode hex="00B6"/>
  <outline>
    <contour>
      <point x="333" y="-157" type="line"/>
      <point x="415" y="-157" type="line"/>
      <point x="415" y="629" type="line"/>
      <point x="505" y="629" type="line"/>
      <point x="505" y="-157" type="line"/>
      <point x="587" y="-157" type="line"/>
      <point x="587" y="707" type="line"/>
      <point x="316" y="707" type="line" smooth="yes"/>
      <point x="164" y="707"/>
      <point x="74" y="628"/>
      <point x="74" y="490" type="curve" smooth="yes"/>
      <point x="74" y="354"/>
      <point x="165" y="275"/>
      <point x="333" y="275" type="curve"/>
    </contour>
  </outline>
</glyph>
<glyph name="ordmasculine" format="2">
  <advance width="391"/>
  <unicode hex="00BA"/>
  <outline>
    <contour>
      <point x="196" y="436" type="curve" smooth="yes"/>
      <point x="289" y="436"/>
      <point x="345" y="487"/>
      <point x="345" y="584" type="curve" smooth="yes"/>
      <point x="345" y="620" type="line" smooth="yes"/>
      <point x="345" y="715"/>
      <point x="289" y="766"/>
      <point x="196" y="766" type="curve" smooth="yes"/>
      <point x="101" y="766"/>
      <point x="47" y="713"/>
      <point x="47" y="620" type="curve" smooth="yes"/>
      <point x="47" y="584" type="line" smooth="yes"/>
      <point x="47" y="488"/>
      <point x="102" y="436"/>
    </contour>
    <contour>
      <point x="147" y="502"/>
      <point x="120" y="529"/>
      <point x="120" y="584" type="curve" smooth="yes"/>
      <point x="120" y="620" type="line" smooth="yes"/>
      <point x="120" y="671"/>
      <point x="145" y="700"/>
      <point x="196" y="700" type="curve" smooth="yes"/>
      <point x="244" y="700"/>
      <point x="271" y="674"/>
      <point x="271" y="620" type="curve" smooth="yes"/>
      <point x="271" y="584" type="line" smooth="yes"/>
      <point x="271" y="529"/>
      <point x="243" y="502"/>
      <point x="196" y="502" type="curve" smooth="yes"/>
    </contour>
  </outline>
</glyph>
<glyph name="guillemotright" format="2">
  <advance width="565"/>
  <unicode hex="00BB"/>
  <outline>
    <contour>
      <point x="69" y="154" type="line"/>
      <point x="204" y="270" type="line"/>
      <point x="69" y="387" type="line"/>
      <point x="69" y="480" type="line"/>
      <point x="308" y="270" type="line"/>
      <point x="69" y="60" type="line"/>
    </contour>
    <contour>
      <point x="303" y="154" type="line"/>
      <point x="438" y="270" type="line"/>
      <point x="303" y="387" type="line"/>
      <point x="303" y="480" type="line"/>
      <point x="543" y="270" type="line"/>
      <point x="303" y="60" type="line"/>
    </contour>
  </outline>
</glyph>
<glyph name="questiondown" format="2">
  <advance width="496"/>
  <unicode hex="00BF"/>
  <outline>
    <contour>
      <point x="253" y="-167" type="curve" smooth="yes"/>
      <point x="385" y="-167"/>
      <point x="460" y="-98"/>
      <point x="462" y="24" type="curve"/>
      <point x="373" y="24" type="line"/>
      <point x="373" y="-49"/>
      <point x="334" y="-85"/>
      <point x="255" y="-85" type="curve" smooth="yes"/>
      <point x="178" y="-85"/>
      <point x="135" y="-53"/>
      <point x="135" y="10" type="curve" smooth="yes"/>
      <point x="135" y="50"/>
      <point x="147" y="76"/>
      <point x="187" y="116" type="curve" smooth="yes"/>
      <point x="245" y="169" type="line" smooth="yes"/>
      <point x="291" y="211"/>
      <point x="301" y="242"/>
      <point x="301" y="304" type="curve" smooth="yes"/>
      <point x="301" y="338" type="line"/>
      <point x="211" y="338" type="line"/>
      <point x="211" y="308" type="line" smooth="yes"/>
      <point x="211" y="265"/>
      <point x="202" y="246"/>
      <point x="173" y="217" type="curve" smooth="yes"/>
      <point x="106" y="154" type="line" smooth="yes"/>
      <point x="61" y="107"/>
      <point x="43" y="63"/>
      <point x="43" y="6" type="curve" smooth="yes"/>
      <point x="43" y="-102"/>
      <point x="123" y="-167"/>
    </contour>
    <contour>
      <point x="204" y="418" type="line"/>
      <point x="307" y="418" type="line"/>
      <point x="307" y="524" type="line"/>
      <point x="204" y="524" type="line"/>
    </contour>
  </outline>
</glyph>
<glyph name="Eth" format="2">
  <advance width="742"/>
  <unicode hex="00D0"/>
  <outline>
    <contour>
      <point x="126" y="0" type="line"/>
      <point x="385" y="0" type="line" smooth="yes"/>
      <point x="574" y="0"/>
      <point x="682" y="102"/>
      <point x="682" y="307" type="curve" smooth="yes"/>
      <point x="682" y="400" type="line" smooth="yes"/>
      <point x="682" y="604"/>
      <point x="575" y="707"/>
      <point x="387" y="707" type="curve" smooth="yes"/>
      <point x="126" y="707" type="line"/>
      <point x="126" y="400" type="line"/>
      <point x="35" y="400" type="line"/>
      <point x="35" y="317" type="line"/>
      <point x="126" y="317" type="line"/>
    </contour>
    <contour>
      <point x="219" y="83" type="line"/>
      <point x="219" y="317" type="line"/>
      <point x="393" y="317" type="line"/>
      <point x="393" y="400" type="line"/>
      <point x="219" y="400" type="line"/>
      <point x="219" y="624" type="line"/>
      <point x="387" y="624" type="line" smooth="yes"/>
      <point x="523" y="624"/>
      <point x="589" y="551"/>
      <point x="589" y="395" type="curve" smooth="yes"/>
      <point x="589" y="305" type="line" smooth="yes"/>
      <point x="589" y="153"/>
      <point x="523" y="83"/>
      <point x="387" y="83" type="curve" smooth="yes"/>
    </contour>
  </outline>
</glyph>
<glyph name="multiply" format="2">
  <advance width="521"/>
  <unicode hex="00D7"/>
  <outline>
    <contour>
      <point x="138" y="104" type="line"/>
      <point x="261" y="227" type="line"/>
      <point x="384" y="104" type="line"/>
      <point x="439" y="160" type="line"/>
      <point x="316" y="284" type="line"/>
      <point x="439" y="407" type="line"/>
      <point x="384" y="462" type="line"/>
      <point x="261" y="339" type="line"/>
      <point x="138" y="462" type="line"/>
      <point x="83" y="407" type="line"/>
      <point x="206" y="284" type="line"/>
      <point x="83" y="160" type="line"/>
    </contour>
  </outline>
</glyph>
<glyph name="Thorn" format="2">
  <advance width="652"/>
  <unicode hex="00DE"/>
  <outline>
    <contour>
      <point x="74" y="0" type="line"/>
      <point x="167" y="0" type="line"/>
      <point x="167" y="159" type="line"/>
      <point x="378" y="159" type="line" smooth="yes"/>
      <point x="535" y="159"/>
      <point x="621" y="233"/>
      <point x="621" y="370" type="curve" smooth="yes"/>
      <point x="621" y="509"/>
      <point x="535" y="582"/>
      <point x="378" y="582" type="curve" smooth="yes"/>
      <point x="167" y="582" type="line"/>
      <point x="167" y="707" type="line"/>
      <point x="74" y="707" type="line"/>
    </contour>
    <contour>
      <point x="167" y="242" type="line"/>
      <point x="167" y="499" type="line"/>
      <point x="375" y="499" type="line" smooth="yes"/>
      <point x="481" y="499"/>
      <point x="528" y="461"/>
      <point x="528" y="369" type="curve" smooth="yes"/>
      <point x="528" y="280"/>
      <point x="481" y="242"/>
      <point x="380" y="242" type="curve" smooth="yes"/>
    </contour>
  </outline>
</glyph>
<glyph name="germandbls" format="2">
  <advance width="573"/>
  <unicode hex="00DF"/>
  <outline>
    <contour>
      <point x="284" y="-4" type="line"/>
      <point x="321" y="-4" type="line" smooth="yes"/>
      <point x="372" y="-4"/>
      <point x="412" y="4"/>
      <point x="441" y="19" type="curve" smooth="yes"/>
      <point x="470" y="34"/>
      <point x="490" y="59"/>
      <point x="502" y="93" type="curve" smooth="yes"/>
      <point x="514" y="126"/>
      <point x="520" y="173"/>
      <point x="520" y="233" type="curve" smooth="yes"/>
      <point x="520" y="295"/>
      <point x="514" y="341"/>
      <point x="502" y="370" type="curve" smooth="yes"/>
      <point x="490" y="399"/>
      <point x="468" y="420"/>
      <point x="436" y="433" type="curve"/>
      <point x="461" y="445"/>
      <point x="480" y="461"/>
      <point x="493" y="480" type="curve" smooth="yes"/>
      <point x="505" y="499"/>
      <point x="511" y="524"/>
      <point x="511" y="554" type="curve" smooth="yes"/>
      <point x="511" y="606"/>
      <point x="492" y="646"/>
      <point x="455" y="674" type="curve" smooth="yes"/>
      <point x="417" y="701"/>
      <point x="363" y="715"/>
      <point x="294" y="715" type="curve" smooth="yes"/>
      <point x="216" y="715"/>
      <point x="159" y="698"/>
      <point x="123" y="663" type="curve" smooth="yes"/>
      <point x="87" y="628"/>
      <point x="69" y="575"/>
      <point x="69" y="505" type="curve" smooth="yes"/>
      <point x="69" y="0" type="line"/>
      <point x="156" y="0" type="line"/>
      <point x="156" y="514" type="line" smooth="yes"/>
      <point x="156" y="559"/>
      <point x="167" y="590"/>
      <point x="189" y="609" type="curve" smooth="yes"/>
      <point x="211" y="628"/>
      <point x="247" y="637"/>
      <point x="297" y="637" type="curve" smooth="yes"/>
      <point x="340" y="637"/>
      <point x="372" y="630"/>
      <point x="393" y="617" type="curve" smooth="yes"/>
      <point x="414" y="603"/>
      <point x="424" y="581"/>
      <point x="424" y="551" type="curve" smooth="yes"/>
      <point x="424" y="522"/>
      <point x="415" y="501"/>
      <point x="398" y="488" type="curve" smooth="yes"/>
      <point x="381" y="475"/>
      <point x="353" y="468"/>
      <point x="314" y="468" type="curve" smooth="yes"/>
      <point x="283" y="468" type="line"/>
      <point x="283" y="391" type="line"/>
      <point x="308" y="391" type="line" smooth="yes"/>
      <point x="342" y="391"/>
      <point x="368" y="386"/>
      <point x="386" y="376" type="curve" smooth="yes"/>
      <point x="404" y="365"/>
      <point x="416" y="349"/>
      <point x="423" y="326" type="curve" smooth="yes"/>
      <point x="430" y="303"/>
      <point x="433" y="271"/>
      <point x="433" y="230" type="curve" smooth="yes"/>
      <point x="433" y="189"/>
      <point x="430" y="158"/>
      <point x="424" y="136" type="curve" smooth="yes"/>
      <point x="417" y="113"/>
      <point x="406" y="97"/>
      <point x="389" y="88" type="curve" smooth="yes"/>
      <point x="372" y="78"/>
      <point x="347" y="73"/>
      <point x="315" y="73" type="curve" smooth="yes"/>
      <point x="284" y="73" type="line"/>
    </contour>
  </outline>
</glyph>
<glyph name="ae" format="2">
  <advance width="922"/>
  <unicode hex="00E6"/>
  <outline>
    <contour>
      <point x="251" y="-7" type="curve" smooth="yes"/>
      <point x="346" y="-7"/>
      <point x="413" y="22"/>
      <point x="453" y="79" type="curve"/>
      <point x="495" y="20"/>
      <point x="561" y="-9"/>
      <point x="652" y="-9" type="curve" smooth="yes"/>
      <point x="784" y="-9"/>
      <point x="863" y="69"/>
      <point x="866" y="165" type="curve" smooth="yes"/>
      <point x="866" y="169" type="line"/>
      <point x="780" y="169" type="line"/>
      <point x="780" y="166" type="line" smooth="yes"/>
      <point x="778" y="107"/>
      <point x="728" y="67"/>
      <point x="652" y="67" type="curve" smooth="yes"/>
      <point x="547" y="67"/>
      <point x="494" y="124"/>
      <point x="494" y="237" type="curve" smooth="yes"/>
      <point x="494" y="241" type="line"/>
      <point x="869" y="241" type="line"/>
      <point x="869" y="301" type="line" smooth="yes"/>
      <point x="869" y="453"/>
      <point x="784" y="535"/>
      <point x="638" y="535" type="curve" smooth="yes"/>
      <point x="559" y="535"/>
      <point x="498" y="508"/>
      <point x="459" y="459" type="curve"/>
      <point x="420" y="507"/>
      <point x="356" y="531"/>
      <point x="267" y="531" type="curve" smooth="yes"/>
      <point x="139" y="531"/>
      <point x="60" y="471"/>
      <point x="60" y="373" type="curve" smooth="yes"/>
      <point x="60" y="370" type="line"/>
      <point x="145" y="370" type="line"/>
      <point x="145" y="373" type="line" smooth="yes"/>
      <point x="145" y="427"/>
      <point x="188" y="459"/>
      <point x="268" y="459" type="curve" smooth="yes"/>
      <point x="361" y="459"/>
      <point x="407" y="419"/>
      <point x="407" y="340" type="curve" smooth="yes"/>
      <point x="407" y="305" type="line"/>
      <point x="244" y="305" type="line" smooth="yes"/>
      <point x="112" y="305"/>
      <point x="43" y="251"/>
      <point x="43" y="153" type="curve" smooth="yes"/>
      <point x="43" y="51"/>
      <point x="121" y="-7"/>
    </contour>
    <contour>
      <point x="129" y="154" type="curve" smooth="yes"/>
      <point x="129" y="214"/>
      <point x="170" y="241"/>
      <point x="258" y="241" type="curve" smooth="yes"/>
      <point x="407" y="241" type="line"/>
      <point x="407" y="200" type="line" smooth="yes"/>
      <point x="407" y="110"/>
      <point x="358" y="65"/>
      <point x="260" y="65" type="curve" smooth="yes"/>
      <point x="174" y="65"/>
      <point x="129" y="96"/>
    </contour>
    <contour>
      <point x="494" y="306" type="line"/>
      <point x="494" y="307" type="line" smooth="yes"/>
      <point x="494" y="409"/>
      <point x="549" y="458"/>
      <point x="639" y="458" type="curve" smooth="yes"/>
      <point x="733" y="458"/>
      <point x="782" y="412"/>
      <point x="782" y="314" type="curve" smooth="yes"/>
      <point x="782" y="306" type="line"/>
    </contour>
  </outline>
</glyph>
<glyph name="eth" format="2">
  <advance width="561"/>
  <unicode hex="00F0"/>
  <outline>
    <contour>
      <point x="280" y="-11" type="curve" smooth="yes"/>
      <point x="421" y="-11"/>
      <point x="508" y="74"/>
      <point x="508" y="225" type="curve" smooth="yes"/>
      <point x="508" y="255" type="line" smooth="yes"/>
      <point x="508" y="338"/>
      <point x="484" y="405"/>
      <point x="417" y="490" type="curve" smooth="yes"/>
      <point x="341" y="584" type="line"/>
      <point x="440" y="610" type="line"/>
      <point x="423" y="673" type="line"/>
      <point x="296" y="639" type="line"/>
      <point x="240" y="709" type="line"/>
      <point x="139" y="709" type="line"/>
      <point x="213" y="617" type="line"/>
      <point x="120" y="593" type="line"/>
      <point x="137" y="529" type="line"/>
      <point x="259" y="562" type="line"/>
      <point x="333" y="471" type="line"/>
      <point x="314" y="479"/>
      <point x="292" y="483"/>
      <point x="266" y="483" type="curve" smooth="yes"/>
      <point x="134" y="483"/>
      <point x="53" y="397"/>
      <point x="53" y="253" type="curve" smooth="yes"/>
      <point x="53" y="223" type="line" smooth="yes"/>
      <point x="53" y="76"/>
      <point x="137" y="-11"/>
    </contour>
    <contour>
      <point x="138" y="224" type="curve" smooth="yes"/>
      <point x="138" y="254" type="line" smooth="yes"/>
      <point x="138" y="352"/>
      <point x="185" y="408"/>
      <point x="281" y="408" type="curve" smooth="yes"/>
      <point x="374" y="408"/>
      <point x="422" y="354"/>
      <point x="422" y="253" type="curve" smooth="yes"/>
      <point x="422" y="224" type="line" smooth="yes"/>
      <point x="422" y="120"/>
      <point x="373" y="68"/>
      <point x="281" y="68" type="curve" smooth="yes"/>
      <point x="187" y="68"/>
      <point x="138" y="122"/>
    </contour>
  </outline>
</glyph>
<glyph name="divide" format="2">
  <advance width="521"/>
  <unicode hex="00F7"/>
  <outline>
    <contour>
      <point x="260" y="77" type="curve" smooth="yes"/>
      <point x="291" y="77"/>
      <point x="315" y="100"/>
      <point x="315" y="131" type="curve" smooth="yes"/>
      <point x="315" y="163"/>
      <point x="292" y="186"/>
      <point x="260" y="186" type="curve" smooth="yes"/>
      <point x="229" y="186"/>
      <point x="206" y="162"/>
      <point x="206" y="131" type="curve" smooth="yes"/>
      <point x="206" y="101"/>
      <point x="230" y="77"/>
    </contour>
    <contour>
      <point x="54" y="242" type="line"/>
      <point x="467" y="242" type="line"/>
      <point x="467" y="324" type="line"/>
      <point x="54" y="324" type="line"/>
    </contour>
    <contour>
      <point x="260" y="381" type="curve" smooth="yes"/>
      <point x="291" y="381"/>
      <point x="315" y="402"/>
      <point x="315" y="436" type="curve" smooth="yes"/>
      <point x="315" y="466"/>
      <point x="292" y="490"/>
      <point x="260" y="490" type="curve" smooth="yes"/>
      <point x="229" y="490"/>
      <point x="206" y="465"/>
      <point x="206" y="436" type="curve" smooth="yes"/>
      <point x="206" y="406"/>
      <point x="230" y="381"/>
    </contour>
  </outline>
</glyph>
<glyph name="oslash" format="2">
  <advance width="585"/>
  <unicode hex="00F8"/>
  <outline>
    <contour>
      <point x="61" y="-31" type="line"/>
      <point x="127" y="-31" type="line"/>
      <point x="162" y="20" type="line"/>
      <point x="199" y="1"/>
      <point x="243" y="-9"/>
      <point x="294" y="-9" type="curve" smooth="yes"/>
      <point x="369" y="-9"/>
      <point x="427" y="12"/>
      <point x="469" y="54" type="curve" smooth="yes"/>
      <point x="511" y="96"/>
      <point x="532" y="157"/>
      <point x="532" y="237" type="curve" smooth="yes"/>
      <point x="532" y="289" type="line" smooth="yes"/>
      <point x="532" y="367"/>
      <point x="511" y="428"/>
      <point x="469" y="471" type="curve"/>
      <point x="524" y="551" type="line"/>
      <point x="459" y="551" type="line"/>
      <point x="426" y="504" type="line"/>
      <point x="390" y="525"/>
      <point x="346" y="535"/>
      <point x="294" y="535" type="curve" smooth="yes"/>
      <point x="219" y="535"/>
      <point x="160" y="514"/>
      <point x="117" y="472" type="curve" smooth="yes"/>
      <point x="74" y="430"/>
      <point x="53" y="369"/>
      <point x="53" y="289" type="curve" smooth="yes"/>
      <point x="53" y="237" type="line" smooth="yes"/>
      <point x="53" y="156"/>
      <point x="75" y="94"/>
      <point x="119" y="52" type="curve"/>
    </contour>
    <contour>
      <point x="168" y="125" type="line"/>
      <point x="149" y="153"/>
      <point x="140" y="191"/>
      <point x="140" y="239" type="curve" smooth="yes"/>
      <point x="140" y="287" type="line" smooth="yes"/>
      <point x="140" y="400"/>
      <point x="191" y="457"/>
      <point x="293" y="457" type="curve" smooth="yes"/>
      <point x="327" y="456"/>
      <point x="356" y="449"/>
      <point x="380" y="436" type="curve"/>
    </contour>
    <contour>
      <point x="208" y="87" type="curve"/>
      <point x="420" y="397" type="line"/>
      <point x="437" y="370"/>
      <point x="445" y="333"/>
      <point x="445" y="287" type="curve" smooth="yes"/>
      <point x="445" y="239" type="line" smooth="yes"/>
      <point x="445" y="176"/>
      <point x="430" y="130"/>
      <point x="399" y="102" type="curve" smooth="yes"/>
      <point x="374" y="79"/>
      <point x="338" y="68"/>
      <point x="293" y="68" type="curve" smooth="yes"/>
      <point x="258" y="68"/>
      <point x="230" y="74"/>
    </contour>
  </outline>
</glyph>
<glyph name="eogonek" format="2">
  <advance width="570"/>
  <unicode hex="0119"/>
  <outline>
    <component base="e"/>
    <contour>
      <point x="424" y="-218" type="curve"/>
      <point x="424" y="-132" type="line"/>
      <point x="368" y="-131"/>
      <point x="308" y="-116"/>
      <point x="274" y="-81" type="curve"/>
      <point x="423" y="27" type="line"/>
      <point x="319" y="-5" type="line"/>
      <point x="164" y="-56" type="line"/>
      <point x="176" y="-93"/>
      <point x="195" y="-124"/>
      <point x="221" y="-147" type="curve" smooth="yes"/>
      <point x="272" y="-193"/>
      <point x="340" y="-216"/>
    </contour>
  </outline>
</glyph>
<glyph name="Hbar" format="2">
  <advance width="701"/>
  <unicode hex="0126"/>
  <outline>
    <component base="H"/>
    <contour>
      <point x="43" y="596" type="line"/>
      <point x="659" y="596" type="line"/>
      <point x="659" y="513" type="line"/>
      <point x="43" y="513" type="line"/>
    </contour>
  </outline>
</glyph>
<glyph name="hbar" format="2">
  <advance width="585"/>
  <unicode hex="0127"/>
  <outline>
    <component base="h"/>
    <contour>
      <point x="33" y="593" type="line"/>
      <point x="359" y="593" type="line"/>
      <point x="359" y="656" type="line"/>
      <point x="33" y="656" type="line"/>
    </contour>
  </outline>
</glyph>
<glyph name="dotlessi" format="2">
  <advance width="239"/>
  <unicode hex="0131"/>
  <anchor x="119" y="524" name="top"/>
  <outline>
    <contour>
      <point x="76" y="0" type="line"/>
      <point x="163" y="0" type="line"/>
      <point x="163" y="524" type="line"/>
      <point x="76" y="524" type="line"/>
    </contour>
  </outline>
</glyph>
<glyph name="IJ" format="2">
  <advance width="708"/>
  <unicode hex="0132"/>
  <outline>
    <contour>
      <point x="354" y="-6" type="curve" smooth="yes"/>
      <point x="529" y="-6"/>
      <point x="635" y="88"/>
      <point x="635" y="253" type="curve" smooth="yes"/>
      <point x="635" y="707" type="line"/>
      <point x="542" y="707" type="line"/>
      <point x="542" y="259" type="line" smooth="yes"/>
      <point x="541" y="137"/>
      <point x="479" y="76"/>
      <point x="354" y="76" type="curve" smooth="yes"/>
      <point x="269" y="76"/>
      <point x="213" y="104"/>
      <point x="186" y="160" type="curve"/>
      <point x="87" y="160" type="line"/>
      <point x="119" y="54"/>
      <point x="214" y="-6"/>
    </contour>
    <contour>
      <point x="74" y="318" type="line"/>
      <point x="167" y="318" type="line"/>
      <point x="167" y="707" type="line"/>
      <point x="74" y="707" type="line"/>
    </contour>
  </outline>
</glyph>
<glyph name="ij" format="2">
  <advance width="535"/>
  <unicode hex="0133"/>
  <outline>
    <contour>
      <point x="258" y="-164" type="curve" smooth="yes"/>
      <point x="351" y="-164"/>
      <point x="467" y="-90"/>
      <point x="467" y="45" type="curve" smooth="yes"/>
      <point x="467" y="524" type="line"/>
      <point x="381" y="524" type="line"/>
      <point x="381" y="251" type="line" smooth="yes"/>
      <point x="381" y="122"/>
      <point x="317" y="103"/>
      <point x="259" y="103" type="curve" smooth="yes"/>
      <point x="203" y="103"/>
      <point x="166" y="148"/>
      <point x="166" y="258" type="curve" smooth="yes"/>
      <point x="166" y="524" type="line"/>
      <point x="79" y="524" type="line"/>
      <point x="79" y="253" type="line" smooth="yes"/>
      <point x="79" y="101"/>
      <point x="184" y="25"/>
      <point x="256" y="25" type="curve" smooth="yes"/>
      <point x="312" y="25"/>
      <point x="361" y="37"/>
      <point x="381" y="84" type="curve"/>
      <point x="381" y="39" type="line" smooth="yes"/>
      <point x="381" y="-49"/>
      <point x="303" y="-90"/>
      <point x="259" y="-90" type="curve" smooth="yes"/>
      <point x="237" y="-90"/>
      <point x="165" y="-65"/>
      <point x="153" y="-16" type="curve"/>
      <point x="68" y="-16" type="line"/>
      <point x="76" y="-113"/>
      <point x="183" y="-164"/>
    </contour>
    <contour>
      <point x="79" y="611" type="line"/>
      <point x="166" y="611" type="line"/>
      <point x="166" y="706" type="line"/>
      <point x="79" y="706" type="line"/>
    </contour>
    <contour>
      <point x="381" y="611" type="line"/>
      <point x="467" y="611" type="line"/>
      <point x="467" y="706" type="line"/>
      <point x="381" y="706" type="line"/>
    </contour>
  </outline>
</glyph>
<glyph name="Eng" format="2">
  <advance width="738"/>
  <unicode hex="014A"/>
  <outline>
    <contour>
      <point x="449" y="-173" type="line"/>
      <point x="506" y="-173" type="line" smooth="yes"/>
      <point x="615" y="-173"/>
      <point x="666" y="-124"/>
      <point x="666" y="-15" type="curve" smooth="yes"/>
      <point x="665" y="707" type="line"/>
      <point x="571" y="707" type="line"/>
      <point x="571" y="159" type="line"/>
      <point x="167" y="707" type="line"/>
      <point x="74" y="707" type="line"/>
      <point x="74" y="0" type="line"/>
      <point x="167" y="0" type="line"/>
      <point x="167" y="547" type="line"/>
      <point x="572" y="0" type="line"/>
      <point x="572" y="-10" type="line" smooth="yes"/>
      <point x="572" y="-72"/>
      <point x="556" y="-95"/>
      <point x="494" y="-95" type="curve" smooth="yes"/>
      <point x="449" y="-95" type="line"/>
    </contour>
  </outline>
</glyph>
<glyph name="eng" format="2">
  <advance width="585"/>
  <unicode hex="014B"/>
  <outline>
    <contour>
      <point x="300" y="-173" type="line"/>
      <point x="357" y="-173" type="line" smooth="yes"/>
      <point x="466" y="-173"/>
      <point x="517" y="-124"/>
      <point x="517" y="-15" type="curve" smooth="yes"/>
      <point x="517" y="330" type="line" smooth="yes"/>
      <point x="517" y="456"/>
      <point x="446" y="530"/>
      <point x="322" y="530" type="curve" smooth="yes"/>
      <point x="249" y="530"/>
      <point x="192" y="503"/>
      <point x="155" y="454" type="curve"/>
      <point x="155" y="524" type="line"/>
      <point x="69" y="524" type="line"/>
      <point x="69" y="0" type="line"/>
      <point x="156" y="0" type="line"/>
      <point x="156" y="307" type="line" smooth="yes"/>
      <point x="156" y="397"/>
      <point x="212" y="453"/>
      <point x="300" y="453" type="curve" smooth="yes"/>
      <point x="386" y="453"/>
      <point x="430" y="408"/>
      <point x="430" y="318" type="curve" smooth="yes"/>
      <point x="430" y="-10" type="line" smooth="yes"/>
      <point x="430" y="-72"/>
      <point x="407" y="-95"/>
      <point x="345" y="-95" type="curve" smooth="yes"/>
      <point x="300" y="-95" type="line"/>
    </contour>
  </outline>
</glyph>
<glyph name="OE" format="2">
  <advance width="1085"/>
  <unicode hex="0152"/>
  <outline>
    <contour>
      <point x="353" y="-9" type="curve" smooth="yes"/>
      <point x="440" y="-10"/>
      <point x="510" y="14"/>
      <point x="561" y="61" type="curve"/>
      <point x="561" y="0" type="line"/>
      <point x="1040" y="0" type="line"/>
      <point x="1040" y="83" type="line"/>
      <point x="651" y="83" type="line"/>
      <point x="651" y="317" type="line"/>
      <point x="984" y="317" type="line"/>
      <point x="984" y="400" type="line"/>
      <point x="651" y="400" type="line"/>
      <point x="651" y="624" type="line"/>
      <point x="1040" y="624" type="line"/>
      <point x="1040" y="707" type="line"/>
      <point x="561" y="707" type="line"/>
      <point x="561" y="647" type="line"/>
      <point x="510" y="694"/>
      <point x="442" y="717"/>
      <point x="355" y="717" type="curve" smooth="yes"/>
      <point x="169" y="717"/>
      <point x="62" y="612"/>
      <point x="62" y="406" type="curve" smooth="yes"/>
      <point x="62" y="302" type="line" smooth="yes"/>
      <point x="62" y="97"/>
      <point x="166" y="-9"/>
    </contour>
    <contour>
      <point x="156" y="301" type="curve" smooth="yes"/>
      <point x="156" y="400" type="line" smooth="yes"/>
      <point x="156" y="559"/>
      <point x="220" y="633"/>
      <point x="357" y="633" type="curve" smooth="yes"/>
      <point x="494" y="633"/>
      <point x="559" y="559"/>
      <point x="559" y="400" type="curve" smooth="yes"/>
      <point x="559" y="301" type="line" smooth="yes"/>
      <point x="559" y="146"/>
      <point x="490" y="75"/>
      <point x="357" y="75" type="curve" smooth="yes"/>
      <point x="221" y="75"/>
      <point x="156" y="147"/>
    </contour>
  </outline>
</glyph>
<glyph name="oe" format="2">
  <advance width="961"/>
  <unicode hex="0153"/>
  <outline>
    <contour>
      <point x="294" y="-9" type="curve" smooth="yes"/>
      <point x="380" y="-9"/>
      <point x="447" y="21"/>
      <point x="489" y="79" type="curve"/>
      <point x="532" y="20"/>
      <point x="598" y="-9"/>
      <point x="689" y="-9" type="curve" smooth="yes"/>
      <point x="818" y="-9"/>
      <point x="902" y="63"/>
      <point x="905" y="165" type="curve" smooth="yes"/>
      <point x="905" y="169" type="line"/>
      <point x="819" y="169" type="line"/>
      <point x="819" y="166" type="line" smooth="yes"/>
      <point x="817" y="107"/>
      <point x="768" y="67"/>
      <point x="691" y="67" type="curve" smooth="yes"/>
      <point x="585" y="67"/>
      <point x="532" y="124"/>
      <point x="532" y="237" type="curve" smooth="yes"/>
      <point x="532" y="241" type="line"/>
      <point x="908" y="241" type="line"/>
      <point x="908" y="302" type="line" smooth="yes"/>
      <point x="908" y="452"/>
      <point x="823" y="535"/>
      <point x="677" y="535" type="curve" smooth="yes"/>
      <point x="593" y="535"/>
      <point x="528" y="505"/>
      <point x="488" y="447" type="curve"/>
      <point x="448" y="505"/>
      <point x="380" y="535"/>
      <point x="294" y="535" type="curve" smooth="yes"/>
      <point x="144" y="535"/>
      <point x="53" y="449"/>
      <point x="53" y="289" type="curve" smooth="yes"/>
      <point x="53" y="237" type="line" smooth="yes"/>
      <point x="53" y="77"/>
      <point x="144" y="-9"/>
    </contour>
    <contour>
      <point x="140" y="239" type="curve" smooth="yes"/>
      <point x="140" y="287" type="line" smooth="yes"/>
      <point x="140" y="400"/>
      <point x="191" y="457"/>
      <point x="293" y="457" type="curve" smooth="yes"/>
      <point x="394" y="457"/>
      <point x="445" y="400"/>
      <point x="445" y="287" type="curve" smooth="yes"/>
      <point x="445" y="239" type="line" smooth="yes"/>
      <point x="445" y="125"/>
      <point x="393" y="68"/>
      <point x="293" y="68" type="curve" smooth="yes"/>
      <point x="191" y="68"/>
      <point x="140" y="125"/>
    </contour>
    <contour>
      <point x="532" y="306" type="line"/>
      <point x="532" y="307" type="line" smooth="yes"/>
      <point x="532" y="408"/>
      <point x="588" y="458"/>
      <point x="678" y="458" type="curve" smooth="yes"/>
      <point x="769" y="458"/>
      <point x="821" y="410"/>
      <point x="821" y="315" type="curve" smooth="yes"/>
      <point x="821" y="306" type="line"/>
    </contour>
  </outline>
</glyph>
<glyph name="tbar" format="2">
  <advance width="392"/>
  <unicode hex="0167"/>
  <outline>
    <component base="t"/>
    <contour>
      <point x="32" y="316" type="line"/>
      <point x="349" y="316" type="line"/>
      <point x="349" y="385" type="line"/>
      <point x="32" y="385" type="line"/>
    </contour>
  </outline>
</glyph>
<glyph name="Uogonek" format="2">
  <advance width="708"/>
  <unicode hex="0172"/>
  <outline>
    <component base="U"/>
    <contour>
      <point x="474" y="-217" type="curve"/>
      <point x="474" y="-132" type="line"/>
      <point x="418" y="-130"/>
      <point x="358" y="-115"/>
      <point x="324" y="-80" type="curve"/>
      <point x="474" y="16" type="line"/>
      <point x="404" y="16" type="line"/>
      <point x="214" y="-56" type="line"/>
      <point x="226" y="-93"/>
      <point x="245" y="-123"/>
      <point x="271" y="-147" type="curve" smooth="yes"/>
      <point x="322" y="-192"/>
      <point x="390" y="-216"/>
    </contour>
  </outline>
</glyph>
<glyph name="uogonek" format="2">
  <advance width="585"/>
  <unicode hex="0173"/>
  <outline>
    <component base="u"/>
    <contour>
      <point x="424" y="-217" type="curve"/>
      <point x="424" y="-132" type="line"/>
      <point x="368" y="-130"/>
      <point x="308" y="-115"/>
      <point x="274" y="-80" type="curve"/>
      <point x="422" y="30" type="line"/>
      <point x="164" y="-55" type="line"/>
      <point x="176" y="-93"/>
      <point x="195" y="-123"/>
      <point x="221" y="-147" type="curve" smooth="yes"/>
      <point x="272" y="-192"/>
      <point x="340" y="-216"/>
    </contour>
  </outline>
</glyph>
<glyph name="florin" format="2">
  <advance width="479"/>
  <unicode hex="0192"/>
  <outline>
    <contour>
      <point x="12" y="-157" type="line"/>
      <point x="63" y="-157" type="line" smooth="yes"/>
      <point x="174" y="-157"/>
      <point x="225" y="-113"/>
      <point x="243" y="14" type="curve" smooth="yes"/>
      <point x="292" y="345" type="line"/>
      <point x="431" y="345" type="line"/>
      <point x="431" y="424" type="line"/>
      <point x="304" y="424" type="line"/>
      <point x="321" y="535" type="line" smooth="yes"/>
      <point x="331" y="603"/>
      <point x="356" y="625"/>
      <point x="416" y="625" type="curve" smooth="yes"/>
      <point x="468" y="625" type="line"/>
      <point x="468" y="707" type="line"/>
      <point x="412" y="707" type="line" smooth="yes"/>
      <point x="299" y="707"/>
      <point x="250" y="659"/>
      <point x="232" y="538" type="curve" smooth="yes"/>
      <point x="215" y="424" type="line"/>
      <point x="97" y="424" type="line"/>
      <point x="97" y="345" type="line"/>
      <point x="203" y="345" type="line"/>
      <point x="155" y="17" type="line" smooth="yes"/>
      <point x="145" y="-53"/>
      <point x="120" y="-74"/>
      <point x="58" y="-74" type="curve" smooth="yes"/>
      <point x="12" y="-74" type="line"/>
    </contour>
  </outline>
</glyph>
<glyph name="lbar" format="2">
  <advance width="309"/>
  <unicode hex="019A"/>
  <outline>
    <component base="l"/>
    <contour>
      <point x="13" y="313" type="line"/>
      <point x="283" y="313" type="line"/>
      <point x="283" y="396" type="line"/>
      <point x="13" y="396" type="line"/>
    </contour>
  </outline>
</glyph>
<glyph name="oogonek" format="2">
  <advance width="585"/>
  <unicode hex="01EB"/>
  <outline>
    <contour>
      <point x="424" y="-218" type="curve"/>
      <point x="424" y="-132" type="line"/>
      <point x="368" y="-131"/>
      <point x="308" y="-116"/>
      <point x="274" y="-81" type="curve"/>
      <point x="396" y="8" type="line"/>
      <point x="483" y="39"/>
      <point x="532" y="119"/>
      <point x="532" y="237" type="curve" smooth="yes"/>
      <point x="532" y="289" type="line" smooth="yes"/>
      <point x="532" y="446"/>
      <point x="445" y="535"/>
      <point x="294" y="535" type="curve" smooth="yes"/>
      <point x="144" y="535"/>
      <point x="53" y="449"/>
      <point x="53" y="289" type="curve" smooth="yes"/>
      <point x="53" y="237" type="line" smooth="yes"/>
      <point x="53" y="70"/>
      <point x="162" y="-15"/>
      <point x="312" y="-9" type="curve"/>
      <point x="164" y="-56" type="line"/>
      <point x="176" y="-93"/>
      <point x="195" y="-124"/>
      <point x="221" y="-147" type="curve" smooth="yes"/>
      <point x="272" y="-193"/>
      <point x="340" y="-216"/>
    </contour>
    <contour>
      <point x="140" y="239" type="curve" smooth="yes"/>
      <point x="140" y="287" type="line" smooth="yes"/>
      <point x="140" y="400"/>
      <point x="191" y="457"/>
      <point x="293" y="457" type="curve" smooth="yes"/>
      <point x="394" y="457"/>
      <point x="445" y="400"/>
      <point x="445" y="287" type="curve" smooth="yes"/>
      <point x="445" y="239" type="line" smooth="yes"/>
      <point x="445" y="125"/>
      <point x="394" y="68"/>
      <point x="293" y="68" type="curve" smooth="yes"/>
      <point x="191" y="68"/>
      <point x="140" y="125"/>
    </contour>
  </outline>
</glyph>
<glyph name="jcaron" format="2">
  <advance width="237"/>
  <unicode hex="01F0"/>
  <outline>
    <contour>
      <point x="-55" y="-157" type="line"/>
      <point x="1" y="-157" type="line" smooth="yes"/>
      <point x="54" y="-157"/>
      <point x="95" y="-144"/>
      <point x="122" y="-117" type="curve" smooth="yes"/>
      <point x="149" y="-91"/>
      <point x="162" y="-52"/>
      <point x="162" y="0" type="curve" smooth="yes"/>
      <point x="162" y="524" type="line"/>
      <point x="75" y="524" type="line"/>
      <point x="75" y="6" type="line" smooth="yes"/>
      <point x="75" y="-25"/>
      <point x="69" y="-46"/>
      <point x="56" y="-59" type="curve" smooth="yes"/>
      <point x="43" y="-72"/>
      <point x="21" y="-79"/>
      <point x="-9" y="-79" type="curve" smooth="yes"/>
      <point x="-55" y="-79" type="line"/>
    </contour>
    <contour>
      <point x="85" y="580" type="line"/>
      <point x="152" y="580" type="line"/>
      <point x="286" y="729" type="line"/>
      <point x="204" y="729" type="line"/>
      <point x="119" y="637" type="line"/>
      <point x="33" y="729" type="line"/>
      <point x="-49" y="729" type="line"/>
    </contour>
  </outline>
</glyph>
<glyph name="dotlessj" format="2">
  <advance width="237"/>
  <unicode hex="0237"/>
  <anchor x="119" y="524" name="top"/>
  <outline>
    <contour>
      <point x="-55" y="-79" type="line"/>
      <point x="-9" y="-79" type="line" smooth="yes"/>
      <point x="21" y="-79"/>
      <point x="43" y="-72"/>
      <point x="56" y="-59" type="curve" smooth="yes"/>
      <point x="69" y="-46"/>
      <point x="75" y="-25"/>
      <point x="75" y="6" type="curve" smooth="yes"/>
      <point x="75" y="524" type="line"/>
      <point x="162" y="524" type="line"/>
      <point x="162" y="0" type="line" smooth="yes"/>
      <point x="162" y="-52"/>
      <point x="149" y="-91"/>
      <point x="122" y="-117" type="curve" smooth="yes"/>
      <point x="95" y="-144"/>
      <point x="54" y="-157"/>
      <point x="1" y="-157" type="curve" smooth="yes"/>
      <point x="-55" y="-157" type="line"/>
    </contour>
  </outline>
</glyph>
<glyph name="breve" format="2">
  <advance width="512"/>
  <unicode hex="02D8"/>
  <outline>
    <contour>
      <point x="255" y="573" type="curve" smooth="yes"/>
      <point x="152" y="573"/>
      <point x="98" y="621"/>
      <point x="98" y="707" type="curve" smooth="yes"/>
      <point x="98" y="725" type="line"/>
      <point x="179" y="725" type="line"/>
      <point x="179" y="707" type="line" smooth="yes"/>
      <point x="179" y="657"/>
      <point x="204" y="633"/>
      <point x="255" y="633" type="curve" smooth="yes"/>
      <point x="306" y="633"/>
      <point x="331" y="657"/>
      <point x="331" y="707" type="curve" smooth="yes"/>
      <point x="331" y="725" type="line"/>
      <point x="412" y="725" type="line"/>
      <point x="412" y="707" type="line" smooth="yes"/>
      <point x="412" y="621"/>
      <point x="358" y="573"/>
    </contour>
  </outline>
</glyph>
<glyph name="dotaccent" format="2">
  <advance width="512"/>
  <unicode hex="02D9"/>
  <outline>
    <contour>
      <point x="212" y="606" type="line"/>
      <point x="300" y="606" type="line"/>
      <point x="300" y="701" type="line"/>
      <point x="212" y="701" type="line"/>
    </contour>
  </outline>
</glyph>
<glyph name="ring" format="2">
  <advance width="512"/>
  <unicode hex="02DA"/>
  <outline>
    <contour>
      <point x="256" y="578" type="curve" smooth="yes"/>
      <point x="309" y="578"/>
      <point x="352" y="618"/>
      <point x="352" y="674" type="curve" smooth="yes"/>
      <point x="352" y="731"/>
      <point x="309" y="772"/>
      <point x="256" y="772" type="curve" smooth="yes"/>
      <point x="199" y="772"/>
      <point x="159" y="729"/>
      <point x="159" y="674" type="curve" smooth="yes"/>
      <point x="159" y="620"/>
      <point x="200" y="578"/>
    </contour>
    <contour>
      <point x="204" y="674" type="curve" smooth="yes"/>
      <point x="204" y="703"/>
      <point x="224" y="728"/>
      <point x="256" y="728" type="curve" smooth="yes"/>
      <point x="286" y="728"/>
      <point x="307" y="704"/>
      <point x="307" y="674" type="curve" smooth="yes"/>
      <point x="307" y="642"/>
      <point x="284" y="622"/>
      <point x="256" y="622" type="curve" smooth="yes"/>
      <point x="226" y="622"/>
      <point x="204" y="644"/>
    </contour>
  </outline>
</glyph>
<glyph name="ogonek" format="2">
  <advance width="512"/>
  <unicode hex="02DB"/>
  <outline>
    <contour>
      <point x="424" y="-217" type="curve"/>
      <point x="424" y="-132" type="line"/>
      <point x="368" y="-130"/>
      <point x="308" y="-115"/>
      <point x="274" y="-80" type="curve"/>
      <point x="424" y="0" type="line"/>
      <point x="424" y="16" type="line"/>
      <point x="354" y="16" type="line"/>
      <point x="164" y="-56" type="line"/>
      <point x="176" y="-93"/>
      <point x="195" y="-123"/>
      <point x="221" y="-147" type="curve" smooth="yes"/>
      <point x="272" y="-192"/>
      <point x="340" y="-216"/>
    </contour>
  </outline>
</glyph>
<glyph name="tildecomb" format="2">
  <unicode hex="0303"/>
  <outline>
    <contour>
      <point x="-151" y="584" type="line"/>
      <point x="-122" y="609"/>
      <point x="-103" y="623"/>
      <point x="-72" y="623" type="curve" smooth="yes"/>
      <point x="-48" y="623"/>
      <point x="-34" y="616"/>
      <point x="-8" y="604" type="curve" smooth="yes"/>
      <point x="18" y="590"/>
      <point x="36" y="584"/>
      <point x="66" y="584" type="curve" smooth="yes"/>
      <point x="98" y="584"/>
      <point x="126" y="596"/>
      <point x="150" y="621" type="curve"/>
      <point x="150" y="694" type="line"/>
      <point x="119" y="667"/>
      <point x="102" y="655"/>
      <point x="71" y="655" type="curve" smooth="yes"/>
      <point x="47" y="655"/>
      <point x="32" y="662"/>
      <point x="6" y="674" type="curve" smooth="yes"/>
      <point x="-20" y="688"/>
      <point x="-41" y="694"/>
      <point x="-67" y="694" type="curve" smooth="yes"/>
      <point x="-99" y="694"/>
      <point x="-125" y="682"/>
      <point x="-151" y="656" type="curve"/>
    </contour>
  </outline>
</glyph>
<glyph name="macroncmb" format="2">
  <unicode hex="0304"/>
  <outline>
    <contour>
      <point x="-157" y="604" type="line"/>
      <point x="156" y="604" type="line"/>
      <point x="156" y="683" type="line"/>
      <point x="-157" y="683" type="line"/>
    </contour>
  </outline>
</glyph>
<glyph name="brevecmb" format="2">
  <unicode hex="0306"/>
  <outline>
    <contour>
      <point x="0" y="573" type="curve" smooth="yes"/>
      <point x="103" y="573"/>
      <point x="157" y="621"/>
      <point x="157" y="707" type="curve" smooth="yes"/>
      <point x="157" y="725" type="line"/>
      <point x="76" y="725" type="line"/>
      <point x="76" y="707" type="line" smooth="yes"/>
      <point x="76" y="657"/>
      <point x="51" y="633"/>
      <point x="0" y="633" type="curve" smooth="yes"/>
      <point x="-51" y="633"/>
      <point x="-76" y="657"/>
      <point x="-76" y="707" type="curve" smooth="yes"/>
      <point x="-76" y="725" type="line"/>
      <point x="-157" y="725" type="line"/>
      <point x="-157" y="707" type="line" smooth="yes"/>
      <point x="-157" y="621"/>
      <point x="-103" y="573"/>
    </contour>
  </outline>
</glyph>
<glyph name="ringcmb" format="2">
  <unicode hex="030A"/>
  <outline>
    <contour>
      <point x="0" y="581" type="curve" smooth="yes"/>
      <point x="55" y="581"/>
      <point x="96" y="622"/>
      <point x="96" y="677" type="curve" smooth="yes"/>
      <point x="96" y="733"/>
      <point x="54" y="774"/>
      <point x="0" y="774" type="curve" smooth="yes"/>
      <point x="-57" y="774"/>
      <point x="-96" y="732"/>
      <point x="-96" y="677" type="curve" smooth="yes"/>
      <point x="-96" y="621"/>
      <point x="-56" y="581"/>
    </contour>
    <contour>
      <point x="-51" y="677" type="curve" smooth="yes"/>
      <point x="-51" y="707"/>
      <point x="-30" y="730"/>
      <point x="0" y="730" type="curve" smooth="yes"/>
      <point x="31" y="730"/>
      <point x="51" y="708"/>
      <point x="51" y="677" type="curve" smooth="yes"/>
      <point x="51" y="647"/>
      <point x="30" y="624"/>
      <point x="0" y="624" type="curve" smooth="yes"/>
      <point x="-30" y="624"/>
      <point x="-51" y="647"/>
    </contour>
  </outline>
</glyph>
<glyph name="caroncmb" format="2">
  <unicode hex="030C"/>
  <outline>
    <contour>
      <point x="-34" y="580" type="line"/>
      <point x="33" y="580" type="line"/>
      <point x="167" y="729" type="line"/>
      <point x="85" y="729" type="line"/>
      <point x="0" y="637" type="line"/>
      <point x="-86" y="729" type="line"/>
      <point x="-168" y="729" type="line"/>
    </contour>
  </outline>
</glyph>
<glyph name="dotbelowcomb" format="2">
  <unicode hex="0323"/>
  <outline>
    <contour>
      <point x="-44" y="-181" type="line"/>
      <point x="44" y="-181" type="line"/>
      <point x="44" y="-86" type="line"/>
      <point x="-44" y="-86" type="line"/>
    </contour>
  </outline>
</glyph>
<glyph name="commaaccentcomb" format="2">
  <unicode hex="0326"/>
  <outline>
    <contour>
      <point x="-41" y="-173" type="line"/>
      <point x="42" y="-99" type="line"/>
      <point x="42" y="-30" type="line"/>
      <point x="-41" y="-30" type="line"/>
    </contour>
  </outline>
</glyph>
<glyph name="ogonekcmb" format="2">
  <unicode hex="0328"/>
  <anchor x="0" y="0" name="_bottom"/>
  <outline>
    <contour>
      <point x="57" y="-234" type="curve"/>
      <point x="57" y="-149" type="line"/>
      <point x="1" y="-147"/>
      <point x="-59" y="-132"/>
      <point x="-93" y="-97" type="curve"/>
      <point x="57" y="-7" type="line"/>
      <point x="57" y="4" type="line"/>
      <point x="-13" y="-1" type="line"/>
      <point x="-203" y="-73" type="line"/>
      <point x="-191" y="-110"/>
      <point x="-172" y="-140"/>
      <point x="-146" y="-164" type="curve" smooth="yes"/>
      <point x="-95" y="-209"/>
      <point x="-27" y="-233"/>
    </contour>
  </outline>
</glyph>
<glyph name="alpha" format="2">
  <advance width="770"/>
  <unicode hex="03B1"/>
  <outline>
    <contour>
      <point x="317" y="-6" type="curve" smooth="yes"/>
      <point x="416" y="-6"/>
      <point x="495" y="24"/>
      <point x="533" y="89" type="curve"/>
      <point x="573" y="39"/>
      <point x="638" y="16"/>
      <point x="723" y="15" type="curve"/>
      <point x="723" y="76" type="line"/>
      <point x="638" y="78"/>
      <point x="581" y="113"/>
      <point x="581" y="216" type="curve" smooth="yes"/>
      <point x="581" y="304" type="line" smooth="yes"/>
      <point x="581" y="406"/>
      <point x="637" y="441"/>
      <point x="723" y="443" type="curve"/>
      <point x="723" y="505" type="line"/>
      <point x="638" y="504"/>
      <point x="573" y="481"/>
      <point x="533" y="431" type="curve"/>
      <point x="495" y="496"/>
      <point x="416" y="526"/>
      <point x="317" y="526" type="curve" smooth="yes"/>
      <point x="164" y="526"/>
      <point x="69" y="460"/>
      <point x="69" y="313" type="curve" smooth="yes"/>
      <point x="69" y="207" type="line" smooth="yes"/>
      <point x="69" y="60"/>
      <point x="164" y="-6"/>
    </contour>
    <contour>
      <point x="155" y="211" type="curve" smooth="yes"/>
      <point x="155" y="309" type="line" smooth="yes"/>
      <point x="155" y="422"/>
      <point x="216" y="463"/>
      <point x="317" y="463" type="curve" smooth="yes"/>
      <point x="412" y="463"/>
      <point x="474" y="424"/>
      <point x="474" y="309" type="curve" smooth="yes"/>
      <point x="474" y="211" type="line" smooth="yes"/>
      <point x="474" y="96"/>
      <point x="412" y="56"/>
      <point x="317" y="56" type="curve" smooth="yes"/>
      <point x="216" y="56"/>
      <point x="155" y="98"/>
    </contour>
  </outline>
</glyph>
<glyph name="Djecyr" format="2">
  <advance width="803"/>
  <unicode hex="0402"/>
  <anchor x="243" y="0" name="b.cedilla"/>
  <anchor x="282" y="-86" name="bottom"/>
  <anchor x="248" y="760" name="top"/>
  <outline>
    <contour>
      <point x="236" y="0" type="line"/>
      <point x="328" y="0" type="line"/>
      <point x="328" y="340" type="line"/>
      <point x="502" y="340" type="line" smooth="yes"/>
      <point x="604" y="340"/>
      <point x="649" y="301"/>
      <point x="649" y="213" type="curve" smooth="yes"/>
      <point x="649" y="121"/>
      <point x="604" y="84"/>
      <point x="496" y="83" type="curve" smooth="yes"/>
      <point x="440" y="83" type="line"/>
      <point x="440" y="0" type="line"/>
      <point x="500" y="0" type="line" smooth="yes"/>
      <point x="658" y="0"/>
      <point x="743" y="74"/>
      <point x="743" y="212" type="curve" smooth="yes"/>
      <point x="743" y="349"/>
      <point x="658" y="423"/>
      <point x="500" y="423" type="curve" smooth="yes"/>
      <point x="328" y="423" type="line"/>
      <point x="328" y="624" type="line"/>
      <point x="556" y="624" type="line"/>
      <point x="556" y="707" type="line"/>
      <point x="7" y="707" type="line"/>
      <point x="7" y="624" type="line"/>
      <point x="236" y="624" type="line"/>
    </contour>
  </outline>
</glyph>
<glyph name="Ljecyr" format="2">
  <advance width="1033"/>
  <unicode hex="0409"/>
  <outline>
    <component base="Elcyr"/>
    <contour>
      <point x="497" y="0" type="line"/>
      <point x="730" y="0" type="line" smooth="yes"/>
      <point x="888" y="0"/>
      <point x="973" y="74"/>
      <point x="973" y="212" type="curve" smooth="yes"/>
      <point x="973" y="349"/>
      <point x="888" y="423"/>
      <point x="730" y="423" type="curve" smooth="yes"/>
      <point x="497" y="423" type="line"/>
      <point x="497" y="340" type="line"/>
      <point x="732" y="340" type="line" smooth="yes"/>
      <point x="834" y="340"/>
      <point x="879" y="301"/>
      <point x="879" y="213" type="curve" smooth="yes"/>
      <point x="879" y="121"/>
      <point x="834" y="83"/>
      <point x="726" y="83" type="curve" smooth="yes"/>
      <point x="497" y="83" type="line"/>
    </contour>
  </outline>
</glyph>
<glyph name="Zhecyr" format="2">
  <advance width="1139"/>
  <unicode hex="0416"/>
  <outline>
    <contour>
      <point x="10" y="0" type="line"/>
      <point x="122" y="0" type="line"/>
      <point x="371" y="319" type="line"/>
      <point x="523" y="319" type="line"/>
      <point x="523" y="0" type="line"/>
      <point x="616" y="0" type="line"/>
      <point x="616" y="319" type="line"/>
      <point x="768" y="319" type="line"/>
      <point x="1017" y="0" type="line"/>
      <point x="1129" y="0" type="line"/>
      <point x="846" y="371" type="line"/>
      <point x="1096" y="707" type="line"/>
      <point x="993" y="707" type="line"/>
      <point x="764" y="401" type="line"/>
      <point x="616" y="401" type="line"/>
      <point x="616" y="707" type="line"/>
      <point x="523" y="707" type="line"/>
      <point x="523" y="401" type="line"/>
      <point x="375" y="401" type="line"/>
      <point x="146" y="707" type="line"/>
      <point x="43" y="707" type="line"/>
      <point x="293" y="371" type="line"/>
    </contour>
  </outline>
</glyph>
<glyph name="Kacyr" format="2">
  <advance width="687"/>
  <unicode hex="041A"/>
  <guideline x="324" y="0" angle="90" name="h1"/>
  <anchor x="324" y="760" name="top"/>
  <outline>
    <contour>
      <point x="74" y="0" type="line"/>
      <point x="167" y="0" type="line"/>
      <point x="167" y="319" type="line"/>
      <point x="319" y="319" type="line"/>
      <point x="568" y="0" type="line"/>
      <point x="680" y="0" type="line"/>
      <point x="397" y="371" type="line"/>
      <point x="647" y="707" type="line"/>
      <point x="544" y="707" type="line"/>
      <point x="315" y="401" type="line"/>
      <point x="167" y="401" type="line"/>
      <point x="167" y="707" type="line"/>
      <point x="74" y="707" type="line"/>
    </contour>
  </outline>
</glyph>
<glyph name="Pecyr" format="2">
  <advance width="675"/>
  <unicode hex="041F"/>
  <outline>
    <contour>
      <point x="74" y="0" type="line"/>
      <point x="167" y="0" type="line"/>
      <point x="167" y="624" type="line"/>
      <point x="508" y="624" type="line"/>
      <point x="508" y="0" type="line"/>
      <point x="601" y="0" type="line"/>
      <point x="601" y="707" type="line"/>
      <point x="74" y="707" type="line"/>
    </contour>
  </outline>
</glyph>
<glyph name="Ucyr" format="2">
  <advance width="594"/>
  <unicode hex="0423"/>
  <guideline x="297" y="0" angle="90" name="h1"/>
  <anchor x="297" y="760" name="top"/>
  <outline>
    <contour>
      <point x="98" y="0" type="line"/>
      <point x="130" y="0" type="line" smooth="yes"/>
      <point x="205" y="0"/>
      <point x="264" y="47"/>
      <point x="312" y="145" type="curve" smooth="yes"/>
      <point x="588" y="707" type="line"/>
      <point x="483" y="707" type="line"/>
      <point x="302" y="312" type="line"/>
      <point x="111" y="707" type="line"/>
      <point x="6" y="707" type="line"/>
      <point x="251" y="212" type="line"/>
      <point x="240" y="188" type="line" smooth="yes"/>
      <point x="211" y="127"/>
      <point x="158" y="80"/>
      <point x="119" y="80" type="curve" smooth="yes"/>
      <point x="98" y="80" type="line"/>
    </contour>
  </outline>
</glyph>
<glyph name="Efcyr" format="2">
  <advance width="765"/>
  <unicode hex="0424"/>
  <guideline x="613" y="0" angle="90" name="h1"/>
  <anchor x="613" y="760" name="top"/>
  <outline>
    <contour>
      <point x="338" y="0" type="line"/>
      <point x="431" y="0" type="line"/>
      <point x="431" y="41" type="line"/>
      <point x="611" y="49"/>
      <point x="705" y="156"/>
      <point x="705" y="352" type="curve" smooth="yes"/>
      <point x="705" y="366" type="line" smooth="yes"/>
      <point x="705" y="561"/>
      <point x="608" y="669"/>
      <point x="431" y="677" type="curve"/>
      <point x="431" y="707" type="line"/>
      <point x="338" y="707" type="line"/>
      <point x="338" y="677" type="line"/>
      <point x="158" y="669"/>
      <point x="63" y="561"/>
      <point x="63" y="366" type="curve" smooth="yes"/>
      <point x="63" y="352" type="line" smooth="yes"/>
      <point x="63" y="157"/>
      <point x="161" y="49"/>
      <point x="338" y="41" type="curve"/>
    </contour>
    <contour>
      <point x="338" y="126" type="line"/>
      <point x="215" y="132"/>
      <point x="157" y="205"/>
      <point x="157" y="351" type="curve" smooth="yes"/>
      <point x="157" y="360" type="line" smooth="yes"/>
      <point x="157" y="511"/>
      <point x="215" y="585"/>
      <point x="338" y="592" type="curve"/>
    </contour>
    <contour>
      <point x="431" y="126" type="curve"/>
      <point x="431" y="592" type="line"/>
      <point x="554" y="585"/>
      <point x="613" y="510"/>
      <point x="613" y="360" type="curve" smooth="yes"/>
      <point x="613" y="351" type="line" smooth="yes"/>
      <point x="613" y="206"/>
      <point x="554" y="132"/>
    </contour>
  </outline>
</glyph>
<glyph name="Shacyr" format="2">
  <advance width="836"/>
  <unicode hex="0428"/>
  <guideline x="75" y="0" angle="90"/>
  <guideline x="169" y="0" angle="90"/>
  <guideline x="371" y="0" angle="90"/>
  <guideline x="465" y="0" angle="90"/>
  <guideline x="667" y="0" angle="90"/>
  <guideline x="761" y="0" angle="90"/>
  <guideline x="0" y="707" angle="0"/>
  <anchor x="677" y="695" name="top"/>
  <outline>
    <contour>
      <point x="75" y="0" type="line"/>
      <point x="761" y="0" type="line"/>
      <point x="761" y="707" type="line"/>
      <point x="667" y="707" type="line"/>
      <point x="667" y="83" type="line"/>
      <point x="465" y="83" type="line"/>
      <point x="465" y="707" type="line"/>
      <point x="371" y="707" type="line"/>
      <point x="371" y="83" type="line"/>
      <point x="169" y="83" type="line"/>
      <point x="169" y="707" type="line"/>
      <point x="75" y="707" type="line"/>
    </contour>
  </outline>
</glyph>
<glyph name="Shchacyr" format="2">
  <advance width="851"/>
  <unicode hex="0429"/>
  <outline>
    <contour>
      <point x="75" y="707" type="line"/>
      <point x="169" y="707" type="line"/>
      <point x="169" y="83" type="line"/>
      <point x="371" y="83" type="line"/>
      <point x="371" y="707" type="line"/>
      <point x="465" y="707" type="line"/>
      <point x="465" y="83" type="line"/>
      <point x="667" y="83" type="line"/>
      <point x="667" y="707" type="line"/>
      <point x="761" y="707" type="line"/>
      <point x="761" y="83" type="line"/>
      <point x="840" y="83" type="line"/>
      <point x="840" y="-170" type="line"/>
      <point x="747" y="-170" type="line"/>
      <point x="747" y="0" type="line"/>
      <point x="75" y="0" type="line"/>
    </contour>
  </outline>
</glyph>
<glyph name="Ereversedcyr" format="2">
  <advance width="694"/>
  <unicode hex="042D"/>
  <guideline x="336" y="0" angle="90" name="h1"/>
  <anchor x="336" y="760" name="top"/>
  <outline>
    <contour>
      <point x="340" y="-9" type="curve" smooth="yes"/>
      <point x="529" y="-9"/>
      <point x="636" y="97"/>
      <point x="636" y="302" type="curve" smooth="yes"/>
      <point x="636" y="406" type="line" smooth="yes"/>
      <point x="636" y="612"/>
      <point x="528" y="717"/>
      <point x="338" y="717" type="curve" smooth="yes"/>
      <point x="167" y="717"/>
      <point x="62" y="633"/>
      <point x="62" y="492" type="curve" smooth="yes"/>
      <point x="62" y="486" type="line"/>
      <point x="155" y="486" type="line"/>
      <point x="155" y="490" type="line" smooth="yes"/>
      <point x="155" y="582"/>
      <point x="221" y="633"/>
      <point x="339" y="633" type="curve" smooth="yes"/>
      <point x="478" y="633"/>
      <point x="542" y="560"/>
      <point x="542" y="402" type="curve" smooth="yes"/>
      <point x="542" y="401" type="line"/>
      <point x="264" y="401" type="line"/>
      <point x="264" y="319" type="line"/>
      <point x="542" y="319" type="line"/>
      <point x="542" y="301" type="line" smooth="yes"/>
      <point x="542" y="148"/>
      <point x="477" y="75"/>
      <point x="338" y="75" type="curve" smooth="yes"/>
      <point x="222" y="75"/>
      <point x="155" y="122"/>
      <point x="155" y="218" type="curve" smooth="yes"/>
      <point x="155" y="222" type="line"/>
      <point x="63" y="222" type="line"/>
      <point x="63" y="217" type="line" smooth="yes"/>
      <point x="63" y="74"/>
      <point x="171" y="-9"/>
    </contour>
  </outline>
</glyph>
<glyph name="Yacyr" format="2">
  <advance width="680"/>
  <unicode hex="042F"/>
  <guideline x="386" y="0" angle="90" name="h1"/>
  <anchor x="386" y="760" name="top"/>
  <outline>
    <contour>
      <point x="37" y="0" type="line"/>
      <point x="143" y="0" type="line"/>
      <point x="308" y="301" type="line"/>
      <point x="513" y="301" type="line"/>
      <point x="513" y="0" type="line"/>
      <point x="606" y="0" type="line"/>
      <point x="606" y="707" type="line"/>
      <point x="298" y="707" type="line" smooth="yes"/>
      <point x="142" y="707"/>
      <point x="57" y="634"/>
      <point x="57" y="504" type="curve" smooth="yes"/>
      <point x="57" y="401"/>
      <point x="111" y="334"/>
      <point x="212" y="310" type="curve"/>
    </contour>
    <contour>
      <point x="151" y="504" type="curve" smooth="yes"/>
      <point x="151" y="585"/>
      <point x="199" y="624"/>
      <point x="302" y="624" type="curve" smooth="yes"/>
      <point x="513" y="624" type="line"/>
      <point x="513" y="382" type="line"/>
      <point x="296" y="382" type="line" smooth="yes"/>
      <point x="197" y="382"/>
      <point x="151" y="419"/>
    </contour>
  </outline>
</glyph>
<glyph name="decyr" format="2">
  <advance width="573"/>
  <unicode hex="0434"/>
  <guideline x="90" y="524" angle="265.156"/>
  <guideline x="157" y="256" angle="85.7321"/>
  <outline>
    <contour>
      <point x="20" y="-170" type="line"/>
      <point x="107" y="-170" type="line"/>
      <point x="107" y="0" type="line"/>
      <point x="466" y="0" type="line"/>
      <point x="466" y="-170" type="line"/>
      <point x="553" y="-170" type="line"/>
      <point x="553" y="79" type="line"/>
      <point x="498" y="79" type="line"/>
      <point x="498" y="524" type="line"/>
      <point x="130" y="524" type="line"/>
      <point x="99" y="161" type="line" smooth="yes"/>
      <point x="93" y="91"/>
      <point x="68" y="79"/>
      <point x="49" y="79" type="curve"/>
      <point x="20" y="79" type="line"/>
    </contour>
    <contour>
      <point x="175" y="79" type="line"/>
      <point x="182" y="98"/>
      <point x="186" y="119"/>
      <point x="188" y="140" type="curve" smooth="yes"/>
      <point x="211" y="445" type="line"/>
      <point x="411" y="445" type="line"/>
      <point x="411" y="79" type="line"/>
    </contour>
  </outline>
</glyph>
<glyph name="zhecyr" format="2">
  <advance width="909"/>
  <unicode hex="0436"/>
  <outline>
    <component base="kacyr" xOffset="342"/>
    <contour>
      <point x="13" y="0" type="line"/>
      <point x="116" y="0" type="line"/>
      <point x="287" y="243" type="line"/>
      <point x="431" y="243" type="line"/>
      <point x="431" y="322" type="line"/>
      <point x="329" y="322" type="line"/>
      <point x="130" y="524" type="line"/>
      <point x="21" y="524" type="line"/>
      <point x="234" y="312" type="line"/>
    </contour>
  </outline>
</glyph>
<glyph name="icyr" format="2">
  <advance width="615"/>
  <unicode hex="0438"/>
  <guideline x="302" y="0" angle="90" name="h1"/>
  <anchor x="302" y="586" name="top"/>
  <outline>
    <contour>
      <point x="69" y="0" type="line"/>
      <point x="166" y="0" type="line"/>
      <point x="459" y="408" type="line"/>
      <point x="459" y="0" type="line"/>
      <point x="546" y="0" type="line"/>
      <point x="546" y="524" type="line"/>
      <point x="449" y="524" type="line"/>
      <point x="156" y="116" type="line"/>
      <point x="156" y="524" type="line"/>
      <point x="69" y="524" type="line"/>
    </contour>
  </outline>
</glyph>
<glyph name="kacyr" format="2">
  <advance width="567"/>
  <unicode hex="043A"/>
  <guideline x="0" y="343" angle="0"/>
  <guideline x="0" y="258" angle="0"/>
  <guideline x="0" y="277" angle="0"/>
  <guideline x="265" y="0" angle="90" name="h1"/>
  <anchor x="265" y="586" name="top"/>
  <outline>
    <contour>
      <point x="69" y="0" type="line"/>
      <point x="156" y="0" type="line"/>
      <point x="156" y="243" type="line"/>
      <point x="280" y="243" type="line"/>
      <point x="451" y="0" type="line"/>
      <point x="554" y="0" type="line"/>
      <point x="333" y="312" type="line"/>
      <point x="546" y="524" type="line"/>
      <point x="437" y="524" type="line"/>
      <point x="238" y="322" type="line"/>
      <point x="156" y="322" type="line"/>
      <point x="156" y="524" type="line"/>
      <point x="69" y="524" type="line"/>
    </contour>
  </outline>
</glyph>
<glyph name="elcyr" format="2">
  <advance width="529"/>
  <unicode hex="043B"/>
  <guideline x="92" y="524" angle="265.119"/>
  <guideline x="150" y="140" angle="85.6812"/>
  <outline>
    <contour>
      <point x="11" y="0" type="line"/>
      <point x="96" y="0"/>
      <point x="143" y="47"/>
      <point x="150" y="140" type="curve" smooth="yes"/>
      <point x="173" y="445" type="line"/>
      <point x="373" y="445" type="line"/>
      <point x="373" y="0" type="line"/>
      <point x="460" y="0" type="line"/>
      <point x="460" y="524" type="line"/>
      <point x="92" y="524" type="line"/>
      <point x="61" y="161" type="line" smooth="yes"/>
      <point x="55" y="91"/>
      <point x="30" y="79"/>
      <point x="11" y="79" type="curve"/>
    </contour>
  </outline>
</glyph>
<glyph name="tecyr" format="2">
  <advance width="374"/>
  <unicode hex="0442"/>
  <guideline x="204" y="0" angle="90" name="h1"/>
  <anchor x="187" y="586" name="top"/>
  <outline>
    <contour>
      <point x="7" y="524" type="line"/>
      <point x="367" y="524" type="line"/>
      <point x="367" y="445" type="line"/>
      <point x="230" y="445" type="line"/>
      <point x="230" y="0" type="line"/>
      <point x="143" y="0" type="line"/>
      <point x="143" y="445" type="line"/>
      <point x="7" y="445" type="line"/>
    </contour>
  </outline>
</glyph>
<glyph name="tsecyr" format="2">
  <advance width="582"/>
  <unicode hex="0446"/>
  <outline>
    <contour>
      <point x="485" y="-170" type="line"/>
      <point x="572" y="-170" type="line"/>
      <point x="572" y="79" type="line"/>
      <point x="517" y="79" type="line"/>
      <point x="517" y="524" type="line"/>
      <point x="430" y="524" type="line"/>
      <point x="430" y="79" type="line"/>
      <point x="156" y="79" type="line"/>
      <point x="156" y="524" type="line"/>
      <point x="69" y="524" type="line"/>
      <point x="69" y="0" type="line"/>
      <point x="485" y="0" type="line"/>
    </contour>
  </outline>
</glyph>
<glyph name="shchacyr" format="2">
  <advance width="781"/>
  <unicode hex="0449"/>
  <outline>
    <contour>
      <point x="684" y="-170" type="line"/>
      <point x="771" y="-170" type="line"/>
      <point x="771" y="79" type="line"/>
      <point x="716" y="79" type="line"/>
      <point x="716" y="524" type="line"/>
      <point x="629" y="524" type="line"/>
      <point x="629" y="79" type="line"/>
      <point x="436" y="79" type="line"/>
      <point x="436" y="524" type="line"/>
      <point x="349" y="524" type="line"/>
      <point x="349" y="79" type="line"/>
      <point x="156" y="79" type="line"/>
      <point x="156" y="524" type="line"/>
      <point x="69" y="524" type="line"/>
      <point x="69" y="0" type="line"/>
      <point x="684" y="0" type="line"/>
    </contour>
  </outline>
</glyph>
<glyph name="hardcyr" format="2">
  <advance width="680"/>
  <unicode hex="044A"/>
  <outline>
    <contour>
      <point x="0" y="524" type="line"/>
      <point x="266" y="524" type="line"/>
      <point x="266" y="322" type="line"/>
      <point x="484" y="322" type="line" smooth="yes"/>
      <point x="594" y="322"/>
      <point x="627" y="244"/>
      <point x="627" y="161" type="curve" smooth="yes"/>
      <point x="627" y="65"/>
      <point x="567" y="0"/>
      <point x="478" y="0" type="curve" smooth="yes"/>
      <point x="179" y="0" type="line"/>
      <point x="179" y="445" type="line"/>
      <point x="0" y="445" type="line"/>
    </contour>
    <contour>
      <point x="473" y="243" type="curve" smooth="yes"/>
      <point x="266" y="243" type="line"/>
      <point x="266" y="79" type="line"/>
      <point x="463" y="79" type="line" smooth="yes"/>
      <point x="510" y="79"/>
      <point x="540" y="113"/>
      <point x="540" y="168" type="curve" smooth="yes"/>
      <point x="540" y="201"/>
      <point x="517" y="243"/>
    </contour>
  </outline>
</glyph>
<glyph name="softcyr" format="2">
  <advance width="570"/>
  <unicode hex="044C"/>
  <outline>
    <contour>
      <point x="69" y="524" type="line"/>
      <point x="156" y="524" type="line"/>
      <point x="156" y="322" type="line"/>
      <point x="374" y="322" type="line" smooth="yes"/>
      <point x="484" y="322"/>
      <point x="517" y="244"/>
      <point x="517" y="161" type="curve" smooth="yes"/>
      <point x="517" y="65"/>
      <point x="457" y="0"/>
      <point x="368" y="0" type="curve" smooth="yes"/>
      <point x="69" y="0" type="line"/>
    </contour>
    <contour>
      <point x="363" y="243" type="curve" smooth="yes"/>
      <point x="156" y="243" type="line"/>
      <point x="156" y="79" type="line"/>
      <point x="353" y="79" type="line" smooth="yes"/>
      <point x="400" y="79"/>
      <point x="430" y="113"/>
      <point x="430" y="168" type="curve" smooth="yes"/>
      <point x="430" y="201"/>
      <point x="407" y="243"/>
    </contour>
  </outline>
</glyph>
<glyph name="ereversedcyr" format="2">
  <advance width="566"/>
  <unicode hex="044D"/>
  <guideline x="273" y="0" angle="90" name="h1"/>
  <anchor x="273" y="586" name="top"/>
  <outline>
    <contour>
      <point x="272" y="-9" type="curve" smooth="yes"/>
      <point x="425" y="-9"/>
      <point x="513" y="78"/>
      <point x="513" y="237" type="curve" smooth="yes"/>
      <point x="513" y="289" type="line" smooth="yes"/>
      <point x="513" y="448"/>
      <point x="424" y="535"/>
      <point x="273" y="535" type="curve" smooth="yes"/>
      <point x="135" y="535"/>
      <point x="53" y="462"/>
      <point x="53" y="344" type="curve" smooth="yes"/>
      <point x="53" y="339" type="line"/>
      <point x="138" y="339" type="line"/>
      <point x="138" y="344" type="line" smooth="yes"/>
      <point x="138" y="414"/>
      <point x="186" y="457"/>
      <point x="272" y="457" type="curve" smooth="yes"/>
      <point x="364" y="457"/>
      <point x="414" y="412"/>
      <point x="424" y="323" type="curve"/>
      <point x="424" y="322" type="line"/>
      <point x="239" y="322" type="line"/>
      <point x="239" y="243" type="line"/>
      <point x="426" y="243" type="line"/>
      <point x="426" y="239" type="line" smooth="yes"/>
      <point x="426" y="125"/>
      <point x="375" y="68"/>
      <point x="272" y="68" type="curve" smooth="yes"/>
      <point x="187" y="68"/>
      <point x="138" y="108"/>
      <point x="138" y="179" type="curve" smooth="yes"/>
      <point x="138" y="183" type="line"/>
      <point x="53" y="183" type="line"/>
      <point x="53" y="179" type="line" smooth="yes"/>
      <point x="53" y="62"/>
      <point x="135" y="-9"/>
    </contour>
  </outline>
</glyph>
<glyph name="yucyr" format="2">
  <advance width="765"/>
  <unicode hex="044E"/>
  <guideline x="112" y="0" angle="90" name="h1"/>
  <guideline x="443" y="0" angle="90" name="h1"/>
  <anchor x="443" y="586" name="top"/>
  <outline>
    <component base="dotlessi" xOffset="-7"/>
    <component base="o" xOffset="180"/>
    <contour>
      <point x="106" y="322" type="line"/>
      <point x="280" y="322" type="line"/>
      <point x="280" y="243" type="line"/>
      <point x="106" y="243" type="line"/>
    </contour>
  </outline>
</glyph>
<glyph name="yacyr" format="2">
  <advance width="592"/>
  <unicode hex="044F"/>
  <guideline x="315" y="0" angle="90" name="h1"/>
  <anchor x="315" y="586" name="top"/>
  <outline>
    <contour>
      <point x="69" y="0" type="line"/>
      <point x="154" y="0" type="line"/>
      <point x="238" y="163" type="line"/>
      <point x="436" y="163" type="line"/>
      <point x="436" y="0" type="line"/>
      <point x="523" y="0" type="line"/>
      <point x="523" y="524" type="line"/>
      <point x="237" y="524" type="line" smooth="yes"/>
      <point x="138" y="524"/>
      <point x="75" y="454"/>
      <point x="75" y="345" type="curve" smooth="yes"/>
      <point x="75" y="268"/>
      <point x="105" y="216"/>
      <point x="168" y="186" type="curve"/>
    </contour>
    <contour>
      <point x="162" y="341" type="curve" smooth="yes"/>
      <point x="162" y="400"/>
      <point x="198" y="445"/>
      <point x="245" y="445" type="curve" smooth="yes"/>
      <point x="436" y="445" type="line"/>
      <point x="436" y="242" type="line"/>
      <point x="266" y="242" type="line" smooth="yes"/>
      <point x="208" y="242"/>
      <point x="162" y="286"/>
    </contour>
  </outline>
</glyph>
<glyph name="eukrcyr" format="2">
  <advance width="566"/>
  <unicode hex="0454"/>
  <outline>
    <contour>
      <point x="294" y="-9" type="curve" smooth="yes"/>
      <point x="430" y="-9"/>
      <point x="513" y="62"/>
      <point x="513" y="179" type="curve" smooth="yes"/>
      <point x="513" y="183" type="line"/>
      <point x="428" y="183" type="line"/>
      <point x="428" y="179" type="line" smooth="yes"/>
      <point x="428" y="108"/>
      <point x="379" y="68"/>
      <point x="294" y="68" type="curve" smooth="yes"/>
      <point x="191" y="68"/>
      <point x="140" y="125"/>
      <point x="140" y="239" type="curve" smooth="yes"/>
      <point x="140" y="243" type="line"/>
      <point x="327" y="243" type="line"/>
      <point x="327" y="322" type="line"/>
      <point x="142" y="322" type="line"/>
      <point x="142" y="323" type="line" smooth="yes"/>
      <point x="142" y="413"/>
      <point x="202" y="457"/>
      <point x="294" y="457" type="curve" smooth="yes"/>
      <point x="379" y="457"/>
      <point x="428" y="415"/>
      <point x="428" y="344" type="curve" smooth="yes"/>
      <point x="428" y="339" type="line"/>
      <point x="513" y="339" type="line"/>
      <point x="513" y="344" type="line" smooth="yes"/>
      <point x="513" y="463"/>
      <point x="430" y="535"/>
      <point x="293" y="535" type="curve" smooth="yes"/>
      <point x="140" y="535"/>
      <point x="53" y="446"/>
      <point x="53" y="289" type="curve" smooth="yes"/>
      <point x="53" y="237" type="line" smooth="yes"/>
      <point x="53" y="80"/>
      <point x="140" y="-9"/>
    </contour>
  </outline>
</glyph>
<glyph name="Gheupturncyrillic" format="2">
  <advance width="604"/>
  <unicode hex="0490"/>
  <outline>
    <component base="Gecyr"/>
    <contour>
      <point x="477" y="707" type="line"/>
      <point x="477" y="867" type="line"/>
      <point x="567" y="867" type="line"/>
      <point x="567" y="707" type="line"/>
    </contour>
  </outline>
</glyph>
<glyph name="gheupturncyrillic" format="2">
  <advance width="387"/>
  <unicode hex="0491"/>
  <outline>
    <component base="gecyr"/>
    <contour>
      <point x="294" y="524" type="line"/>
      <point x="294" y="667" type="line"/>
      <point x="364" y="667" type="line"/>
      <point x="364" y="524" type="line"/>
    </contour>
  </outline>
</glyph>
<glyph name="ustraightcyrillic" format="2">
  <advance width="510"/>
  <unicode hex="04AF"/>
  <outline>
    <contour>
      <point x="209" y="-157" type="line"/>
      <point x="301" y="-157" type="line"/>
      <point x="301" y="101" type="line"/>
      <point x="506" y="523" type="line"/>
      <point x="401" y="523" type="line"/>
      <point x="256" y="210" type="line"/>
      <point x="109" y="523" type="line"/>
      <point x="4" y="523" type="line"/>
      <point x="209" y="102" type="line"/>
    </contour>
  </outline>
</glyph>
<glyph name="Germandbls" format="2">
  <advance width="747"/>
  <unicode hex="1E9E"/>
  <outline>
    <contour>
      <point x="265" y="-3" type="line"/>
      <point x="411" y="-3" type="line" smooth="yes"/>
      <point x="650" y="-3"/>
      <point x="697" y="74"/>
      <point x="697" y="203" type="curve" smooth="yes"/>
      <point x="697" y="330"/>
      <point x="625" y="405"/>
      <point x="450" y="409" type="curve"/>
      <point x="635" y="600" type="line"/>
      <point x="548" y="694"/>
      <point x="419" y="713"/>
      <point x="319" y="714" type="curve" smooth="yes"/>
      <point x="122" y="716"/>
      <point x="60" y="644"/>
      <point x="60" y="483" type="curve" smooth="yes"/>
      <point x="60" y="1" type="line"/>
      <point x="149" y="1" type="line"/>
      <point x="149" y="490" type="line" smooth="yes"/>
      <point x="149" y="593"/>
      <point x="167" y="632"/>
      <point x="319" y="632" type="curve" smooth="yes"/>
      <point x="388" y="632"/>
      <point x="436" y="632"/>
      <point x="514" y="593" type="curve"/>
      <point x="319" y="404" type="line"/>
      <point x="319" y="320" type="line"/>
      <point x="433" y="320" type="line" smooth="yes"/>
      <point x="564" y="320"/>
      <point x="608" y="285"/>
      <point x="608" y="202" type="curve" smooth="yes"/>
      <point x="608" y="91"/>
      <point x="562" y="84"/>
      <point x="437" y="84" type="curve" smooth="yes"/>
      <point x="265" y="84" type="line"/>
    </contour>
  </outline>
</glyph>
<glyph name="quoteright" format="2">
  <advance width="181"/>
  <unicode hex="2019"/>
  <outline>
    <contour>
      <point x="49" y="450" type="line"/>
      <point x="132" y="524" type="line"/>
      <point x="132" y="707" type="line"/>
      <point x="49" y="707" type="line"/>
    </contour>
  </outline>
</glyph>
<glyph name="quotedblright" format="2">
  <advance width="346"/>
  <unicode hex="201D"/>
  <outline>
    <contour>
      <point x="49" y="450" type="line"/>
      <point x="132" y="524" type="line"/>
      <point x="132" y="707" type="line"/>
      <point x="49" y="707" type="line"/>
    </contour>
    <contour>
      <point x="214" y="450" type="line"/>
      <point x="298" y="524" type="line"/>
      <point x="298" y="707" type="line"/>
      <point x="214" y="707" type="line"/>
    </contour>
  </outline>
</glyph>
<glyph name="bullet" format="2">
  <advance width="472"/>
  <unicode hex="2022"/>
  <outline>
    <contour>
      <point x="236" y="183" type="curve" smooth="yes"/>
      <point x="274" y="183"/>
      <point x="306" y="196"/>
      <point x="331" y="221" type="curve" smooth="yes"/>
      <point x="356" y="246"/>
      <point x="369" y="277"/>
      <point x="369" y="315" type="curve" smooth="yes"/>
      <point x="369" y="354"/>
      <point x="356" y="385"/>
      <point x="331" y="410" type="curve" smooth="yes"/>
      <point x="306" y="435"/>
      <point x="274" y="447"/>
      <point x="236" y="447" type="curve" smooth="yes"/>
      <point x="197" y="447"/>
      <point x="166" y="435"/>
      <point x="141" y="410" type="curve" smooth="yes"/>
      <point x="116" y="385"/>
      <point x="103" y="353"/>
      <point x="103" y="315" type="curve" smooth="yes"/>
      <point x="103" y="277"/>
      <point x="116" y="246"/>
      <point x="141" y="221" type="curve" smooth="yes"/>
      <point x="166" y="196"/>
      <point x="197" y="183"/>
    </contour>
  </outline>
</glyph>
<glyph name="perthousand" format="2">
  <advance width="1314"/>
  <unicode hex="2030"/>
  <outline>
    <contour>
      <point x="188" y="272" type="curve" smooth="yes"/>
      <point x="92" y="272"/>
      <point x="43" y="330"/>
      <point x="43" y="440" type="curve" smooth="yes"/>
      <point x="43" y="551" type="line" smooth="yes"/>
      <point x="43" y="656"/>
      <point x="94" y="714"/>
      <point x="189" y="714" type="curve" smooth="yes"/>
      <point x="286" y="714"/>
      <point x="335" y="660"/>
      <point x="336" y="551" type="curve" smooth="yes"/>
      <point x="336" y="440" type="line" smooth="yes"/>
      <point x="336" y="329"/>
      <point x="285" y="272"/>
    </contour>
    <contour>
      <point x="749" y="-6" type="curve" smooth="yes"/>
      <point x="652" y="-6"/>
      <point x="603" y="50"/>
      <point x="603" y="162" type="curve" smooth="yes"/>
      <point x="603" y="271" type="line" smooth="yes"/>
      <point x="603" y="379"/>
      <point x="652" y="434"/>
      <point x="750" y="434" type="curve" smooth="yes"/>
      <point x="847" y="434"/>
      <point x="896" y="380"/>
      <point x="896" y="271" type="curve" smooth="yes"/>
      <point x="896" y="162" type="line" smooth="yes"/>
      <point x="896" y="50"/>
      <point x="847" y="-6"/>
    </contour>
    <contour>
      <point x="1124" y="-6" type="curve" smooth="yes"/>
      <point x="1027" y="-6"/>
      <point x="979" y="50"/>
      <point x="979" y="162" type="curve" smooth="yes"/>
      <point x="979" y="271" type="line" smooth="yes"/>
      <point x="979" y="379"/>
      <point x="1029" y="434"/>
      <point x="1125" y="434" type="curve" smooth="yes"/>
      <point x="1222" y="434"/>
      <point x="1271" y="380"/>
      <point x="1272" y="271" type="curve" smooth="yes"/>
      <point x="1272" y="162" type="line" smooth="yes"/>
      <point x="1272" y="50"/>
      <point x="1223" y="-6"/>
    </contour>
    <contour>
      <point x="234" y="0" type="line"/>
      <point x="624" y="709" type="line"/>
      <point x="699" y="709" type="line"/>
      <point x="309" y="0" type="line"/>
    </contour>
    <contour>
      <point x="122" y="445" type="line" smooth="yes"/>
      <point x="122" y="369"/>
      <point x="144" y="341"/>
      <point x="189" y="341" type="curve" smooth="yes"/>
      <point x="235" y="341"/>
      <point x="256" y="368"/>
      <point x="256" y="445" type="curve" smooth="yes"/>
      <point x="256" y="543" type="line" smooth="yes"/>
      <point x="256" y="612"/>
      <point x="237" y="645"/>
      <point x="189" y="645" type="curve" smooth="yes"/>
      <point x="139" y="645"/>
      <point x="122" y="611"/>
      <point x="122" y="543" type="curve" smooth="yes"/>
    </contour>
    <contour>
      <point x="1058" y="166" type="line" smooth="yes"/>
      <point x="1058" y="94"/>
      <point x="1079" y="62"/>
      <point x="1125" y="62" type="curve" smooth="yes"/>
      <point x="1172" y="62"/>
      <point x="1192" y="93"/>
      <point x="1192" y="166" type="curve" smooth="yes"/>
      <point x="1192" y="263" type="line" smooth="yes"/>
      <point x="1192" y="334"/>
      <point x="1173" y="366"/>
      <point x="1125" y="366" type="curve" smooth="yes"/>
      <point x="1075" y="366"/>
      <point x="1058" y="333"/>
      <point x="1058" y="263" type="curve" smooth="yes"/>
    </contour>
    <contour>
      <point x="682" y="166" type="line" smooth="yes"/>
      <point x="682" y="94"/>
      <point x="702" y="62"/>
      <point x="750" y="62" type="curve" smooth="yes"/>
      <point x="795" y="62"/>
      <point x="816" y="93"/>
      <point x="816" y="166" type="curve" smooth="yes"/>
      <point x="816" y="263" type="line" smooth="yes"/>
      <point x="816" y="334"/>
      <point x="796" y="366"/>
      <point x="750" y="366" type="curve" smooth="yes"/>
      <point x="701" y="366"/>
      <point x="682" y="334"/>
      <point x="682" y="263" type="curve" smooth="yes"/>
    </contour>
  </outline>
</glyph>
<glyph name="Euro" format="2">
  <advance width="620"/>
  <unicode hex="20AC"/>
  <outline>
    <contour>
      <point x="103" y="236" type="curve" smooth="yes"/>
      <point x="103" y="257" type="line"/>
      <point x="35" y="257" type="line"/>
      <point x="35" y="323" type="line"/>
      <point x="103" y="323" type="line"/>
      <point x="103" y="389" type="line"/>
      <point x="35" y="389" type="line"/>
      <point x="35" y="455" type="line"/>
      <point x="103" y="455" type="line"/>
      <point x="103" y="478" type="line" smooth="yes"/>
      <point x="103" y="553"/>
      <point x="124" y="611"/>
      <point x="165" y="654" type="curve" smooth="yes"/>
      <point x="206" y="696"/>
      <point x="264" y="717"/>
      <point x="340" y="717" type="curve" smooth="yes"/>
      <point x="403" y="717"/>
      <point x="455" y="702"/>
      <point x="494" y="671" type="curve" smooth="yes"/>
      <point x="533" y="640"/>
      <point x="553" y="597"/>
      <point x="556" y="542" type="curve"/>
      <point x="473" y="542" type="line"/>
      <point x="463" y="605"/>
      <point x="419" y="636"/>
      <point x="341" y="636" type="curve" smooth="yes"/>
      <point x="244" y="636"/>
      <point x="195" y="584"/>
      <point x="195" y="479" type="curve" smooth="yes"/>
      <point x="195" y="455" type="line"/>
      <point x="444" y="455" type="line"/>
      <point x="431" y="389" type="line"/>
      <point x="195" y="389" type="line"/>
      <point x="195" y="323" type="line"/>
      <point x="417" y="323" type="line"/>
      <point x="403" y="257" type="line"/>
      <point x="195" y="257" type="line"/>
      <point x="195" y="233" type="line" smooth="yes"/>
      <point x="195" y="173"/>
      <point x="210" y="130"/>
      <point x="239" y="104" type="curve" smooth="yes"/>
      <point x="264" y="82"/>
      <point x="298" y="71"/>
      <point x="343" y="71" type="curve" smooth="yes"/>
      <point x="382" y="71"/>
      <point x="412" y="79"/>
      <point x="434" y="95" type="curve" smooth="yes"/>
      <point x="456" y="111"/>
      <point x="469" y="134"/>
      <point x="474" y="165" type="curve"/>
      <point x="560" y="165" type="line"/>
      <point x="556" y="110"/>
      <point x="534" y="67"/>
      <point x="495" y="36" type="curve" smooth="yes"/>
      <point x="456" y="5"/>
      <point x="404" y="-10"/>
      <point x="341" y="-10" type="curve" smooth="yes"/>
      <point x="264" y="-10"/>
      <point x="206" y="12"/>
      <point x="165" y="55" type="curve" smooth="yes"/>
      <point x="124" y="98"/>
      <point x="103" y="159"/>
    </contour>
  </outline>
</glyph>
<glyph name="minus" format="2">
  <advance width="521"/>
  <unicode hex="2212"/>
  <outline>
    <contour>
      <point x="53" y="242" type="line"/>
      <point x="468" y="242" type="line"/>
      <point x="468" y="324" type="line"/>
      <point x="53" y="324" type="line"/>
    </contour>
  </outline>
</glyph>
<glyph name="fi" format="2">
  <advance width="574"/>
  <unicode hex="FB01"/>
  <outline>
    <component base="f"/>
    <component base="dotlessi" xOffset="334"/>
    <contour>
      <point x="410" y="622" type="line"/>
      <point x="497" y="622" type="line"/>
      <point x="497" y="707" type="line"/>
      <point x="410" y="707" type="line"/>
    </contour>
  </outline>
</glyph>
<glyph name="a.ss02" format="2">
  <advance width="562"/>
  <outline>
    <contour>
      <point x="114" y="242" type="line" smooth="yes"/>
      <point x="114" y="128"/>
      <point x="165" y="70"/>
      <point x="267" y="70" type="curve"/>
      <point x="290" y="70" type="line" smooth="yes"/>
      <point x="335" y="70"/>
      <point x="369" y="83"/>
      <point x="391" y="111" type="curve" smooth="yes"/>
      <point x="413" y="138"/>
      <point x="425" y="176"/>
      <point x="426" y="224" type="curve" smooth="yes"/>
      <point x="426" y="279" type="line" smooth="yes"/>
      <point x="426" y="296"/>
      <point x="424" y="314"/>
      <point x="420" y="333" type="curve" smooth="yes"/>
      <point x="412" y="371"/>
      <point x="395" y="401"/>
      <point x="368" y="423" type="curve" smooth="yes"/>
      <point x="342" y="444"/>
      <point x="306" y="455"/>
      <point x="267" y="455" type="curve"/>
      <point x="165" y="454"/>
      <point x="114" y="402"/>
      <point x="114" y="290" type="curve" smooth="yes"/>
    </contour>
    <contour>
      <point x="427" y="523" type="line"/>
      <point x="513" y="523" type="line"/>
      <point x="513" y="0" type="line"/>
      <point x="427" y="0" type="line"/>
      <point x="427" y="65" type="line"/>
      <point x="396" y="16"/>
      <point x="347" y="-7"/>
      <point x="281" y="-7" type="curve" smooth="yes"/>
      <point x="267" y="-7" type="line"/>
      <point x="192" y="-7"/>
      <point x="134" y="15"/>
      <point x="91" y="57" type="curve" smooth="yes"/>
      <point x="48" y="99"/>
      <point x="27" y="160"/>
      <point x="27" y="240" type="curve" smooth="yes"/>
      <point x="27" y="292" type="line" smooth="yes"/>
      <point x="27" y="372"/>
      <point x="48" y="433"/>
      <point x="91" y="475" type="curve" smooth="yes"/>
      <point x="134" y="516"/>
      <point x="192" y="531"/>
      <point x="267" y="532" type="curve"/>
      <point x="302" y="531"/>
      <point x="333" y="524"/>
      <point x="362" y="511" type="curve" smooth="yes"/>
      <point x="391" y="497"/>
      <point x="407" y="477"/>
      <point x="427" y="451" type="curve"/>
    </contour>
  </outline>
</glyph>
<glyph name="acutecomb.loclPLK" format="2">
  <outline>
    <contour>
      <point x="-43" y="586" type="line"/>
      <point x="39" y="586" type="line"/>
      <point x="105" y="717" type="line"/>
      <point x="-4" y="717" type="line"/>
    </contour>
  </outline>
</glyph>
<glyph name="caroncmb.alt" format="2">
  <outline>
    <contour>
      <point x="-41" y="533" type="line"/>
      <point x="42" y="607" type="line"/>
      <point x="42" y="707" type="line"/>
      <point x="-41" y="707" type="line"/>
    </contour>
  </outline>
</glyph>
<glyph name="eight.dnom" format="2">
  <advance width="371"/>
  <outline>
    <contour>
      <point x="187" y="-17" type="curve" smooth="yes"/>
      <point x="88" y="-17"/>
      <point x="28" y="35"/>
      <point x="28" y="113" type="curve" smooth="yes"/>
      <point x="28" y="122" type="line" smooth="yes"/>
      <point x="28" y="136"/>
      <point x="29" y="188"/>
      <point x="84" y="221" type="curve"/>
      <point x="69" y="231"/>
      <point x="38" y="257"/>
      <point x="38" y="308" type="curve" smooth="yes"/>
      <point x="38" y="316" type="line" smooth="yes"/>
      <point x="38" y="381"/>
      <point x="88" y="437"/>
      <point x="187" y="437" type="curve" smooth="yes"/>
      <point x="281" y="437"/>
      <point x="337" y="385"/>
      <point x="337" y="316" type="curve" smooth="yes"/>
      <point x="337" y="308" type="line" smooth="yes"/>
      <point x="337" y="290"/>
      <point x="332" y="249"/>
      <point x="290" y="221" type="curve"/>
      <point x="311" y="208"/>
      <point x="346" y="179"/>
      <point x="346" y="123" type="curve" smooth="yes"/>
      <point x="346" y="113" type="line" smooth="yes"/>
      <point x="346" y="34"/>
      <point x="282" y="-17"/>
    </contour>
    <contour>
      <point x="187" y="255" type="curve" smooth="yes"/>
      <point x="209" y="255"/>
      <point x="253" y="261"/>
      <point x="253" y="307" type="curve" smooth="yes"/>
      <point x="253" y="316" type="line" smooth="yes"/>
      <point x="253" y="352"/>
      <point x="224" y="366"/>
      <point x="187" y="366" type="curve" smooth="yes"/>
      <point x="172" y="366"/>
      <point x="121" y="364"/>
      <point x="121" y="316" type="curve" smooth="yes"/>
      <point x="121" y="307" type="line" smooth="yes"/>
      <point x="121" y="289"/>
      <point x="129" y="255"/>
    </contour>
    <contour>
      <point x="187" y="53" type="curve" smooth="yes"/>
      <point x="210" y="53"/>
      <point x="262" y="59"/>
      <point x="262" y="115" type="curve" smooth="yes"/>
      <point x="262" y="124" type="line" smooth="yes"/>
      <point x="262" y="142"/>
      <point x="255" y="185"/>
      <point x="187" y="185" type="curve" smooth="yes"/>
      <point x="161" y="185"/>
      <point x="111" y="178"/>
      <point x="111" y="124" type="curve" smooth="yes"/>
      <point x="111" y="115" type="line" smooth="yes"/>
      <point x="111" y="93"/>
      <point x="121" y="53"/>
    </contour>
  </outline>
</glyph>
<glyph name="five.dnom" format="2">
  <advance width="350"/>
  <outline>
    <contour>
      <point x="173" y="-17" type="curve" smooth="yes"/>
      <point x="313" y="-17"/>
      <point x="324" y="86"/>
      <point x="324" y="122" type="curve" smooth="yes"/>
      <point x="324" y="148" type="line" smooth="yes"/>
      <point x="324" y="276"/>
      <point x="223" y="288"/>
      <point x="187" y="288" type="curve" smooth="yes"/>
      <point x="152" y="288"/>
      <point x="127" y="278"/>
      <point x="113" y="270" type="curve"/>
      <point x="113" y="359" type="line"/>
      <point x="312" y="359" type="line"/>
      <point x="312" y="431" type="line"/>
      <point x="35" y="431" type="line"/>
      <point x="35" y="176" type="line"/>
      <point x="113" y="176" type="line"/>
      <point x="120" y="192"/>
      <point x="132" y="217"/>
      <point x="176" y="217" type="curve" smooth="yes"/>
      <point x="207" y="217"/>
      <point x="241" y="207"/>
      <point x="241" y="146" type="curve" smooth="yes"/>
      <point x="241" y="125" type="line" smooth="yes"/>
      <point x="241" y="66"/>
      <point x="208" y="54"/>
      <point x="174" y="54" type="curve" smooth="yes"/>
      <point x="115" y="54"/>
      <point x="109" y="89"/>
      <point x="109" y="102" type="curve" smooth="yes"/>
      <point x="109" y="116" type="line"/>
      <point x="28" y="116" type="line"/>
      <point x="28" y="100" type="line" smooth="yes"/>
      <point x="28" y="43"/>
      <point x="68" y="-17"/>
    </contour>
  </outline>
</glyph>
<glyph name="five.tosf" format="2">
  <advance width="562"/>
  <outline>
    <contour>
      <point x="276" y="-176" type="curve" smooth="yes"/>
      <point x="414" y="-176"/>
      <point x="494" y="-96"/>
      <point x="494" y="40" type="curve" smooth="yes"/>
      <point x="494" y="76" type="line" smooth="yes"/>
      <point x="494" y="214"/>
      <point x="422" y="292"/>
      <point x="298" y="292" type="curve" smooth="yes"/>
      <point x="243" y="292"/>
      <point x="194" y="272"/>
      <point x="163" y="241" type="curve"/>
      <point x="163" y="440" type="line"/>
      <point x="475" y="440" type="line"/>
      <point x="475" y="523" type="line"/>
      <point x="80" y="523" type="line"/>
      <point x="80" y="141" type="line"/>
      <point x="170" y="141" type="line"/>
      <point x="188" y="187"/>
      <point x="227" y="211"/>
      <point x="281" y="211" type="curve" smooth="yes"/>
      <point x="360" y="211"/>
      <point x="402" y="165"/>
      <point x="402" y="72" type="curve" smooth="yes"/>
      <point x="402" y="44" type="line" smooth="yes"/>
      <point x="402" y="-48"/>
      <point x="361" y="-94"/>
      <point x="278" y="-94" type="curve" smooth="yes"/>
      <point x="199" y="-94"/>
      <point x="158" y="-51"/>
      <point x="158" y="6" type="curve" smooth="yes"/>
      <point x="158" y="11" type="line"/>
      <point x="68" y="11" type="line"/>
      <point x="68" y="3" type="line" smooth="yes"/>
      <point x="68" y="-102"/>
      <point x="143" y="-176"/>
    </contour>
  </outline>
</glyph>
<glyph name="four.dnom" format="2">
  <advance width="369"/>
  <outline>
    <contour>
      <point x="216" y="-11" type="line"/>
      <point x="300" y="-11" type="line"/>
      <point x="300" y="67" type="line"/>
      <point x="355" y="67" type="line"/>
      <point x="355" y="138" type="line"/>
      <point x="300" y="138" type="line"/>
      <point x="300" y="247" type="line"/>
      <point x="216" y="247" type="line"/>
      <point x="216" y="138" type="line"/>
      <point x="108" y="138" type="line"/>
      <point x="263" y="431" type="line"/>
      <point x="175" y="431" type="line"/>
      <point x="16" y="130" type="line"/>
      <point x="16" y="67" type="line"/>
      <point x="216" y="67" type="line"/>
    </contour>
  </outline>
</glyph>
